%FSLAX45Y45*%
G04 Gerber Fmt 4.5, Leading zero omitted, Abs format (unit mm)*
G04 Created by KiCad (PCBNEW (6.0.2)) date 2022-03-31 22:04:26*
%MOMM*%
%LPD*%
G01*
G04 APERTURE LIST*
%TA.AperFunction,Profile*%
%ADD10C,0.200000*%
%TD*%
%ADD11C,0.200000*%
%ADD12C,0.051000*%
%ADD13C,0.055880*%
%ADD14C,0.080000*%
%ADD15C,0.100000*%
%ADD16C,0.320000*%
G04 APERTURE END LIST*
D10*
X16965818Y-5298035D02*
X16965818Y-14998294D01*
X9965578Y-14998294D02*
X9965578Y-5298035D01*
X16965818Y-14998294D02*
X9965578Y-14998294D01*
X9965578Y-5298035D02*
X16965818Y-5298035D01*
D11*
D12*
X13906400Y-10411200D02*
X13957400Y-10462200D01*
X13957400Y-10411200D02*
X13906400Y-10462200D01*
X13906400Y-11661200D02*
X13957400Y-11712200D01*
X13957400Y-11661200D02*
X13906400Y-11712200D01*
X14160400Y-10411200D02*
X14211400Y-10462200D01*
X14211400Y-10411200D02*
X14160400Y-10462200D01*
X14160400Y-11661200D02*
X14211400Y-11712200D01*
X14211400Y-11661200D02*
X14160400Y-11712200D01*
X14414400Y-10411200D02*
X14465400Y-10462200D01*
X14465400Y-10411200D02*
X14414400Y-10462200D01*
X14414400Y-11661200D02*
X14465400Y-11712200D01*
X14465400Y-11661200D02*
X14414400Y-11712200D01*
X14668400Y-10411200D02*
X14719400Y-10462200D01*
X14719400Y-10411200D02*
X14668400Y-10462200D01*
X14668400Y-11661200D02*
X14719400Y-11712200D01*
X14719400Y-11661200D02*
X14668400Y-11712200D01*
X14922400Y-10411200D02*
X14973400Y-10462200D01*
X14973400Y-10411200D02*
X14922400Y-10462200D01*
X14922400Y-11661200D02*
X14973400Y-11712200D01*
X14973400Y-11661200D02*
X14922400Y-11712200D01*
D13*
X10200640Y-8623300D02*
G75*
G03*
X10200640Y-8623300I-27940J0D01*
G01*
X10454640Y-8623300D02*
G75*
G03*
X10454640Y-8623300I-27940J0D01*
G01*
X10759440Y-9220200D02*
G75*
G03*
X10759440Y-9220200I-27940J0D01*
G01*
X10810240Y-8890000D02*
G75*
G03*
X10810240Y-8890000I-27940J0D01*
G01*
X11051540Y-9461500D02*
G75*
G03*
X11051540Y-9461500I-27940J0D01*
G01*
X11115040Y-9182100D02*
G75*
G03*
X11115040Y-9182100I-27940J0D01*
G01*
X11432540Y-9652000D02*
G75*
G03*
X11432540Y-9652000I-27940J0D01*
G01*
X11445240Y-9410700D02*
G75*
G03*
X11445240Y-9410700I-27940J0D01*
G01*
X11699240Y-9969500D02*
G75*
G03*
X11699240Y-9969500I-27940J0D01*
G01*
X11724640Y-9690100D02*
G75*
G03*
X11724640Y-9690100I-27940J0D01*
G01*
X14127940Y-9210000D02*
G75*
G03*
X14127940Y-9210000I-27940J0D01*
G01*
X14267940Y-8880000D02*
G75*
G03*
X14267940Y-8880000I-27940J0D01*
G01*
X14697940Y-8920000D02*
G75*
G03*
X14697940Y-8920000I-27940J0D01*
G01*
X15377940Y-8760000D02*
G75*
G03*
X15377940Y-8760000I-27940J0D01*
G01*
X15657940Y-8830000D02*
G75*
G03*
X15657940Y-8830000I-27940J0D01*
G01*
X15917940Y-8840000D02*
G75*
G03*
X15917940Y-8840000I-27940J0D01*
G01*
X16267940Y-8510000D02*
G75*
G03*
X16267940Y-8510000I-27940J0D01*
G01*
X16537940Y-8630000D02*
G75*
G03*
X16537940Y-8630000I-27940J0D01*
G01*
D14*
X10267064Y-6303396D02*
X10267064Y-6383396D01*
X10227064Y-6343396D02*
X10307064Y-6343396D01*
X10267064Y-6557396D02*
X10267064Y-6637396D01*
X10227064Y-6597396D02*
X10307064Y-6597396D01*
X10267064Y-6811396D02*
X10267064Y-6891396D01*
X10227064Y-6851396D02*
X10307064Y-6851396D01*
X10267064Y-7227956D02*
X10267064Y-7307956D01*
X10227064Y-7267956D02*
X10307064Y-7267956D01*
X10267064Y-7481956D02*
X10267064Y-7561956D01*
X10227064Y-7521956D02*
X10307064Y-7521956D01*
X10267064Y-7735956D02*
X10267064Y-7815956D01*
X10227064Y-7775956D02*
X10307064Y-7775956D01*
X10586342Y-6303396D02*
X10586342Y-6383396D01*
X10546342Y-6343396D02*
X10626342Y-6343396D01*
X10586342Y-6557396D02*
X10586342Y-6637396D01*
X10546342Y-6597396D02*
X10626342Y-6597396D01*
X10586342Y-6811396D02*
X10586342Y-6891396D01*
X10546342Y-6851396D02*
X10626342Y-6851396D01*
X10586342Y-7227956D02*
X10586342Y-7307956D01*
X10546342Y-7267956D02*
X10626342Y-7267956D01*
X10586342Y-7481956D02*
X10586342Y-7561956D01*
X10546342Y-7521956D02*
X10626342Y-7521956D01*
X10586342Y-7735956D02*
X10586342Y-7815956D01*
X10546342Y-7775956D02*
X10626342Y-7775956D01*
X11106280Y-6303396D02*
X11106280Y-6383396D01*
X11066280Y-6343396D02*
X11146280Y-6343396D01*
X11106280Y-6557396D02*
X11106280Y-6637396D01*
X11066280Y-6597396D02*
X11146280Y-6597396D01*
X11106280Y-6811396D02*
X11106280Y-6891396D01*
X11066280Y-6851396D02*
X11146280Y-6851396D01*
X11106280Y-7227956D02*
X11106280Y-7307956D01*
X11066280Y-7267956D02*
X11146280Y-7267956D01*
X11106280Y-7481956D02*
X11106280Y-7561956D01*
X11066280Y-7521956D02*
X11146280Y-7521956D01*
X11106280Y-7735956D02*
X11106280Y-7815956D01*
X11066280Y-7775956D02*
X11146280Y-7775956D01*
X11425558Y-6303396D02*
X11425558Y-6383396D01*
X11385558Y-6343396D02*
X11465558Y-6343396D01*
X11425558Y-6557396D02*
X11425558Y-6637396D01*
X11385558Y-6597396D02*
X11465558Y-6597396D01*
X11425558Y-6811396D02*
X11425558Y-6891396D01*
X11385558Y-6851396D02*
X11465558Y-6851396D01*
X11425558Y-7227956D02*
X11425558Y-7307956D01*
X11385558Y-7267956D02*
X11465558Y-7267956D01*
X11425558Y-7481956D02*
X11425558Y-7561956D01*
X11385558Y-7521956D02*
X11465558Y-7521956D01*
X11425558Y-7735956D02*
X11425558Y-7815956D01*
X11385558Y-7775956D02*
X11465558Y-7775956D01*
X11903586Y-5388996D02*
X11903586Y-5468996D01*
X11863586Y-5428996D02*
X11943586Y-5428996D01*
X11903586Y-5642996D02*
X11903586Y-5722996D01*
X11863586Y-5682996D02*
X11943586Y-5682996D01*
X11903586Y-5896996D02*
X11903586Y-5976996D01*
X11863586Y-5936996D02*
X11943586Y-5936996D01*
X11903586Y-6303396D02*
X11903586Y-6383396D01*
X11863586Y-6343396D02*
X11943586Y-6343396D01*
X11903586Y-6557396D02*
X11903586Y-6637396D01*
X11863586Y-6597396D02*
X11943586Y-6597396D01*
X11903586Y-6811396D02*
X11903586Y-6891396D01*
X11863586Y-6851396D02*
X11943586Y-6851396D01*
X11903586Y-7227956D02*
X11903586Y-7307956D01*
X11863586Y-7267956D02*
X11943586Y-7267956D01*
X11903586Y-7481956D02*
X11903586Y-7561956D01*
X11863586Y-7521956D02*
X11943586Y-7521956D01*
X11903586Y-7735956D02*
X11903586Y-7815956D01*
X11863586Y-7775956D02*
X11943586Y-7775956D01*
X12222864Y-5388996D02*
X12222864Y-5468996D01*
X12182864Y-5428996D02*
X12262864Y-5428996D01*
X12222864Y-5642996D02*
X12222864Y-5722996D01*
X12182864Y-5682996D02*
X12262864Y-5682996D01*
X12222864Y-5896996D02*
X12222864Y-5976996D01*
X12182864Y-5936996D02*
X12262864Y-5936996D01*
X12222864Y-6303396D02*
X12222864Y-6383396D01*
X12182864Y-6343396D02*
X12262864Y-6343396D01*
X12222864Y-6557396D02*
X12222864Y-6637396D01*
X12182864Y-6597396D02*
X12262864Y-6597396D01*
X12222864Y-6811396D02*
X12222864Y-6891396D01*
X12182864Y-6851396D02*
X12262864Y-6851396D01*
X12222864Y-7227956D02*
X12222864Y-7307956D01*
X12182864Y-7267956D02*
X12262864Y-7267956D01*
X12222864Y-7481956D02*
X12222864Y-7561956D01*
X12182864Y-7521956D02*
X12262864Y-7521956D01*
X12222864Y-7735956D02*
X12222864Y-7815956D01*
X12182864Y-7775956D02*
X12262864Y-7775956D01*
X12768202Y-5388996D02*
X12768202Y-5468996D01*
X12728202Y-5428996D02*
X12808202Y-5428996D01*
X12768202Y-5642996D02*
X12768202Y-5722996D01*
X12728202Y-5682996D02*
X12808202Y-5682996D01*
X12768202Y-5896996D02*
X12768202Y-5976996D01*
X12728202Y-5936996D02*
X12808202Y-5936996D01*
X12768202Y-6303396D02*
X12768202Y-6383396D01*
X12728202Y-6343396D02*
X12808202Y-6343396D01*
X12768202Y-6557396D02*
X12768202Y-6637396D01*
X12728202Y-6597396D02*
X12808202Y-6597396D01*
X12768202Y-6811396D02*
X12768202Y-6891396D01*
X12728202Y-6851396D02*
X12808202Y-6851396D01*
X12768202Y-7227956D02*
X12768202Y-7307956D01*
X12728202Y-7267956D02*
X12808202Y-7267956D01*
X12768202Y-7481956D02*
X12768202Y-7561956D01*
X12728202Y-7521956D02*
X12808202Y-7521956D01*
X12768202Y-7735956D02*
X12768202Y-7815956D01*
X12728202Y-7775956D02*
X12808202Y-7775956D01*
X13087480Y-5388996D02*
X13087480Y-5468996D01*
X13047480Y-5428996D02*
X13127480Y-5428996D01*
X13087480Y-5642996D02*
X13087480Y-5722996D01*
X13047480Y-5682996D02*
X13127480Y-5682996D01*
X13087480Y-5896996D02*
X13087480Y-5976996D01*
X13047480Y-5936996D02*
X13127480Y-5936996D01*
X13087480Y-6303396D02*
X13087480Y-6383396D01*
X13047480Y-6343396D02*
X13127480Y-6343396D01*
X13087480Y-6557396D02*
X13087480Y-6637396D01*
X13047480Y-6597396D02*
X13127480Y-6597396D01*
X13087480Y-6811396D02*
X13087480Y-6891396D01*
X13047480Y-6851396D02*
X13127480Y-6851396D01*
X13087480Y-7227956D02*
X13087480Y-7307956D01*
X13047480Y-7267956D02*
X13127480Y-7267956D01*
X13087480Y-7481956D02*
X13087480Y-7561956D01*
X13047480Y-7521956D02*
X13127480Y-7521956D01*
X13087480Y-7735956D02*
X13087480Y-7815956D01*
X13047480Y-7775956D02*
X13127480Y-7775956D01*
X13801474Y-5388996D02*
X13801474Y-5468996D01*
X13761474Y-5428996D02*
X13841474Y-5428996D01*
X13801474Y-5642996D02*
X13801474Y-5722996D01*
X13761474Y-5682996D02*
X13841474Y-5682996D01*
X13801474Y-5896996D02*
X13801474Y-5976996D01*
X13761474Y-5936996D02*
X13841474Y-5936996D01*
X13801474Y-6303396D02*
X13801474Y-6383396D01*
X13761474Y-6343396D02*
X13841474Y-6343396D01*
X13801474Y-6557396D02*
X13801474Y-6637396D01*
X13761474Y-6597396D02*
X13841474Y-6597396D01*
X13801474Y-6811396D02*
X13801474Y-6891396D01*
X13761474Y-6851396D02*
X13841474Y-6851396D01*
X13811126Y-7227956D02*
X13811126Y-7307956D01*
X13771126Y-7267956D02*
X13851126Y-7267956D01*
X13811126Y-7481956D02*
X13811126Y-7561956D01*
X13771126Y-7521956D02*
X13851126Y-7521956D01*
X13811126Y-7735956D02*
X13811126Y-7815956D01*
X13771126Y-7775956D02*
X13851126Y-7775956D01*
X14120752Y-5388996D02*
X14120752Y-5468996D01*
X14080752Y-5428996D02*
X14160752Y-5428996D01*
X14120752Y-5642996D02*
X14120752Y-5722996D01*
X14080752Y-5682996D02*
X14160752Y-5682996D01*
X14120752Y-5896996D02*
X14120752Y-5976996D01*
X14080752Y-5936996D02*
X14160752Y-5936996D01*
X14120752Y-6303396D02*
X14120752Y-6383396D01*
X14080752Y-6343396D02*
X14160752Y-6343396D01*
X14120752Y-6557396D02*
X14120752Y-6637396D01*
X14080752Y-6597396D02*
X14160752Y-6597396D01*
X14120752Y-6811396D02*
X14120752Y-6891396D01*
X14080752Y-6851396D02*
X14160752Y-6851396D01*
X14130404Y-7227956D02*
X14130404Y-7307956D01*
X14090404Y-7267956D02*
X14170404Y-7267956D01*
X14130404Y-7481956D02*
X14130404Y-7561956D01*
X14090404Y-7521956D02*
X14170404Y-7521956D01*
X14130404Y-7735956D02*
X14130404Y-7815956D01*
X14090404Y-7775956D02*
X14170404Y-7775956D01*
X14643230Y-5388996D02*
X14643230Y-5468996D01*
X14603230Y-5428996D02*
X14683230Y-5428996D01*
X14643230Y-5642996D02*
X14643230Y-5722996D01*
X14603230Y-5682996D02*
X14683230Y-5682996D01*
X14643230Y-5896996D02*
X14643230Y-5976996D01*
X14603230Y-5936996D02*
X14683230Y-5936996D01*
X14643230Y-6303396D02*
X14643230Y-6383396D01*
X14603230Y-6343396D02*
X14683230Y-6343396D01*
X14643230Y-6557396D02*
X14643230Y-6637396D01*
X14603230Y-6597396D02*
X14683230Y-6597396D01*
X14643230Y-6811396D02*
X14643230Y-6891396D01*
X14603230Y-6851396D02*
X14683230Y-6851396D01*
X14647802Y-7227956D02*
X14647802Y-7307956D01*
X14607802Y-7267956D02*
X14687802Y-7267956D01*
X14647802Y-7481956D02*
X14647802Y-7561956D01*
X14607802Y-7521956D02*
X14687802Y-7521956D01*
X14647802Y-7735956D02*
X14647802Y-7815956D01*
X14607802Y-7775956D02*
X14687802Y-7775956D01*
X14962508Y-5388996D02*
X14962508Y-5468996D01*
X14922508Y-5428996D02*
X15002508Y-5428996D01*
X14962508Y-5642996D02*
X14962508Y-5722996D01*
X14922508Y-5682996D02*
X15002508Y-5682996D01*
X14962508Y-5896996D02*
X14962508Y-5976996D01*
X14922508Y-5936996D02*
X15002508Y-5936996D01*
X14962508Y-6303396D02*
X14962508Y-6383396D01*
X14922508Y-6343396D02*
X15002508Y-6343396D01*
X14962508Y-6557396D02*
X14962508Y-6637396D01*
X14922508Y-6597396D02*
X15002508Y-6597396D01*
X14962508Y-6811396D02*
X14962508Y-6891396D01*
X14922508Y-6851396D02*
X15002508Y-6851396D01*
X14967080Y-7227956D02*
X14967080Y-7307956D01*
X14927080Y-7267956D02*
X15007080Y-7267956D01*
X14967080Y-7481956D02*
X14967080Y-7561956D01*
X14927080Y-7521956D02*
X15007080Y-7521956D01*
X14967080Y-7735956D02*
X14967080Y-7815956D01*
X14927080Y-7775956D02*
X15007080Y-7775956D01*
X15460602Y-6299840D02*
X15460602Y-6379840D01*
X15420602Y-6339840D02*
X15500602Y-6339840D01*
X15460602Y-6553840D02*
X15460602Y-6633840D01*
X15420602Y-6593840D02*
X15500602Y-6593840D01*
X15460602Y-6807840D02*
X15460602Y-6887840D01*
X15420602Y-6847840D02*
X15500602Y-6847840D01*
X15466190Y-7224400D02*
X15466190Y-7304400D01*
X15426190Y-7264400D02*
X15506190Y-7264400D01*
X15466190Y-7478400D02*
X15466190Y-7558400D01*
X15426190Y-7518400D02*
X15506190Y-7518400D01*
X15466190Y-7732400D02*
X15466190Y-7812400D01*
X15426190Y-7772400D02*
X15506190Y-7772400D01*
X15779880Y-6299840D02*
X15779880Y-6379840D01*
X15739880Y-6339840D02*
X15819880Y-6339840D01*
X15779880Y-6553840D02*
X15779880Y-6633840D01*
X15739880Y-6593840D02*
X15819880Y-6593840D01*
X15779880Y-6807840D02*
X15779880Y-6887840D01*
X15739880Y-6847840D02*
X15819880Y-6847840D01*
X15785468Y-7224400D02*
X15785468Y-7304400D01*
X15745468Y-7264400D02*
X15825468Y-7264400D01*
X15785468Y-7478400D02*
X15785468Y-7558400D01*
X15745468Y-7518400D02*
X15825468Y-7518400D01*
X15785468Y-7732400D02*
X15785468Y-7812400D01*
X15745468Y-7772400D02*
X15825468Y-7772400D01*
X16302612Y-6299840D02*
X16302612Y-6379840D01*
X16262612Y-6339840D02*
X16342612Y-6339840D01*
X16302612Y-6553840D02*
X16302612Y-6633840D01*
X16262612Y-6593840D02*
X16342612Y-6593840D01*
X16302612Y-6807840D02*
X16302612Y-6887840D01*
X16262612Y-6847840D02*
X16342612Y-6847840D01*
X16305406Y-7224400D02*
X16305406Y-7304400D01*
X16265406Y-7264400D02*
X16345406Y-7264400D01*
X16305406Y-7478400D02*
X16305406Y-7558400D01*
X16265406Y-7518400D02*
X16345406Y-7518400D01*
X16305406Y-7732400D02*
X16305406Y-7812400D01*
X16265406Y-7772400D02*
X16345406Y-7772400D01*
X16621890Y-6299840D02*
X16621890Y-6379840D01*
X16581890Y-6339840D02*
X16661890Y-6339840D01*
X16621890Y-6553840D02*
X16621890Y-6633840D01*
X16581890Y-6593840D02*
X16661890Y-6593840D01*
X16621890Y-6807840D02*
X16621890Y-6887840D01*
X16581890Y-6847840D02*
X16661890Y-6847840D01*
X16624684Y-7224400D02*
X16624684Y-7304400D01*
X16584684Y-7264400D02*
X16664684Y-7264400D01*
X16624684Y-7478400D02*
X16624684Y-7558400D01*
X16584684Y-7518400D02*
X16664684Y-7518400D01*
X16624684Y-7732400D02*
X16624684Y-7812400D01*
X16584684Y-7772400D02*
X16664684Y-7772400D01*
D15*
X10202976Y-8997746D02*
X10202976Y-8927034D01*
X10132264Y-8927034D01*
X10132264Y-8997746D01*
X10202976Y-8997746D01*
X10202976Y-9251746D02*
X10202976Y-9181034D01*
X10132264Y-9181034D01*
X10132264Y-9251746D01*
X10202976Y-9251746D01*
X10202976Y-9505746D02*
X10202976Y-9435034D01*
X10132264Y-9435034D01*
X10132264Y-9505746D01*
X10202976Y-9505746D01*
X10202976Y-9759746D02*
X10202976Y-9689034D01*
X10132264Y-9689034D01*
X10132264Y-9759746D01*
X10202976Y-9759746D01*
X10202976Y-10013746D02*
X10202976Y-9943034D01*
X10132264Y-9943034D01*
X10132264Y-10013746D01*
X10202976Y-10013746D01*
X10202976Y-10267746D02*
X10202976Y-10197034D01*
X10132264Y-10197034D01*
X10132264Y-10267746D01*
X10202976Y-10267746D01*
X10202976Y-10521746D02*
X10202976Y-10451034D01*
X10132264Y-10451034D01*
X10132264Y-10521746D01*
X10202976Y-10521746D01*
X10202976Y-10775746D02*
X10202976Y-10705034D01*
X10132264Y-10705034D01*
X10132264Y-10775746D01*
X10202976Y-10775746D01*
X10202976Y-11029746D02*
X10202976Y-10959034D01*
X10132264Y-10959034D01*
X10132264Y-11029746D01*
X10202976Y-11029746D01*
X10202976Y-11283746D02*
X10202976Y-11213034D01*
X10132264Y-11213034D01*
X10132264Y-11283746D01*
X10202976Y-11283746D01*
X10202976Y-11537746D02*
X10202976Y-11467034D01*
X10132264Y-11467034D01*
X10132264Y-11537746D01*
X10202976Y-11537746D01*
X10202976Y-11791746D02*
X10202976Y-11721034D01*
X10132264Y-11721034D01*
X10132264Y-11791746D01*
X10202976Y-11791746D01*
X10202976Y-12045746D02*
X10202976Y-11975034D01*
X10132264Y-11975034D01*
X10132264Y-12045746D01*
X10202976Y-12045746D01*
X10202976Y-12299746D02*
X10202976Y-12229034D01*
X10132264Y-12229034D01*
X10132264Y-12299746D01*
X10202976Y-12299746D01*
X10202976Y-12553746D02*
X10202976Y-12483034D01*
X10132264Y-12483034D01*
X10132264Y-12553746D01*
X10202976Y-12553746D01*
X10202976Y-12807746D02*
X10202976Y-12737034D01*
X10132264Y-12737034D01*
X10132264Y-12807746D01*
X10202976Y-12807746D01*
X10202976Y-13061746D02*
X10202976Y-12991034D01*
X10132264Y-12991034D01*
X10132264Y-13061746D01*
X10202976Y-13061746D01*
X10202976Y-13315746D02*
X10202976Y-13245034D01*
X10132264Y-13245034D01*
X10132264Y-13315746D01*
X10202976Y-13315746D01*
X10202976Y-13569746D02*
X10202976Y-13499034D01*
X10132264Y-13499034D01*
X10132264Y-13569746D01*
X10202976Y-13569746D01*
X10202976Y-13823746D02*
X10202976Y-13753034D01*
X10132264Y-13753034D01*
X10132264Y-13823746D01*
X10202976Y-13823746D01*
X10456976Y-8997746D02*
X10456976Y-8927034D01*
X10386264Y-8927034D01*
X10386264Y-8997746D01*
X10456976Y-8997746D01*
X10456976Y-9251746D02*
X10456976Y-9181034D01*
X10386264Y-9181034D01*
X10386264Y-9251746D01*
X10456976Y-9251746D01*
X10456976Y-9505746D02*
X10456976Y-9435034D01*
X10386264Y-9435034D01*
X10386264Y-9505746D01*
X10456976Y-9505746D01*
X10456976Y-9759746D02*
X10456976Y-9689034D01*
X10386264Y-9689034D01*
X10386264Y-9759746D01*
X10456976Y-9759746D01*
X10456976Y-10013746D02*
X10456976Y-9943034D01*
X10386264Y-9943034D01*
X10386264Y-10013746D01*
X10456976Y-10013746D01*
X10456976Y-10267746D02*
X10456976Y-10197034D01*
X10386264Y-10197034D01*
X10386264Y-10267746D01*
X10456976Y-10267746D01*
X10456976Y-10521746D02*
X10456976Y-10451034D01*
X10386264Y-10451034D01*
X10386264Y-10521746D01*
X10456976Y-10521746D01*
X10456976Y-10775746D02*
X10456976Y-10705034D01*
X10386264Y-10705034D01*
X10386264Y-10775746D01*
X10456976Y-10775746D01*
X10456976Y-11029746D02*
X10456976Y-10959034D01*
X10386264Y-10959034D01*
X10386264Y-11029746D01*
X10456976Y-11029746D01*
X10456976Y-11283746D02*
X10456976Y-11213034D01*
X10386264Y-11213034D01*
X10386264Y-11283746D01*
X10456976Y-11283746D01*
X10456976Y-11537746D02*
X10456976Y-11467034D01*
X10386264Y-11467034D01*
X10386264Y-11537746D01*
X10456976Y-11537746D01*
X10456976Y-11791746D02*
X10456976Y-11721034D01*
X10386264Y-11721034D01*
X10386264Y-11791746D01*
X10456976Y-11791746D01*
X10456976Y-12045746D02*
X10456976Y-11975034D01*
X10386264Y-11975034D01*
X10386264Y-12045746D01*
X10456976Y-12045746D01*
X10456976Y-12299746D02*
X10456976Y-12229034D01*
X10386264Y-12229034D01*
X10386264Y-12299746D01*
X10456976Y-12299746D01*
X10456976Y-12553746D02*
X10456976Y-12483034D01*
X10386264Y-12483034D01*
X10386264Y-12553746D01*
X10456976Y-12553746D01*
X10456976Y-12807746D02*
X10456976Y-12737034D01*
X10386264Y-12737034D01*
X10386264Y-12807746D01*
X10456976Y-12807746D01*
X10456976Y-13061746D02*
X10456976Y-12991034D01*
X10386264Y-12991034D01*
X10386264Y-13061746D01*
X10456976Y-13061746D01*
X10456976Y-13315746D02*
X10456976Y-13245034D01*
X10386264Y-13245034D01*
X10386264Y-13315746D01*
X10456976Y-13315746D01*
X10456976Y-13569746D02*
X10456976Y-13499034D01*
X10386264Y-13499034D01*
X10386264Y-13569746D01*
X10456976Y-13569746D01*
X10456976Y-13823746D02*
X10456976Y-13753034D01*
X10386264Y-13753034D01*
X10386264Y-13823746D01*
X10456976Y-13823746D01*
X10929656Y-10646256D02*
X10929656Y-10575544D01*
X10858944Y-10575544D01*
X10858944Y-10646256D01*
X10929656Y-10646256D01*
X10929656Y-11046256D02*
X10929656Y-10975544D01*
X10858944Y-10975544D01*
X10858944Y-11046256D01*
X10929656Y-11046256D01*
X11546756Y-11633656D02*
X11546756Y-11562944D01*
X11476044Y-11562944D01*
X11476044Y-11633656D01*
X11546756Y-11633656D01*
X11546756Y-12033656D02*
X11546756Y-11962944D01*
X11476044Y-11962944D01*
X11476044Y-12033656D01*
X11546756Y-12033656D01*
X11579656Y-10646256D02*
X11579656Y-10575544D01*
X11508944Y-10575544D01*
X11508944Y-10646256D01*
X11579656Y-10646256D01*
X11579656Y-11046256D02*
X11579656Y-10975544D01*
X11508944Y-10975544D01*
X11508944Y-11046256D01*
X11579656Y-11046256D01*
X12148856Y-10646256D02*
X12148856Y-10575544D01*
X12078144Y-10575544D01*
X12078144Y-10646256D01*
X12148856Y-10646256D01*
X12148856Y-11046256D02*
X12148856Y-10975544D01*
X12078144Y-10975544D01*
X12078144Y-11046256D01*
X12148856Y-11046256D01*
X12196756Y-11633656D02*
X12196756Y-11562944D01*
X12126044Y-11562944D01*
X12126044Y-11633656D01*
X12196756Y-11633656D01*
X12196756Y-12033656D02*
X12196756Y-11962944D01*
X12126044Y-11962944D01*
X12126044Y-12033656D01*
X12196756Y-12033656D01*
X12798856Y-10646256D02*
X12798856Y-10575544D01*
X12728144Y-10575544D01*
X12728144Y-10646256D01*
X12798856Y-10646256D01*
X12798856Y-11046256D02*
X12798856Y-10975544D01*
X12728144Y-10975544D01*
X12728144Y-11046256D01*
X12798856Y-11046256D01*
X16554246Y-8997746D02*
X16554246Y-8927034D01*
X16483534Y-8927034D01*
X16483534Y-8997746D01*
X16554246Y-8997746D01*
X16554246Y-9251746D02*
X16554246Y-9181034D01*
X16483534Y-9181034D01*
X16483534Y-9251746D01*
X16554246Y-9251746D01*
X16554246Y-9505746D02*
X16554246Y-9435034D01*
X16483534Y-9435034D01*
X16483534Y-9505746D01*
X16554246Y-9505746D01*
X16554246Y-9759746D02*
X16554246Y-9689034D01*
X16483534Y-9689034D01*
X16483534Y-9759746D01*
X16554246Y-9759746D01*
X16554246Y-10013746D02*
X16554246Y-9943034D01*
X16483534Y-9943034D01*
X16483534Y-10013746D01*
X16554246Y-10013746D01*
X16554246Y-10267746D02*
X16554246Y-10197034D01*
X16483534Y-10197034D01*
X16483534Y-10267746D01*
X16554246Y-10267746D01*
X16554246Y-10521746D02*
X16554246Y-10451034D01*
X16483534Y-10451034D01*
X16483534Y-10521746D01*
X16554246Y-10521746D01*
X16554246Y-10775746D02*
X16554246Y-10705034D01*
X16483534Y-10705034D01*
X16483534Y-10775746D01*
X16554246Y-10775746D01*
X16554246Y-11029746D02*
X16554246Y-10959034D01*
X16483534Y-10959034D01*
X16483534Y-11029746D01*
X16554246Y-11029746D01*
X16554246Y-11283746D02*
X16554246Y-11213034D01*
X16483534Y-11213034D01*
X16483534Y-11283746D01*
X16554246Y-11283746D01*
X16554246Y-11537746D02*
X16554246Y-11467034D01*
X16483534Y-11467034D01*
X16483534Y-11537746D01*
X16554246Y-11537746D01*
X16554246Y-11791746D02*
X16554246Y-11721034D01*
X16483534Y-11721034D01*
X16483534Y-11791746D01*
X16554246Y-11791746D01*
X16554246Y-12045746D02*
X16554246Y-11975034D01*
X16483534Y-11975034D01*
X16483534Y-12045746D01*
X16554246Y-12045746D01*
X16554246Y-12299746D02*
X16554246Y-12229034D01*
X16483534Y-12229034D01*
X16483534Y-12299746D01*
X16554246Y-12299746D01*
X16554246Y-12553746D02*
X16554246Y-12483034D01*
X16483534Y-12483034D01*
X16483534Y-12553746D01*
X16554246Y-12553746D01*
X16554246Y-12807746D02*
X16554246Y-12737034D01*
X16483534Y-12737034D01*
X16483534Y-12807746D01*
X16554246Y-12807746D01*
X16554246Y-13061746D02*
X16554246Y-12991034D01*
X16483534Y-12991034D01*
X16483534Y-13061746D01*
X16554246Y-13061746D01*
X16554246Y-13315746D02*
X16554246Y-13245034D01*
X16483534Y-13245034D01*
X16483534Y-13315746D01*
X16554246Y-13315746D01*
X16554246Y-13569746D02*
X16554246Y-13499034D01*
X16483534Y-13499034D01*
X16483534Y-13569746D01*
X16554246Y-13569746D01*
X16554246Y-13823746D02*
X16554246Y-13753034D01*
X16483534Y-13753034D01*
X16483534Y-13823746D01*
X16554246Y-13823746D01*
X16808246Y-8997746D02*
X16808246Y-8927034D01*
X16737534Y-8927034D01*
X16737534Y-8997746D01*
X16808246Y-8997746D01*
X16808246Y-9251746D02*
X16808246Y-9181034D01*
X16737534Y-9181034D01*
X16737534Y-9251746D01*
X16808246Y-9251746D01*
X16808246Y-9505746D02*
X16808246Y-9435034D01*
X16737534Y-9435034D01*
X16737534Y-9505746D01*
X16808246Y-9505746D01*
X16808246Y-9759746D02*
X16808246Y-9689034D01*
X16737534Y-9689034D01*
X16737534Y-9759746D01*
X16808246Y-9759746D01*
X16808246Y-10013746D02*
X16808246Y-9943034D01*
X16737534Y-9943034D01*
X16737534Y-10013746D01*
X16808246Y-10013746D01*
X16808246Y-10267746D02*
X16808246Y-10197034D01*
X16737534Y-10197034D01*
X16737534Y-10267746D01*
X16808246Y-10267746D01*
X16808246Y-10521746D02*
X16808246Y-10451034D01*
X16737534Y-10451034D01*
X16737534Y-10521746D01*
X16808246Y-10521746D01*
X16808246Y-10775746D02*
X16808246Y-10705034D01*
X16737534Y-10705034D01*
X16737534Y-10775746D01*
X16808246Y-10775746D01*
X16808246Y-11029746D02*
X16808246Y-10959034D01*
X16737534Y-10959034D01*
X16737534Y-11029746D01*
X16808246Y-11029746D01*
X16808246Y-11283746D02*
X16808246Y-11213034D01*
X16737534Y-11213034D01*
X16737534Y-11283746D01*
X16808246Y-11283746D01*
X16808246Y-11537746D02*
X16808246Y-11467034D01*
X16737534Y-11467034D01*
X16737534Y-11537746D01*
X16808246Y-11537746D01*
X16808246Y-11791746D02*
X16808246Y-11721034D01*
X16737534Y-11721034D01*
X16737534Y-11791746D01*
X16808246Y-11791746D01*
X16808246Y-12045746D02*
X16808246Y-11975034D01*
X16737534Y-11975034D01*
X16737534Y-12045746D01*
X16808246Y-12045746D01*
X16808246Y-12299746D02*
X16808246Y-12229034D01*
X16737534Y-12229034D01*
X16737534Y-12299746D01*
X16808246Y-12299746D01*
X16808246Y-12553746D02*
X16808246Y-12483034D01*
X16737534Y-12483034D01*
X16737534Y-12553746D01*
X16808246Y-12553746D01*
X16808246Y-12807746D02*
X16808246Y-12737034D01*
X16737534Y-12737034D01*
X16737534Y-12807746D01*
X16808246Y-12807746D01*
X16808246Y-13061746D02*
X16808246Y-12991034D01*
X16737534Y-12991034D01*
X16737534Y-13061746D01*
X16808246Y-13061746D01*
X16808246Y-13315746D02*
X16808246Y-13245034D01*
X16737534Y-13245034D01*
X16737534Y-13315746D01*
X16808246Y-13315746D01*
X16808246Y-13569746D02*
X16808246Y-13499034D01*
X16737534Y-13499034D01*
X16737534Y-13569746D01*
X16808246Y-13569746D01*
X16808246Y-13823746D02*
X16808246Y-13753034D01*
X16737534Y-13753034D01*
X16737534Y-13823746D01*
X16808246Y-13823746D01*
D16*
X10325100Y-5797530D02*
X10485100Y-5637530D01*
X10325100Y-5477530D01*
X10165100Y-5637530D01*
X10325100Y-5797530D01*
X10325100Y-14789130D02*
X10485100Y-14629130D01*
X10325100Y-14469130D01*
X10165100Y-14629130D01*
X10325100Y-14789130D01*
X16624300Y-5798800D02*
X16784300Y-5638800D01*
X16624300Y-5478800D01*
X16464300Y-5638800D01*
X16624300Y-5798800D01*
X16626840Y-14789130D02*
X16786840Y-14629130D01*
X16626840Y-14469130D01*
X16466840Y-14629130D01*
X16626840Y-14789130D01*
D11*
X10213197Y-15318771D02*
X10213197Y-15118771D01*
X10260816Y-15118771D01*
X10289388Y-15128294D01*
X10308435Y-15147342D01*
X10317959Y-15166390D01*
X10327483Y-15204485D01*
X10327483Y-15233056D01*
X10317959Y-15271152D01*
X10308435Y-15290199D01*
X10289388Y-15309247D01*
X10260816Y-15318771D01*
X10213197Y-15318771D01*
X10413197Y-15318771D02*
X10413197Y-15185437D01*
X10413197Y-15223532D02*
X10422721Y-15204485D01*
X10432245Y-15194961D01*
X10451292Y-15185437D01*
X10470340Y-15185437D01*
X10537007Y-15318771D02*
X10537007Y-15185437D01*
X10537007Y-15118771D02*
X10527483Y-15128294D01*
X10537007Y-15137818D01*
X10546530Y-15128294D01*
X10537007Y-15118771D01*
X10537007Y-15137818D01*
X10660816Y-15318771D02*
X10641769Y-15309247D01*
X10632245Y-15290199D01*
X10632245Y-15118771D01*
X10765578Y-15318771D02*
X10746530Y-15309247D01*
X10737007Y-15290199D01*
X10737007Y-15118771D01*
X10994150Y-15318771D02*
X10994150Y-15118771D01*
X11060816Y-15261628D01*
X11127483Y-15118771D01*
X11127483Y-15318771D01*
X11308435Y-15318771D02*
X11308435Y-15214009D01*
X11298911Y-15194961D01*
X11279864Y-15185437D01*
X11241768Y-15185437D01*
X11222721Y-15194961D01*
X11308435Y-15309247D02*
X11289388Y-15318771D01*
X11241768Y-15318771D01*
X11222721Y-15309247D01*
X11213197Y-15290199D01*
X11213197Y-15271152D01*
X11222721Y-15252104D01*
X11241768Y-15242580D01*
X11289388Y-15242580D01*
X11308435Y-15233056D01*
X11403673Y-15185437D02*
X11403673Y-15385437D01*
X11403673Y-15194961D02*
X11422721Y-15185437D01*
X11460816Y-15185437D01*
X11479864Y-15194961D01*
X11489388Y-15204485D01*
X11498911Y-15223532D01*
X11498911Y-15280675D01*
X11489388Y-15299723D01*
X11479864Y-15309247D01*
X11460816Y-15318771D01*
X11422721Y-15318771D01*
X11403673Y-15309247D01*
X11584626Y-15299723D02*
X11594149Y-15309247D01*
X11584626Y-15318771D01*
X11575102Y-15309247D01*
X11584626Y-15299723D01*
X11584626Y-15318771D01*
X11584626Y-15194961D02*
X11594149Y-15204485D01*
X11584626Y-15214009D01*
X11575102Y-15204485D01*
X11584626Y-15194961D01*
X11584626Y-15214009D01*
D12*
X9904578Y-15622794D02*
X9955578Y-15673794D01*
X9955578Y-15622794D02*
X9904578Y-15673794D01*
D11*
X10251292Y-15538771D02*
X10270340Y-15538771D01*
X10289388Y-15548294D01*
X10298911Y-15557818D01*
X10308435Y-15576866D01*
X10317959Y-15614961D01*
X10317959Y-15662580D01*
X10308435Y-15700675D01*
X10298911Y-15719723D01*
X10289388Y-15729247D01*
X10270340Y-15738771D01*
X10251292Y-15738771D01*
X10232245Y-15729247D01*
X10222721Y-15719723D01*
X10213197Y-15700675D01*
X10203673Y-15662580D01*
X10203673Y-15614961D01*
X10213197Y-15576866D01*
X10222721Y-15557818D01*
X10232245Y-15548294D01*
X10251292Y-15538771D01*
X10403673Y-15719723D02*
X10413197Y-15729247D01*
X10403673Y-15738771D01*
X10394150Y-15729247D01*
X10403673Y-15719723D01*
X10403673Y-15738771D01*
X10594150Y-15538771D02*
X10498911Y-15538771D01*
X10489388Y-15634009D01*
X10498911Y-15624485D01*
X10517959Y-15614961D01*
X10565578Y-15614961D01*
X10584626Y-15624485D01*
X10594150Y-15634009D01*
X10603673Y-15653056D01*
X10603673Y-15700675D01*
X10594150Y-15719723D01*
X10584626Y-15729247D01*
X10565578Y-15738771D01*
X10517959Y-15738771D01*
X10498911Y-15729247D01*
X10489388Y-15719723D01*
X10794150Y-15738771D02*
X10679864Y-15738771D01*
X10737007Y-15738771D02*
X10737007Y-15538771D01*
X10717959Y-15567342D01*
X10698911Y-15586390D01*
X10679864Y-15595913D01*
X10917959Y-15538771D02*
X10937007Y-15538771D01*
X10956054Y-15548294D01*
X10965578Y-15557818D01*
X10975102Y-15576866D01*
X10984626Y-15614961D01*
X10984626Y-15662580D01*
X10975102Y-15700675D01*
X10965578Y-15719723D01*
X10956054Y-15729247D01*
X10937007Y-15738771D01*
X10917959Y-15738771D01*
X10898911Y-15729247D01*
X10889388Y-15719723D01*
X10879864Y-15700675D01*
X10870340Y-15662580D01*
X10870340Y-15614961D01*
X10879864Y-15576866D01*
X10889388Y-15557818D01*
X10898911Y-15548294D01*
X10917959Y-15538771D01*
X11070340Y-15738771D02*
X11070340Y-15605437D01*
X11070340Y-15624485D02*
X11079864Y-15614961D01*
X11098911Y-15605437D01*
X11127483Y-15605437D01*
X11146530Y-15614961D01*
X11156054Y-15634009D01*
X11156054Y-15738771D01*
X11156054Y-15634009D02*
X11165578Y-15614961D01*
X11184626Y-15605437D01*
X11213197Y-15605437D01*
X11232245Y-15614961D01*
X11241768Y-15634009D01*
X11241768Y-15738771D01*
X11337007Y-15738771D02*
X11337007Y-15605437D01*
X11337007Y-15624485D02*
X11346530Y-15614961D01*
X11365578Y-15605437D01*
X11394149Y-15605437D01*
X11413197Y-15614961D01*
X11422721Y-15634009D01*
X11422721Y-15738771D01*
X11422721Y-15634009D02*
X11432245Y-15614961D01*
X11451292Y-15605437D01*
X11479864Y-15605437D01*
X11498911Y-15614961D01*
X11508435Y-15634009D01*
X11508435Y-15738771D01*
X11898911Y-15529247D02*
X11727483Y-15786390D01*
X12156054Y-15538771D02*
X12175102Y-15538771D01*
X12194149Y-15548294D01*
X12203673Y-15557818D01*
X12213197Y-15576866D01*
X12222721Y-15614961D01*
X12222721Y-15662580D01*
X12213197Y-15700675D01*
X12203673Y-15719723D01*
X12194149Y-15729247D01*
X12175102Y-15738771D01*
X12156054Y-15738771D01*
X12137007Y-15729247D01*
X12127483Y-15719723D01*
X12117959Y-15700675D01*
X12108435Y-15662580D01*
X12108435Y-15614961D01*
X12117959Y-15576866D01*
X12127483Y-15557818D01*
X12137007Y-15548294D01*
X12156054Y-15538771D01*
X12308435Y-15719723D02*
X12317959Y-15729247D01*
X12308435Y-15738771D01*
X12298911Y-15729247D01*
X12308435Y-15719723D01*
X12308435Y-15738771D01*
X12441768Y-15538771D02*
X12460816Y-15538771D01*
X12479864Y-15548294D01*
X12489388Y-15557818D01*
X12498911Y-15576866D01*
X12508435Y-15614961D01*
X12508435Y-15662580D01*
X12498911Y-15700675D01*
X12489388Y-15719723D01*
X12479864Y-15729247D01*
X12460816Y-15738771D01*
X12441768Y-15738771D01*
X12422721Y-15729247D01*
X12413197Y-15719723D01*
X12403673Y-15700675D01*
X12394149Y-15662580D01*
X12394149Y-15614961D01*
X12403673Y-15576866D01*
X12413197Y-15557818D01*
X12422721Y-15548294D01*
X12441768Y-15538771D01*
X12584626Y-15557818D02*
X12594149Y-15548294D01*
X12613197Y-15538771D01*
X12660816Y-15538771D01*
X12679864Y-15548294D01*
X12689388Y-15557818D01*
X12698911Y-15576866D01*
X12698911Y-15595913D01*
X12689388Y-15624485D01*
X12575102Y-15738771D01*
X12698911Y-15738771D01*
X12822721Y-15538771D02*
X12841768Y-15538771D01*
X12860816Y-15548294D01*
X12870340Y-15557818D01*
X12879864Y-15576866D01*
X12889388Y-15614961D01*
X12889388Y-15662580D01*
X12879864Y-15700675D01*
X12870340Y-15719723D01*
X12860816Y-15729247D01*
X12841768Y-15738771D01*
X12822721Y-15738771D01*
X12803673Y-15729247D01*
X12794149Y-15719723D01*
X12784626Y-15700675D01*
X12775102Y-15662580D01*
X12775102Y-15614961D01*
X12784626Y-15576866D01*
X12794149Y-15557818D01*
X12803673Y-15548294D01*
X12822721Y-15538771D01*
X13079864Y-15738771D02*
X12965578Y-15738771D01*
X13022721Y-15738771D02*
X13022721Y-15538771D01*
X13003673Y-15567342D01*
X12984626Y-15586390D01*
X12965578Y-15595913D01*
X13156054Y-15538771D02*
X13156054Y-15576866D01*
X13232245Y-15538771D02*
X13232245Y-15576866D01*
X13527483Y-15814961D02*
X13517959Y-15805437D01*
X13498911Y-15776866D01*
X13489388Y-15757818D01*
X13479864Y-15729247D01*
X13470340Y-15681628D01*
X13470340Y-15643532D01*
X13479864Y-15595913D01*
X13489388Y-15567342D01*
X13498911Y-15548294D01*
X13517959Y-15519723D01*
X13527483Y-15510199D01*
X13708435Y-15738771D02*
X13594149Y-15738771D01*
X13651292Y-15738771D02*
X13651292Y-15538771D01*
X13632245Y-15567342D01*
X13613197Y-15586390D01*
X13594149Y-15595913D01*
X13832245Y-15538771D02*
X13851292Y-15538771D01*
X13870340Y-15548294D01*
X13879864Y-15557818D01*
X13889388Y-15576866D01*
X13898911Y-15614961D01*
X13898911Y-15662580D01*
X13889388Y-15700675D01*
X13879864Y-15719723D01*
X13870340Y-15729247D01*
X13851292Y-15738771D01*
X13832245Y-15738771D01*
X13813197Y-15729247D01*
X13803673Y-15719723D01*
X13794149Y-15700675D01*
X13784626Y-15662580D01*
X13784626Y-15614961D01*
X13794149Y-15576866D01*
X13803673Y-15557818D01*
X13813197Y-15548294D01*
X13832245Y-15538771D01*
X14137007Y-15738771D02*
X14137007Y-15538771D01*
X14222721Y-15738771D02*
X14222721Y-15634009D01*
X14213197Y-15614961D01*
X14194149Y-15605437D01*
X14165578Y-15605437D01*
X14146530Y-15614961D01*
X14137007Y-15624485D01*
X14346530Y-15738771D02*
X14327483Y-15729247D01*
X14317959Y-15719723D01*
X14308435Y-15700675D01*
X14308435Y-15643532D01*
X14317959Y-15624485D01*
X14327483Y-15614961D01*
X14346530Y-15605437D01*
X14375102Y-15605437D01*
X14394149Y-15614961D01*
X14403673Y-15624485D01*
X14413197Y-15643532D01*
X14413197Y-15700675D01*
X14403673Y-15719723D01*
X14394149Y-15729247D01*
X14375102Y-15738771D01*
X14346530Y-15738771D01*
X14527483Y-15738771D02*
X14508435Y-15729247D01*
X14498911Y-15710199D01*
X14498911Y-15538771D01*
X14679864Y-15729247D02*
X14660816Y-15738771D01*
X14622721Y-15738771D01*
X14603673Y-15729247D01*
X14594149Y-15710199D01*
X14594149Y-15634009D01*
X14603673Y-15614961D01*
X14622721Y-15605437D01*
X14660816Y-15605437D01*
X14679864Y-15614961D01*
X14689388Y-15634009D01*
X14689388Y-15653056D01*
X14594149Y-15672104D01*
X14765578Y-15729247D02*
X14784626Y-15738771D01*
X14822721Y-15738771D01*
X14841768Y-15729247D01*
X14851292Y-15710199D01*
X14851292Y-15700675D01*
X14841768Y-15681628D01*
X14822721Y-15672104D01*
X14794149Y-15672104D01*
X14775102Y-15662580D01*
X14765578Y-15643532D01*
X14765578Y-15634009D01*
X14775102Y-15614961D01*
X14794149Y-15605437D01*
X14822721Y-15605437D01*
X14841768Y-15614961D01*
X14917959Y-15814961D02*
X14927483Y-15805437D01*
X14946530Y-15776866D01*
X14956054Y-15757818D01*
X14965578Y-15729247D01*
X14975102Y-15681628D01*
X14975102Y-15643532D01*
X14965578Y-15595913D01*
X14956054Y-15567342D01*
X14946530Y-15548294D01*
X14927483Y-15519723D01*
X14917959Y-15510199D01*
D13*
X9955578Y-15912294D02*
G75*
G03*
X9955578Y-15912294I-27940J0D01*
G01*
D11*
X10251292Y-15802771D02*
X10270340Y-15802771D01*
X10289388Y-15812294D01*
X10298911Y-15821818D01*
X10308435Y-15840866D01*
X10317959Y-15878961D01*
X10317959Y-15926580D01*
X10308435Y-15964675D01*
X10298911Y-15983723D01*
X10289388Y-15993247D01*
X10270340Y-16002771D01*
X10251292Y-16002771D01*
X10232245Y-15993247D01*
X10222721Y-15983723D01*
X10213197Y-15964675D01*
X10203673Y-15926580D01*
X10203673Y-15878961D01*
X10213197Y-15840866D01*
X10222721Y-15821818D01*
X10232245Y-15812294D01*
X10251292Y-15802771D01*
X10403673Y-15983723D02*
X10413197Y-15993247D01*
X10403673Y-16002771D01*
X10394150Y-15993247D01*
X10403673Y-15983723D01*
X10403673Y-16002771D01*
X10594150Y-15802771D02*
X10498911Y-15802771D01*
X10489388Y-15898009D01*
X10498911Y-15888485D01*
X10517959Y-15878961D01*
X10565578Y-15878961D01*
X10584626Y-15888485D01*
X10594150Y-15898009D01*
X10603673Y-15917056D01*
X10603673Y-15964675D01*
X10594150Y-15983723D01*
X10584626Y-15993247D01*
X10565578Y-16002771D01*
X10517959Y-16002771D01*
X10498911Y-15993247D01*
X10489388Y-15983723D01*
X10784626Y-15802771D02*
X10689388Y-15802771D01*
X10679864Y-15898009D01*
X10689388Y-15888485D01*
X10708435Y-15878961D01*
X10756054Y-15878961D01*
X10775102Y-15888485D01*
X10784626Y-15898009D01*
X10794150Y-15917056D01*
X10794150Y-15964675D01*
X10784626Y-15983723D01*
X10775102Y-15993247D01*
X10756054Y-16002771D01*
X10708435Y-16002771D01*
X10689388Y-15993247D01*
X10679864Y-15983723D01*
X10889388Y-16002771D02*
X10927483Y-16002771D01*
X10946530Y-15993247D01*
X10956054Y-15983723D01*
X10975102Y-15955152D01*
X10984626Y-15917056D01*
X10984626Y-15840866D01*
X10975102Y-15821818D01*
X10965578Y-15812294D01*
X10946530Y-15802771D01*
X10908435Y-15802771D01*
X10889388Y-15812294D01*
X10879864Y-15821818D01*
X10870340Y-15840866D01*
X10870340Y-15888485D01*
X10879864Y-15907532D01*
X10889388Y-15917056D01*
X10908435Y-15926580D01*
X10946530Y-15926580D01*
X10965578Y-15917056D01*
X10975102Y-15907532D01*
X10984626Y-15888485D01*
X11070340Y-16002771D02*
X11070340Y-15869437D01*
X11070340Y-15888485D02*
X11079864Y-15878961D01*
X11098911Y-15869437D01*
X11127483Y-15869437D01*
X11146530Y-15878961D01*
X11156054Y-15898009D01*
X11156054Y-16002771D01*
X11156054Y-15898009D02*
X11165578Y-15878961D01*
X11184626Y-15869437D01*
X11213197Y-15869437D01*
X11232245Y-15878961D01*
X11241768Y-15898009D01*
X11241768Y-16002771D01*
X11337007Y-16002771D02*
X11337007Y-15869437D01*
X11337007Y-15888485D02*
X11346530Y-15878961D01*
X11365578Y-15869437D01*
X11394149Y-15869437D01*
X11413197Y-15878961D01*
X11422721Y-15898009D01*
X11422721Y-16002771D01*
X11422721Y-15898009D02*
X11432245Y-15878961D01*
X11451292Y-15869437D01*
X11479864Y-15869437D01*
X11498911Y-15878961D01*
X11508435Y-15898009D01*
X11508435Y-16002771D01*
X11898911Y-15793247D02*
X11727483Y-16050390D01*
X12156054Y-15802771D02*
X12175102Y-15802771D01*
X12194149Y-15812294D01*
X12203673Y-15821818D01*
X12213197Y-15840866D01*
X12222721Y-15878961D01*
X12222721Y-15926580D01*
X12213197Y-15964675D01*
X12203673Y-15983723D01*
X12194149Y-15993247D01*
X12175102Y-16002771D01*
X12156054Y-16002771D01*
X12137007Y-15993247D01*
X12127483Y-15983723D01*
X12117959Y-15964675D01*
X12108435Y-15926580D01*
X12108435Y-15878961D01*
X12117959Y-15840866D01*
X12127483Y-15821818D01*
X12137007Y-15812294D01*
X12156054Y-15802771D01*
X12308435Y-15983723D02*
X12317959Y-15993247D01*
X12308435Y-16002771D01*
X12298911Y-15993247D01*
X12308435Y-15983723D01*
X12308435Y-16002771D01*
X12441768Y-15802771D02*
X12460816Y-15802771D01*
X12479864Y-15812294D01*
X12489388Y-15821818D01*
X12498911Y-15840866D01*
X12508435Y-15878961D01*
X12508435Y-15926580D01*
X12498911Y-15964675D01*
X12489388Y-15983723D01*
X12479864Y-15993247D01*
X12460816Y-16002771D01*
X12441768Y-16002771D01*
X12422721Y-15993247D01*
X12413197Y-15983723D01*
X12403673Y-15964675D01*
X12394149Y-15926580D01*
X12394149Y-15878961D01*
X12403673Y-15840866D01*
X12413197Y-15821818D01*
X12422721Y-15812294D01*
X12441768Y-15802771D01*
X12584626Y-15821818D02*
X12594149Y-15812294D01*
X12613197Y-15802771D01*
X12660816Y-15802771D01*
X12679864Y-15812294D01*
X12689388Y-15821818D01*
X12698911Y-15840866D01*
X12698911Y-15859913D01*
X12689388Y-15888485D01*
X12575102Y-16002771D01*
X12698911Y-16002771D01*
X12775102Y-15821818D02*
X12784626Y-15812294D01*
X12803673Y-15802771D01*
X12851292Y-15802771D01*
X12870340Y-15812294D01*
X12879864Y-15821818D01*
X12889388Y-15840866D01*
X12889388Y-15859913D01*
X12879864Y-15888485D01*
X12765578Y-16002771D01*
X12889388Y-16002771D01*
X13013197Y-15802771D02*
X13032245Y-15802771D01*
X13051292Y-15812294D01*
X13060816Y-15821818D01*
X13070340Y-15840866D01*
X13079864Y-15878961D01*
X13079864Y-15926580D01*
X13070340Y-15964675D01*
X13060816Y-15983723D01*
X13051292Y-15993247D01*
X13032245Y-16002771D01*
X13013197Y-16002771D01*
X12994149Y-15993247D01*
X12984626Y-15983723D01*
X12975102Y-15964675D01*
X12965578Y-15926580D01*
X12965578Y-15878961D01*
X12975102Y-15840866D01*
X12984626Y-15821818D01*
X12994149Y-15812294D01*
X13013197Y-15802771D01*
X13156054Y-15802771D02*
X13156054Y-15840866D01*
X13232245Y-15802771D02*
X13232245Y-15840866D01*
X13527483Y-16078961D02*
X13517959Y-16069437D01*
X13498911Y-16040866D01*
X13489388Y-16021818D01*
X13479864Y-15993247D01*
X13470340Y-15945628D01*
X13470340Y-15907532D01*
X13479864Y-15859913D01*
X13489388Y-15831342D01*
X13498911Y-15812294D01*
X13517959Y-15783723D01*
X13527483Y-15774199D01*
X13708435Y-16002771D02*
X13594149Y-16002771D01*
X13651292Y-16002771D02*
X13651292Y-15802771D01*
X13632245Y-15831342D01*
X13613197Y-15850390D01*
X13594149Y-15859913D01*
X13822721Y-15888485D02*
X13803673Y-15878961D01*
X13794149Y-15869437D01*
X13784626Y-15850390D01*
X13784626Y-15840866D01*
X13794149Y-15821818D01*
X13803673Y-15812294D01*
X13822721Y-15802771D01*
X13860816Y-15802771D01*
X13879864Y-15812294D01*
X13889388Y-15821818D01*
X13898911Y-15840866D01*
X13898911Y-15850390D01*
X13889388Y-15869437D01*
X13879864Y-15878961D01*
X13860816Y-15888485D01*
X13822721Y-15888485D01*
X13803673Y-15898009D01*
X13794149Y-15907532D01*
X13784626Y-15926580D01*
X13784626Y-15964675D01*
X13794149Y-15983723D01*
X13803673Y-15993247D01*
X13822721Y-16002771D01*
X13860816Y-16002771D01*
X13879864Y-15993247D01*
X13889388Y-15983723D01*
X13898911Y-15964675D01*
X13898911Y-15926580D01*
X13889388Y-15907532D01*
X13879864Y-15898009D01*
X13860816Y-15888485D01*
X14137007Y-16002771D02*
X14137007Y-15802771D01*
X14222721Y-16002771D02*
X14222721Y-15898009D01*
X14213197Y-15878961D01*
X14194149Y-15869437D01*
X14165578Y-15869437D01*
X14146530Y-15878961D01*
X14137007Y-15888485D01*
X14346530Y-16002771D02*
X14327483Y-15993247D01*
X14317959Y-15983723D01*
X14308435Y-15964675D01*
X14308435Y-15907532D01*
X14317959Y-15888485D01*
X14327483Y-15878961D01*
X14346530Y-15869437D01*
X14375102Y-15869437D01*
X14394149Y-15878961D01*
X14403673Y-15888485D01*
X14413197Y-15907532D01*
X14413197Y-15964675D01*
X14403673Y-15983723D01*
X14394149Y-15993247D01*
X14375102Y-16002771D01*
X14346530Y-16002771D01*
X14527483Y-16002771D02*
X14508435Y-15993247D01*
X14498911Y-15974199D01*
X14498911Y-15802771D01*
X14679864Y-15993247D02*
X14660816Y-16002771D01*
X14622721Y-16002771D01*
X14603673Y-15993247D01*
X14594149Y-15974199D01*
X14594149Y-15898009D01*
X14603673Y-15878961D01*
X14622721Y-15869437D01*
X14660816Y-15869437D01*
X14679864Y-15878961D01*
X14689388Y-15898009D01*
X14689388Y-15917056D01*
X14594149Y-15936104D01*
X14765578Y-15993247D02*
X14784626Y-16002771D01*
X14822721Y-16002771D01*
X14841768Y-15993247D01*
X14851292Y-15974199D01*
X14851292Y-15964675D01*
X14841768Y-15945628D01*
X14822721Y-15936104D01*
X14794149Y-15936104D01*
X14775102Y-15926580D01*
X14765578Y-15907532D01*
X14765578Y-15898009D01*
X14775102Y-15878961D01*
X14794149Y-15869437D01*
X14822721Y-15869437D01*
X14841768Y-15878961D01*
X14917959Y-16078961D02*
X14927483Y-16069437D01*
X14946530Y-16040866D01*
X14956054Y-16021818D01*
X14965578Y-15993247D01*
X14975102Y-15945628D01*
X14975102Y-15907532D01*
X14965578Y-15859913D01*
X14956054Y-15831342D01*
X14946530Y-15812294D01*
X14927483Y-15783723D01*
X14917959Y-15774199D01*
D14*
X9915578Y-16136294D02*
X9915578Y-16216294D01*
X9875578Y-16176294D02*
X9955578Y-16176294D01*
D11*
X10251292Y-16066771D02*
X10270340Y-16066771D01*
X10289388Y-16076294D01*
X10298911Y-16085818D01*
X10308435Y-16104866D01*
X10317959Y-16142961D01*
X10317959Y-16190580D01*
X10308435Y-16228675D01*
X10298911Y-16247723D01*
X10289388Y-16257247D01*
X10270340Y-16266771D01*
X10251292Y-16266771D01*
X10232245Y-16257247D01*
X10222721Y-16247723D01*
X10213197Y-16228675D01*
X10203673Y-16190580D01*
X10203673Y-16142961D01*
X10213197Y-16104866D01*
X10222721Y-16085818D01*
X10232245Y-16076294D01*
X10251292Y-16066771D01*
X10403673Y-16247723D02*
X10413197Y-16257247D01*
X10403673Y-16266771D01*
X10394150Y-16257247D01*
X10403673Y-16247723D01*
X10403673Y-16266771D01*
X10527483Y-16152485D02*
X10508435Y-16142961D01*
X10498911Y-16133437D01*
X10489388Y-16114390D01*
X10489388Y-16104866D01*
X10498911Y-16085818D01*
X10508435Y-16076294D01*
X10527483Y-16066771D01*
X10565578Y-16066771D01*
X10584626Y-16076294D01*
X10594150Y-16085818D01*
X10603673Y-16104866D01*
X10603673Y-16114390D01*
X10594150Y-16133437D01*
X10584626Y-16142961D01*
X10565578Y-16152485D01*
X10527483Y-16152485D01*
X10508435Y-16162009D01*
X10498911Y-16171532D01*
X10489388Y-16190580D01*
X10489388Y-16228675D01*
X10498911Y-16247723D01*
X10508435Y-16257247D01*
X10527483Y-16266771D01*
X10565578Y-16266771D01*
X10584626Y-16257247D01*
X10594150Y-16247723D01*
X10603673Y-16228675D01*
X10603673Y-16190580D01*
X10594150Y-16171532D01*
X10584626Y-16162009D01*
X10565578Y-16152485D01*
X10727483Y-16066771D02*
X10746530Y-16066771D01*
X10765578Y-16076294D01*
X10775102Y-16085818D01*
X10784626Y-16104866D01*
X10794150Y-16142961D01*
X10794150Y-16190580D01*
X10784626Y-16228675D01*
X10775102Y-16247723D01*
X10765578Y-16257247D01*
X10746530Y-16266771D01*
X10727483Y-16266771D01*
X10708435Y-16257247D01*
X10698911Y-16247723D01*
X10689388Y-16228675D01*
X10679864Y-16190580D01*
X10679864Y-16142961D01*
X10689388Y-16104866D01*
X10698911Y-16085818D01*
X10708435Y-16076294D01*
X10727483Y-16066771D01*
X10917959Y-16066771D02*
X10937007Y-16066771D01*
X10956054Y-16076294D01*
X10965578Y-16085818D01*
X10975102Y-16104866D01*
X10984626Y-16142961D01*
X10984626Y-16190580D01*
X10975102Y-16228675D01*
X10965578Y-16247723D01*
X10956054Y-16257247D01*
X10937007Y-16266771D01*
X10917959Y-16266771D01*
X10898911Y-16257247D01*
X10889388Y-16247723D01*
X10879864Y-16228675D01*
X10870340Y-16190580D01*
X10870340Y-16142961D01*
X10879864Y-16104866D01*
X10889388Y-16085818D01*
X10898911Y-16076294D01*
X10917959Y-16066771D01*
X11070340Y-16266771D02*
X11070340Y-16133437D01*
X11070340Y-16152485D02*
X11079864Y-16142961D01*
X11098911Y-16133437D01*
X11127483Y-16133437D01*
X11146530Y-16142961D01*
X11156054Y-16162009D01*
X11156054Y-16266771D01*
X11156054Y-16162009D02*
X11165578Y-16142961D01*
X11184626Y-16133437D01*
X11213197Y-16133437D01*
X11232245Y-16142961D01*
X11241768Y-16162009D01*
X11241768Y-16266771D01*
X11337007Y-16266771D02*
X11337007Y-16133437D01*
X11337007Y-16152485D02*
X11346530Y-16142961D01*
X11365578Y-16133437D01*
X11394149Y-16133437D01*
X11413197Y-16142961D01*
X11422721Y-16162009D01*
X11422721Y-16266771D01*
X11422721Y-16162009D02*
X11432245Y-16142961D01*
X11451292Y-16133437D01*
X11479864Y-16133437D01*
X11498911Y-16142961D01*
X11508435Y-16162009D01*
X11508435Y-16266771D01*
X11898911Y-16057247D02*
X11727483Y-16314390D01*
X12156054Y-16066771D02*
X12175102Y-16066771D01*
X12194149Y-16076294D01*
X12203673Y-16085818D01*
X12213197Y-16104866D01*
X12222721Y-16142961D01*
X12222721Y-16190580D01*
X12213197Y-16228675D01*
X12203673Y-16247723D01*
X12194149Y-16257247D01*
X12175102Y-16266771D01*
X12156054Y-16266771D01*
X12137007Y-16257247D01*
X12127483Y-16247723D01*
X12117959Y-16228675D01*
X12108435Y-16190580D01*
X12108435Y-16142961D01*
X12117959Y-16104866D01*
X12127483Y-16085818D01*
X12137007Y-16076294D01*
X12156054Y-16066771D01*
X12308435Y-16247723D02*
X12317959Y-16257247D01*
X12308435Y-16266771D01*
X12298911Y-16257247D01*
X12308435Y-16247723D01*
X12308435Y-16266771D01*
X12441768Y-16066771D02*
X12460816Y-16066771D01*
X12479864Y-16076294D01*
X12489388Y-16085818D01*
X12498911Y-16104866D01*
X12508435Y-16142961D01*
X12508435Y-16190580D01*
X12498911Y-16228675D01*
X12489388Y-16247723D01*
X12479864Y-16257247D01*
X12460816Y-16266771D01*
X12441768Y-16266771D01*
X12422721Y-16257247D01*
X12413197Y-16247723D01*
X12403673Y-16228675D01*
X12394149Y-16190580D01*
X12394149Y-16142961D01*
X12403673Y-16104866D01*
X12413197Y-16085818D01*
X12422721Y-16076294D01*
X12441768Y-16066771D01*
X12575102Y-16066771D02*
X12698911Y-16066771D01*
X12632245Y-16142961D01*
X12660816Y-16142961D01*
X12679864Y-16152485D01*
X12689388Y-16162009D01*
X12698911Y-16181056D01*
X12698911Y-16228675D01*
X12689388Y-16247723D01*
X12679864Y-16257247D01*
X12660816Y-16266771D01*
X12603673Y-16266771D01*
X12584626Y-16257247D01*
X12575102Y-16247723D01*
X12889388Y-16266771D02*
X12775102Y-16266771D01*
X12832245Y-16266771D02*
X12832245Y-16066771D01*
X12813197Y-16095342D01*
X12794149Y-16114390D01*
X12775102Y-16123913D01*
X13070340Y-16066771D02*
X12975102Y-16066771D01*
X12965578Y-16162009D01*
X12975102Y-16152485D01*
X12994149Y-16142961D01*
X13041768Y-16142961D01*
X13060816Y-16152485D01*
X13070340Y-16162009D01*
X13079864Y-16181056D01*
X13079864Y-16228675D01*
X13070340Y-16247723D01*
X13060816Y-16257247D01*
X13041768Y-16266771D01*
X12994149Y-16266771D01*
X12975102Y-16257247D01*
X12965578Y-16247723D01*
X13156054Y-16066771D02*
X13156054Y-16104866D01*
X13232245Y-16066771D02*
X13232245Y-16104866D01*
X13527483Y-16342961D02*
X13517959Y-16333437D01*
X13498911Y-16304866D01*
X13489388Y-16285818D01*
X13479864Y-16257247D01*
X13470340Y-16209628D01*
X13470340Y-16171532D01*
X13479864Y-16123913D01*
X13489388Y-16095342D01*
X13498911Y-16076294D01*
X13517959Y-16047723D01*
X13527483Y-16038199D01*
X13708435Y-16266771D02*
X13594149Y-16266771D01*
X13651292Y-16266771D02*
X13651292Y-16066771D01*
X13632245Y-16095342D01*
X13613197Y-16114390D01*
X13594149Y-16123913D01*
X13784626Y-16085818D02*
X13794149Y-16076294D01*
X13813197Y-16066771D01*
X13860816Y-16066771D01*
X13879864Y-16076294D01*
X13889388Y-16085818D01*
X13898911Y-16104866D01*
X13898911Y-16123913D01*
X13889388Y-16152485D01*
X13775102Y-16266771D01*
X13898911Y-16266771D01*
X14022721Y-16066771D02*
X14041768Y-16066771D01*
X14060816Y-16076294D01*
X14070340Y-16085818D01*
X14079864Y-16104866D01*
X14089388Y-16142961D01*
X14089388Y-16190580D01*
X14079864Y-16228675D01*
X14070340Y-16247723D01*
X14060816Y-16257247D01*
X14041768Y-16266771D01*
X14022721Y-16266771D01*
X14003673Y-16257247D01*
X13994149Y-16247723D01*
X13984626Y-16228675D01*
X13975102Y-16190580D01*
X13975102Y-16142961D01*
X13984626Y-16104866D01*
X13994149Y-16085818D01*
X14003673Y-16076294D01*
X14022721Y-16066771D01*
X14327483Y-16266771D02*
X14327483Y-16066771D01*
X14413197Y-16266771D02*
X14413197Y-16162009D01*
X14403673Y-16142961D01*
X14384626Y-16133437D01*
X14356054Y-16133437D01*
X14337007Y-16142961D01*
X14327483Y-16152485D01*
X14537007Y-16266771D02*
X14517959Y-16257247D01*
X14508435Y-16247723D01*
X14498911Y-16228675D01*
X14498911Y-16171532D01*
X14508435Y-16152485D01*
X14517959Y-16142961D01*
X14537007Y-16133437D01*
X14565578Y-16133437D01*
X14584626Y-16142961D01*
X14594149Y-16152485D01*
X14603673Y-16171532D01*
X14603673Y-16228675D01*
X14594149Y-16247723D01*
X14584626Y-16257247D01*
X14565578Y-16266771D01*
X14537007Y-16266771D01*
X14717959Y-16266771D02*
X14698911Y-16257247D01*
X14689388Y-16238199D01*
X14689388Y-16066771D01*
X14870340Y-16257247D02*
X14851292Y-16266771D01*
X14813197Y-16266771D01*
X14794149Y-16257247D01*
X14784626Y-16238199D01*
X14784626Y-16162009D01*
X14794149Y-16142961D01*
X14813197Y-16133437D01*
X14851292Y-16133437D01*
X14870340Y-16142961D01*
X14879864Y-16162009D01*
X14879864Y-16181056D01*
X14784626Y-16200104D01*
X14956054Y-16257247D02*
X14975102Y-16266771D01*
X15013197Y-16266771D01*
X15032245Y-16257247D01*
X15041768Y-16238199D01*
X15041768Y-16228675D01*
X15032245Y-16209628D01*
X15013197Y-16200104D01*
X14984626Y-16200104D01*
X14965578Y-16190580D01*
X14956054Y-16171532D01*
X14956054Y-16162009D01*
X14965578Y-16142961D01*
X14984626Y-16133437D01*
X15013197Y-16133437D01*
X15032245Y-16142961D01*
X15108435Y-16342961D02*
X15117959Y-16333437D01*
X15137007Y-16304866D01*
X15146530Y-16285818D01*
X15156054Y-16257247D01*
X15165578Y-16209628D01*
X15165578Y-16171532D01*
X15156054Y-16123913D01*
X15146530Y-16095342D01*
X15137007Y-16076294D01*
X15117959Y-16047723D01*
X15108435Y-16038199D01*
D15*
X9940934Y-16475650D02*
X9940934Y-16404939D01*
X9870222Y-16404939D01*
X9870222Y-16475650D01*
X9940934Y-16475650D01*
D11*
X10317959Y-16530771D02*
X10203673Y-16530771D01*
X10260816Y-16530771D02*
X10260816Y-16330771D01*
X10241769Y-16359342D01*
X10222721Y-16378390D01*
X10203673Y-16387913D01*
X10403673Y-16511723D02*
X10413197Y-16521247D01*
X10403673Y-16530771D01*
X10394150Y-16521247D01*
X10403673Y-16511723D01*
X10403673Y-16530771D01*
X10537007Y-16330771D02*
X10556054Y-16330771D01*
X10575102Y-16340294D01*
X10584626Y-16349818D01*
X10594150Y-16368866D01*
X10603673Y-16406961D01*
X10603673Y-16454580D01*
X10594150Y-16492675D01*
X10584626Y-16511723D01*
X10575102Y-16521247D01*
X10556054Y-16530771D01*
X10537007Y-16530771D01*
X10517959Y-16521247D01*
X10508435Y-16511723D01*
X10498911Y-16492675D01*
X10489388Y-16454580D01*
X10489388Y-16406961D01*
X10498911Y-16368866D01*
X10508435Y-16349818D01*
X10517959Y-16340294D01*
X10537007Y-16330771D01*
X10727483Y-16330771D02*
X10746530Y-16330771D01*
X10765578Y-16340294D01*
X10775102Y-16349818D01*
X10784626Y-16368866D01*
X10794150Y-16406961D01*
X10794150Y-16454580D01*
X10784626Y-16492675D01*
X10775102Y-16511723D01*
X10765578Y-16521247D01*
X10746530Y-16530771D01*
X10727483Y-16530771D01*
X10708435Y-16521247D01*
X10698911Y-16511723D01*
X10689388Y-16492675D01*
X10679864Y-16454580D01*
X10679864Y-16406961D01*
X10689388Y-16368866D01*
X10698911Y-16349818D01*
X10708435Y-16340294D01*
X10727483Y-16330771D01*
X10917959Y-16330771D02*
X10937007Y-16330771D01*
X10956054Y-16340294D01*
X10965578Y-16349818D01*
X10975102Y-16368866D01*
X10984626Y-16406961D01*
X10984626Y-16454580D01*
X10975102Y-16492675D01*
X10965578Y-16511723D01*
X10956054Y-16521247D01*
X10937007Y-16530771D01*
X10917959Y-16530771D01*
X10898911Y-16521247D01*
X10889388Y-16511723D01*
X10879864Y-16492675D01*
X10870340Y-16454580D01*
X10870340Y-16406961D01*
X10879864Y-16368866D01*
X10889388Y-16349818D01*
X10898911Y-16340294D01*
X10917959Y-16330771D01*
X11070340Y-16530771D02*
X11070340Y-16397437D01*
X11070340Y-16416485D02*
X11079864Y-16406961D01*
X11098911Y-16397437D01*
X11127483Y-16397437D01*
X11146530Y-16406961D01*
X11156054Y-16426009D01*
X11156054Y-16530771D01*
X11156054Y-16426009D02*
X11165578Y-16406961D01*
X11184626Y-16397437D01*
X11213197Y-16397437D01*
X11232245Y-16406961D01*
X11241768Y-16426009D01*
X11241768Y-16530771D01*
X11337007Y-16530771D02*
X11337007Y-16397437D01*
X11337007Y-16416485D02*
X11346530Y-16406961D01*
X11365578Y-16397437D01*
X11394149Y-16397437D01*
X11413197Y-16406961D01*
X11422721Y-16426009D01*
X11422721Y-16530771D01*
X11422721Y-16426009D02*
X11432245Y-16406961D01*
X11451292Y-16397437D01*
X11479864Y-16397437D01*
X11498911Y-16406961D01*
X11508435Y-16426009D01*
X11508435Y-16530771D01*
X11898911Y-16321247D02*
X11727483Y-16578390D01*
X12156054Y-16330771D02*
X12175102Y-16330771D01*
X12194149Y-16340294D01*
X12203673Y-16349818D01*
X12213197Y-16368866D01*
X12222721Y-16406961D01*
X12222721Y-16454580D01*
X12213197Y-16492675D01*
X12203673Y-16511723D01*
X12194149Y-16521247D01*
X12175102Y-16530771D01*
X12156054Y-16530771D01*
X12137007Y-16521247D01*
X12127483Y-16511723D01*
X12117959Y-16492675D01*
X12108435Y-16454580D01*
X12108435Y-16406961D01*
X12117959Y-16368866D01*
X12127483Y-16349818D01*
X12137007Y-16340294D01*
X12156054Y-16330771D01*
X12308435Y-16511723D02*
X12317959Y-16521247D01*
X12308435Y-16530771D01*
X12298911Y-16521247D01*
X12308435Y-16511723D01*
X12308435Y-16530771D01*
X12441768Y-16330771D02*
X12460816Y-16330771D01*
X12479864Y-16340294D01*
X12489388Y-16349818D01*
X12498911Y-16368866D01*
X12508435Y-16406961D01*
X12508435Y-16454580D01*
X12498911Y-16492675D01*
X12489388Y-16511723D01*
X12479864Y-16521247D01*
X12460816Y-16530771D01*
X12441768Y-16530771D01*
X12422721Y-16521247D01*
X12413197Y-16511723D01*
X12403673Y-16492675D01*
X12394149Y-16454580D01*
X12394149Y-16406961D01*
X12403673Y-16368866D01*
X12413197Y-16349818D01*
X12422721Y-16340294D01*
X12441768Y-16330771D01*
X12575102Y-16330771D02*
X12698911Y-16330771D01*
X12632245Y-16406961D01*
X12660816Y-16406961D01*
X12679864Y-16416485D01*
X12689388Y-16426009D01*
X12698911Y-16445056D01*
X12698911Y-16492675D01*
X12689388Y-16511723D01*
X12679864Y-16521247D01*
X12660816Y-16530771D01*
X12603673Y-16530771D01*
X12584626Y-16521247D01*
X12575102Y-16511723D01*
X12794149Y-16530771D02*
X12832245Y-16530771D01*
X12851292Y-16521247D01*
X12860816Y-16511723D01*
X12879864Y-16483152D01*
X12889388Y-16445056D01*
X12889388Y-16368866D01*
X12879864Y-16349818D01*
X12870340Y-16340294D01*
X12851292Y-16330771D01*
X12813197Y-16330771D01*
X12794149Y-16340294D01*
X12784626Y-16349818D01*
X12775102Y-16368866D01*
X12775102Y-16416485D01*
X12784626Y-16435532D01*
X12794149Y-16445056D01*
X12813197Y-16454580D01*
X12851292Y-16454580D01*
X12870340Y-16445056D01*
X12879864Y-16435532D01*
X12889388Y-16416485D01*
X13060816Y-16397437D02*
X13060816Y-16530771D01*
X13013197Y-16321247D02*
X12965578Y-16464104D01*
X13089388Y-16464104D01*
X13156054Y-16330771D02*
X13156054Y-16368866D01*
X13232245Y-16330771D02*
X13232245Y-16368866D01*
X13527483Y-16606961D02*
X13517959Y-16597437D01*
X13498911Y-16568866D01*
X13489388Y-16549818D01*
X13479864Y-16521247D01*
X13470340Y-16473628D01*
X13470340Y-16435532D01*
X13479864Y-16387913D01*
X13489388Y-16359342D01*
X13498911Y-16340294D01*
X13517959Y-16311723D01*
X13527483Y-16302199D01*
X13613197Y-16530771D02*
X13651292Y-16530771D01*
X13670340Y-16521247D01*
X13679864Y-16511723D01*
X13698911Y-16483152D01*
X13708435Y-16445056D01*
X13708435Y-16368866D01*
X13698911Y-16349818D01*
X13689388Y-16340294D01*
X13670340Y-16330771D01*
X13632245Y-16330771D01*
X13613197Y-16340294D01*
X13603673Y-16349818D01*
X13594149Y-16368866D01*
X13594149Y-16416485D01*
X13603673Y-16435532D01*
X13613197Y-16445056D01*
X13632245Y-16454580D01*
X13670340Y-16454580D01*
X13689388Y-16445056D01*
X13698911Y-16435532D01*
X13708435Y-16416485D01*
X13784626Y-16349818D02*
X13794149Y-16340294D01*
X13813197Y-16330771D01*
X13860816Y-16330771D01*
X13879864Y-16340294D01*
X13889388Y-16349818D01*
X13898911Y-16368866D01*
X13898911Y-16387913D01*
X13889388Y-16416485D01*
X13775102Y-16530771D01*
X13898911Y-16530771D01*
X14137007Y-16530771D02*
X14137007Y-16330771D01*
X14222721Y-16530771D02*
X14222721Y-16426009D01*
X14213197Y-16406961D01*
X14194149Y-16397437D01*
X14165578Y-16397437D01*
X14146530Y-16406961D01*
X14137007Y-16416485D01*
X14346530Y-16530771D02*
X14327483Y-16521247D01*
X14317959Y-16511723D01*
X14308435Y-16492675D01*
X14308435Y-16435532D01*
X14317959Y-16416485D01*
X14327483Y-16406961D01*
X14346530Y-16397437D01*
X14375102Y-16397437D01*
X14394149Y-16406961D01*
X14403673Y-16416485D01*
X14413197Y-16435532D01*
X14413197Y-16492675D01*
X14403673Y-16511723D01*
X14394149Y-16521247D01*
X14375102Y-16530771D01*
X14346530Y-16530771D01*
X14527483Y-16530771D02*
X14508435Y-16521247D01*
X14498911Y-16502199D01*
X14498911Y-16330771D01*
X14679864Y-16521247D02*
X14660816Y-16530771D01*
X14622721Y-16530771D01*
X14603673Y-16521247D01*
X14594149Y-16502199D01*
X14594149Y-16426009D01*
X14603673Y-16406961D01*
X14622721Y-16397437D01*
X14660816Y-16397437D01*
X14679864Y-16406961D01*
X14689388Y-16426009D01*
X14689388Y-16445056D01*
X14594149Y-16464104D01*
X14765578Y-16521247D02*
X14784626Y-16530771D01*
X14822721Y-16530771D01*
X14841768Y-16521247D01*
X14851292Y-16502199D01*
X14851292Y-16492675D01*
X14841768Y-16473628D01*
X14822721Y-16464104D01*
X14794149Y-16464104D01*
X14775102Y-16454580D01*
X14765578Y-16435532D01*
X14765578Y-16426009D01*
X14775102Y-16406961D01*
X14794149Y-16397437D01*
X14822721Y-16397437D01*
X14841768Y-16406961D01*
X14917959Y-16606961D02*
X14927483Y-16597437D01*
X14946530Y-16568866D01*
X14956054Y-16549818D01*
X14965578Y-16521247D01*
X14975102Y-16473628D01*
X14975102Y-16435532D01*
X14965578Y-16387913D01*
X14956054Y-16359342D01*
X14946530Y-16340294D01*
X14927483Y-16311723D01*
X14917959Y-16302199D01*
X9855578Y-16804295D02*
X9955578Y-16704294D01*
X9855578Y-16604294D01*
X9755578Y-16704294D01*
X9855578Y-16804295D01*
X10194150Y-16594771D02*
X10317959Y-16594771D01*
X10251292Y-16670961D01*
X10279864Y-16670961D01*
X10298911Y-16680485D01*
X10308435Y-16690009D01*
X10317959Y-16709056D01*
X10317959Y-16756675D01*
X10308435Y-16775723D01*
X10298911Y-16785247D01*
X10279864Y-16794771D01*
X10222721Y-16794771D01*
X10203673Y-16785247D01*
X10194150Y-16775723D01*
X10403673Y-16775723D02*
X10413197Y-16785247D01*
X10403673Y-16794771D01*
X10394150Y-16785247D01*
X10403673Y-16775723D01*
X10403673Y-16794771D01*
X10489388Y-16613818D02*
X10498911Y-16604294D01*
X10517959Y-16594771D01*
X10565578Y-16594771D01*
X10584626Y-16604294D01*
X10594150Y-16613818D01*
X10603673Y-16632866D01*
X10603673Y-16651913D01*
X10594150Y-16680485D01*
X10479864Y-16794771D01*
X10603673Y-16794771D01*
X10727483Y-16594771D02*
X10746530Y-16594771D01*
X10765578Y-16604294D01*
X10775102Y-16613818D01*
X10784626Y-16632866D01*
X10794150Y-16670961D01*
X10794150Y-16718580D01*
X10784626Y-16756675D01*
X10775102Y-16775723D01*
X10765578Y-16785247D01*
X10746530Y-16794771D01*
X10727483Y-16794771D01*
X10708435Y-16785247D01*
X10698911Y-16775723D01*
X10689388Y-16756675D01*
X10679864Y-16718580D01*
X10679864Y-16670961D01*
X10689388Y-16632866D01*
X10698911Y-16613818D01*
X10708435Y-16604294D01*
X10727483Y-16594771D01*
X10917959Y-16594771D02*
X10937007Y-16594771D01*
X10956054Y-16604294D01*
X10965578Y-16613818D01*
X10975102Y-16632866D01*
X10984626Y-16670961D01*
X10984626Y-16718580D01*
X10975102Y-16756675D01*
X10965578Y-16775723D01*
X10956054Y-16785247D01*
X10937007Y-16794771D01*
X10917959Y-16794771D01*
X10898911Y-16785247D01*
X10889388Y-16775723D01*
X10879864Y-16756675D01*
X10870340Y-16718580D01*
X10870340Y-16670961D01*
X10879864Y-16632866D01*
X10889388Y-16613818D01*
X10898911Y-16604294D01*
X10917959Y-16594771D01*
X11070340Y-16794771D02*
X11070340Y-16661437D01*
X11070340Y-16680485D02*
X11079864Y-16670961D01*
X11098911Y-16661437D01*
X11127483Y-16661437D01*
X11146530Y-16670961D01*
X11156054Y-16690009D01*
X11156054Y-16794771D01*
X11156054Y-16690009D02*
X11165578Y-16670961D01*
X11184626Y-16661437D01*
X11213197Y-16661437D01*
X11232245Y-16670961D01*
X11241768Y-16690009D01*
X11241768Y-16794771D01*
X11337007Y-16794771D02*
X11337007Y-16661437D01*
X11337007Y-16680485D02*
X11346530Y-16670961D01*
X11365578Y-16661437D01*
X11394149Y-16661437D01*
X11413197Y-16670961D01*
X11422721Y-16690009D01*
X11422721Y-16794771D01*
X11422721Y-16690009D02*
X11432245Y-16670961D01*
X11451292Y-16661437D01*
X11479864Y-16661437D01*
X11498911Y-16670961D01*
X11508435Y-16690009D01*
X11508435Y-16794771D01*
X11898911Y-16585247D02*
X11727483Y-16842390D01*
X12156054Y-16594771D02*
X12175102Y-16594771D01*
X12194149Y-16604294D01*
X12203673Y-16613818D01*
X12213197Y-16632866D01*
X12222721Y-16670961D01*
X12222721Y-16718580D01*
X12213197Y-16756675D01*
X12203673Y-16775723D01*
X12194149Y-16785247D01*
X12175102Y-16794771D01*
X12156054Y-16794771D01*
X12137007Y-16785247D01*
X12127483Y-16775723D01*
X12117959Y-16756675D01*
X12108435Y-16718580D01*
X12108435Y-16670961D01*
X12117959Y-16632866D01*
X12127483Y-16613818D01*
X12137007Y-16604294D01*
X12156054Y-16594771D01*
X12308435Y-16775723D02*
X12317959Y-16785247D01*
X12308435Y-16794771D01*
X12298911Y-16785247D01*
X12308435Y-16775723D01*
X12308435Y-16794771D01*
X12508435Y-16794771D02*
X12394149Y-16794771D01*
X12451292Y-16794771D02*
X12451292Y-16594771D01*
X12432245Y-16623342D01*
X12413197Y-16642390D01*
X12394149Y-16651913D01*
X12584626Y-16613818D02*
X12594149Y-16604294D01*
X12613197Y-16594771D01*
X12660816Y-16594771D01*
X12679864Y-16604294D01*
X12689388Y-16613818D01*
X12698911Y-16632866D01*
X12698911Y-16651913D01*
X12689388Y-16680485D01*
X12575102Y-16794771D01*
X12698911Y-16794771D01*
X12870340Y-16594771D02*
X12832245Y-16594771D01*
X12813197Y-16604294D01*
X12803673Y-16613818D01*
X12784626Y-16642390D01*
X12775102Y-16680485D01*
X12775102Y-16756675D01*
X12784626Y-16775723D01*
X12794149Y-16785247D01*
X12813197Y-16794771D01*
X12851292Y-16794771D01*
X12870340Y-16785247D01*
X12879864Y-16775723D01*
X12889388Y-16756675D01*
X12889388Y-16709056D01*
X12879864Y-16690009D01*
X12870340Y-16680485D01*
X12851292Y-16670961D01*
X12813197Y-16670961D01*
X12794149Y-16680485D01*
X12784626Y-16690009D01*
X12775102Y-16709056D01*
X13013197Y-16594771D02*
X13032245Y-16594771D01*
X13051292Y-16604294D01*
X13060816Y-16613818D01*
X13070340Y-16632866D01*
X13079864Y-16670961D01*
X13079864Y-16718580D01*
X13070340Y-16756675D01*
X13060816Y-16775723D01*
X13051292Y-16785247D01*
X13032245Y-16794771D01*
X13013197Y-16794771D01*
X12994149Y-16785247D01*
X12984626Y-16775723D01*
X12975102Y-16756675D01*
X12965578Y-16718580D01*
X12965578Y-16670961D01*
X12975102Y-16632866D01*
X12984626Y-16613818D01*
X12994149Y-16604294D01*
X13013197Y-16594771D01*
X13156054Y-16594771D02*
X13156054Y-16632866D01*
X13232245Y-16594771D02*
X13232245Y-16632866D01*
X13527483Y-16870961D02*
X13517959Y-16861437D01*
X13498911Y-16832866D01*
X13489388Y-16813818D01*
X13479864Y-16785247D01*
X13470340Y-16737628D01*
X13470340Y-16699532D01*
X13479864Y-16651913D01*
X13489388Y-16623342D01*
X13498911Y-16604294D01*
X13517959Y-16575723D01*
X13527483Y-16566199D01*
X13689388Y-16661437D02*
X13689388Y-16794771D01*
X13641768Y-16585247D02*
X13594149Y-16728104D01*
X13717959Y-16728104D01*
X13946530Y-16794771D02*
X13946530Y-16594771D01*
X14032245Y-16794771D02*
X14032245Y-16690009D01*
X14022721Y-16670961D01*
X14003673Y-16661437D01*
X13975102Y-16661437D01*
X13956054Y-16670961D01*
X13946530Y-16680485D01*
X14156054Y-16794771D02*
X14137007Y-16785247D01*
X14127483Y-16775723D01*
X14117959Y-16756675D01*
X14117959Y-16699532D01*
X14127483Y-16680485D01*
X14137007Y-16670961D01*
X14156054Y-16661437D01*
X14184626Y-16661437D01*
X14203673Y-16670961D01*
X14213197Y-16680485D01*
X14222721Y-16699532D01*
X14222721Y-16756675D01*
X14213197Y-16775723D01*
X14203673Y-16785247D01*
X14184626Y-16794771D01*
X14156054Y-16794771D01*
X14337007Y-16794771D02*
X14317959Y-16785247D01*
X14308435Y-16766199D01*
X14308435Y-16594771D01*
X14489388Y-16785247D02*
X14470340Y-16794771D01*
X14432245Y-16794771D01*
X14413197Y-16785247D01*
X14403673Y-16766199D01*
X14403673Y-16690009D01*
X14413197Y-16670961D01*
X14432245Y-16661437D01*
X14470340Y-16661437D01*
X14489388Y-16670961D01*
X14498911Y-16690009D01*
X14498911Y-16709056D01*
X14403673Y-16728104D01*
X14575102Y-16785247D02*
X14594149Y-16794771D01*
X14632245Y-16794771D01*
X14651292Y-16785247D01*
X14660816Y-16766199D01*
X14660816Y-16756675D01*
X14651292Y-16737628D01*
X14632245Y-16728104D01*
X14603673Y-16728104D01*
X14584626Y-16718580D01*
X14575102Y-16699532D01*
X14575102Y-16690009D01*
X14584626Y-16670961D01*
X14603673Y-16661437D01*
X14632245Y-16661437D01*
X14651292Y-16670961D01*
X14727483Y-16870961D02*
X14737007Y-16861437D01*
X14756054Y-16832866D01*
X14765578Y-16813818D01*
X14775102Y-16785247D01*
X14784626Y-16737628D01*
X14784626Y-16699532D01*
X14775102Y-16651913D01*
X14765578Y-16623342D01*
X14756054Y-16604294D01*
X14737007Y-16575723D01*
X14727483Y-16566199D01*
M02*
