G04 #@! TF.GenerationSoftware,KiCad,Pcbnew,(6.0.2)*
G04 #@! TF.CreationDate,2022-03-31T21:11:48+02:00*
G04 #@! TF.ProjectId,ba_nano_2,62615f6e-616e-46f5-9f32-2e6b69636164,rev?*
G04 #@! TF.SameCoordinates,Original*
G04 #@! TF.FileFunction,Copper,L2,Bot*
G04 #@! TF.FilePolarity,Positive*
%FSLAX46Y46*%
G04 Gerber Fmt 4.6, Leading zero omitted, Abs format (unit mm)*
G04 Created by KiCad (PCBNEW (6.0.2)) date 2022-03-31 21:11:48*
%MOMM*%
%LPD*%
G01*
G04 APERTURE LIST*
G04 Aperture macros list*
%AMRoundRect*
0 Rectangle with rounded corners*
0 $1 Rounding radius*
0 $2 $3 $4 $5 $6 $7 $8 $9 X,Y pos of 4 corners*
0 Add a 4 corners polygon primitive as box body*
4,1,4,$2,$3,$4,$5,$6,$7,$8,$9,$2,$3,0*
0 Add four circle primitives for the rounded corners*
1,1,$1+$1,$2,$3*
1,1,$1+$1,$4,$5*
1,1,$1+$1,$6,$7*
1,1,$1+$1,$8,$9*
0 Add four rect primitives between the rounded corners*
20,1,$1+$1,$2,$3,$4,$5,0*
20,1,$1+$1,$4,$5,$6,$7,0*
20,1,$1+$1,$6,$7,$8,$9,0*
20,1,$1+$1,$8,$9,$2,$3,0*%
G04 Aperture macros list end*
G04 #@! TA.AperFunction,ComponentPad*
%ADD10R,1.700000X1.700000*%
G04 #@! TD*
G04 #@! TA.AperFunction,ComponentPad*
%ADD11O,1.700000X1.700000*%
G04 #@! TD*
G04 #@! TA.AperFunction,ComponentPad*
%ADD12C,6.400000*%
G04 #@! TD*
G04 #@! TA.AperFunction,ComponentPad*
%ADD13RoundRect,0.317500X0.955000X-0.317500X0.955000X0.317500X-0.955000X0.317500X-0.955000X-0.317500X0*%
G04 #@! TD*
G04 #@! TA.AperFunction,ViaPad*
%ADD14C,1.778000*%
G04 #@! TD*
G04 #@! TA.AperFunction,Conductor*
%ADD15C,0.508000*%
G04 #@! TD*
G04 #@! TA.AperFunction,Conductor*
%ADD16C,0.381000*%
G04 #@! TD*
G04 APERTURE END LIST*
D10*
X104216200Y-137883900D03*
D11*
X101676200Y-137883900D03*
X104216200Y-135343900D03*
X101676200Y-135343900D03*
X104216200Y-132803900D03*
X101676200Y-132803900D03*
X104216200Y-130263900D03*
X101676200Y-130263900D03*
X104216200Y-127723900D03*
X101676200Y-127723900D03*
X104216200Y-125183900D03*
X101676200Y-125183900D03*
X104216200Y-122643900D03*
X101676200Y-122643900D03*
X104216200Y-120103900D03*
X101676200Y-120103900D03*
X104216200Y-117563900D03*
X101676200Y-117563900D03*
X104216200Y-115023900D03*
X101676200Y-115023900D03*
X104216200Y-112483900D03*
X101676200Y-112483900D03*
X104216200Y-109943900D03*
X101676200Y-109943900D03*
X104216200Y-107403900D03*
X101676200Y-107403900D03*
X104216200Y-104863900D03*
X101676200Y-104863900D03*
X104216200Y-102323900D03*
X101676200Y-102323900D03*
X104216200Y-99783900D03*
X101676200Y-99783900D03*
X104216200Y-97243900D03*
X101676200Y-97243900D03*
X104216200Y-94703900D03*
X101676200Y-94703900D03*
X104216200Y-92163900D03*
X101676200Y-92163900D03*
X104216200Y-89623900D03*
X101676200Y-89623900D03*
D10*
X165188900Y-89623900D03*
D11*
X167728900Y-89623900D03*
X165188900Y-92163900D03*
X167728900Y-92163900D03*
X165188900Y-94703900D03*
X167728900Y-94703900D03*
X165188900Y-97243900D03*
X167728900Y-97243900D03*
X165188900Y-99783900D03*
X167728900Y-99783900D03*
X165188900Y-102323900D03*
X167728900Y-102323900D03*
X165188900Y-104863900D03*
X167728900Y-104863900D03*
X165188900Y-107403900D03*
X167728900Y-107403900D03*
X165188900Y-109943900D03*
X167728900Y-109943900D03*
X165188900Y-112483900D03*
X167728900Y-112483900D03*
X165188900Y-115023900D03*
X167728900Y-115023900D03*
X165188900Y-117563900D03*
X167728900Y-117563900D03*
X165188900Y-120103900D03*
X167728900Y-120103900D03*
X165188900Y-122643900D03*
X167728900Y-122643900D03*
X165188900Y-125183900D03*
X167728900Y-125183900D03*
X165188900Y-127723900D03*
X167728900Y-127723900D03*
X165188900Y-130263900D03*
X167728900Y-130263900D03*
X165188900Y-132803900D03*
X167728900Y-132803900D03*
X165188900Y-135343900D03*
X167728900Y-135343900D03*
X165188900Y-137883900D03*
X167728900Y-137883900D03*
D12*
X103339900Y-146291300D03*
X103251000Y-56375300D03*
X166243000Y-56388000D03*
X166268400Y-146431000D03*
D13*
X165468300Y-67132200D03*
X165468300Y-64592200D03*
X165468300Y-62052200D03*
X162275520Y-67132200D03*
X162275520Y-64592200D03*
X162275520Y-62052200D03*
X148628100Y-67142360D03*
X148628100Y-64602360D03*
X148628100Y-62062360D03*
X145435320Y-67142360D03*
X145435320Y-64602360D03*
X145435320Y-62062360D03*
X157048200Y-67152520D03*
X157048200Y-64612520D03*
X157048200Y-62072520D03*
X153855420Y-67152520D03*
X153855420Y-64612520D03*
X153855420Y-62072520D03*
X140210540Y-67147440D03*
X140210540Y-64607440D03*
X140210540Y-62067440D03*
X137017760Y-67147440D03*
X137017760Y-64607440D03*
X137017760Y-62067440D03*
X131803140Y-67116960D03*
X131803140Y-64576960D03*
X131803140Y-62036960D03*
X128610360Y-67116960D03*
X128610360Y-64576960D03*
X128610360Y-62036960D03*
X123156980Y-67086480D03*
X123156980Y-64546480D03*
X123156980Y-62006480D03*
X119964200Y-67086480D03*
X119964200Y-64546480D03*
X119964200Y-62006480D03*
X114777520Y-67096640D03*
X114777520Y-64556640D03*
X114777520Y-62016640D03*
X111584740Y-67096640D03*
X111584740Y-64556640D03*
X111584740Y-62016640D03*
X106385360Y-67076320D03*
X106385360Y-64536320D03*
X106385360Y-61996320D03*
X103192580Y-67076320D03*
X103192580Y-64536320D03*
X103192580Y-61996320D03*
X165496240Y-75356720D03*
X165496240Y-72816720D03*
X165496240Y-70276720D03*
X162303460Y-75356720D03*
X162303460Y-72816720D03*
X162303460Y-70276720D03*
X157104080Y-75356720D03*
X157104080Y-72816720D03*
X157104080Y-70276720D03*
X153911300Y-75356720D03*
X153911300Y-72816720D03*
X153911300Y-70276720D03*
X148673820Y-75346560D03*
X148673820Y-72806560D03*
X148673820Y-70266560D03*
X145481040Y-75346560D03*
X145481040Y-72806560D03*
X145481040Y-70266560D03*
X140307060Y-75346560D03*
X140307060Y-72806560D03*
X140307060Y-70266560D03*
X137114280Y-75346560D03*
X137114280Y-72806560D03*
X137114280Y-70266560D03*
X131914900Y-75341480D03*
X131914900Y-72801480D03*
X131914900Y-70261480D03*
X128722120Y-75341480D03*
X128722120Y-72801480D03*
X128722120Y-70261480D03*
X123228100Y-75331320D03*
X123228100Y-72791320D03*
X123228100Y-70251320D03*
X120035320Y-75331320D03*
X120035320Y-72791320D03*
X120035320Y-70251320D03*
X114790220Y-75290680D03*
X114790220Y-72750680D03*
X114790220Y-70210680D03*
X111597440Y-75290680D03*
X111597440Y-72750680D03*
X111597440Y-70210680D03*
X106382820Y-75275440D03*
X106382820Y-72735440D03*
X106382820Y-70195440D03*
X103190040Y-75275440D03*
X103190040Y-72735440D03*
X103190040Y-70195440D03*
X131765040Y-83596480D03*
X131765040Y-81056480D03*
X131765040Y-78516480D03*
X128572260Y-83596480D03*
X128572260Y-81056480D03*
X128572260Y-78516480D03*
X123390660Y-83632040D03*
X123390660Y-81092040D03*
X123390660Y-78552040D03*
X120197880Y-83632040D03*
X120197880Y-81092040D03*
X120197880Y-78552040D03*
X114820700Y-83632040D03*
X114820700Y-81092040D03*
X114820700Y-78552040D03*
X111627920Y-83632040D03*
X111627920Y-81092040D03*
X111627920Y-78552040D03*
X106296460Y-83586320D03*
X106296460Y-81046320D03*
X106296460Y-78506320D03*
X103103680Y-83586320D03*
X103103680Y-81046320D03*
X103103680Y-78506320D03*
D14*
X168341040Y-80284320D03*
X159842200Y-80319880D03*
X151231600Y-80360520D03*
X142788640Y-80375760D03*
X137459720Y-80340200D03*
X126730760Y-89722960D03*
X118196360Y-89738200D03*
X112476280Y-89687400D03*
X159852360Y-100512880D03*
X153911300Y-101013260D03*
X151394160Y-101066600D03*
X149174200Y-101178360D03*
X146441160Y-101122480D03*
X124719080Y-99857560D03*
X116144040Y-101036120D03*
X109651800Y-94350840D03*
X140624560Y-104714040D03*
X122361960Y-104228240D03*
X112801400Y-104566720D03*
X108676440Y-106837480D03*
D15*
X168734740Y-79362300D02*
X168734740Y-66245740D01*
X168341040Y-79756000D02*
X168734740Y-79362300D01*
X166174010Y-65297910D02*
X165468300Y-64592200D01*
X168341040Y-80284320D02*
X168341040Y-79756000D01*
X168734740Y-66245740D02*
X167786910Y-65297910D01*
X167786910Y-65297910D02*
X166174010Y-65297910D01*
X162275520Y-64592200D02*
X165468300Y-64592200D01*
X158510830Y-65318230D02*
X159730440Y-66537840D01*
X159730440Y-66537840D02*
X159842200Y-66649600D01*
X159842200Y-79669640D02*
X159842200Y-80319880D01*
X153855420Y-64612520D02*
X157048200Y-64612520D01*
X159730440Y-66537840D02*
X160113980Y-66921380D01*
X157753910Y-65318230D02*
X158510830Y-65318230D01*
X160113980Y-79397860D02*
X159842200Y-79669640D01*
X160113980Y-66921380D02*
X160113980Y-79397860D01*
X157048200Y-64612520D02*
X157753910Y-65318230D01*
X150459030Y-65308070D02*
X149333810Y-65308070D01*
X151241760Y-80360520D02*
X151861520Y-79740760D01*
X145435320Y-64602360D02*
X148628100Y-64602360D01*
X151861520Y-79740760D02*
X151861520Y-66710560D01*
X151861520Y-66710560D02*
X150459030Y-65308070D01*
X151231600Y-80360520D02*
X151241760Y-80360520D01*
X149333810Y-65308070D02*
X148628100Y-64602360D01*
X143000000Y-66378360D02*
X141934790Y-65313150D01*
X140916250Y-65313150D02*
X140210540Y-64607440D01*
X142788640Y-80375760D02*
X142788640Y-80211360D01*
X141934790Y-65313150D02*
X140916250Y-65313150D01*
X143000000Y-80000000D02*
X143000000Y-66378360D01*
X142788640Y-80211360D02*
X143000000Y-80000000D01*
X137017760Y-64607440D02*
X140210540Y-64607440D01*
X134309710Y-65282670D02*
X135082280Y-66055240D01*
X128610360Y-64576960D02*
X131803140Y-64576960D01*
X133840220Y-65282670D02*
X134309710Y-65282670D01*
X135082280Y-77962760D02*
X137459720Y-80340200D01*
X132508850Y-65282670D02*
X133840220Y-65282670D01*
X131803140Y-64576960D02*
X132508850Y-65282670D01*
X135082280Y-66055240D02*
X135082280Y-77962760D01*
X125099670Y-65252190D02*
X126730760Y-66883280D01*
X123156980Y-64546480D02*
X123862690Y-65252190D01*
D16*
X126730760Y-66883280D02*
X126730760Y-83662520D01*
D15*
X123862690Y-65252190D02*
X125099670Y-65252190D01*
X119964200Y-64546480D02*
X123156980Y-64546480D01*
D16*
X126730760Y-83662520D02*
X126730760Y-89722960D01*
D15*
X126730760Y-83662520D02*
X126690120Y-83703160D01*
X118216680Y-66222880D02*
X118216680Y-81474420D01*
X111584740Y-64556640D02*
X114777520Y-64556640D01*
X114777520Y-64556640D02*
X115483230Y-65262350D01*
X117256150Y-65262350D02*
X118216680Y-66222880D01*
X118196360Y-81494740D02*
X118196360Y-89738200D01*
X115483230Y-65262350D02*
X117256150Y-65262350D01*
X118216680Y-81474420D02*
X118196360Y-81494740D01*
X112476280Y-89687400D02*
X112476280Y-88430165D01*
X106385360Y-64536320D02*
X107091070Y-65242030D01*
X107091070Y-65242030D02*
X108086750Y-65242030D01*
X108086750Y-65242030D02*
X108137550Y-65242030D01*
D16*
X112476280Y-88430165D02*
X112430165Y-88430165D01*
D15*
X103192580Y-64536320D02*
X106385360Y-64536320D01*
D16*
X112430165Y-88430165D02*
X109074570Y-85074570D01*
X109074570Y-85074570D02*
X109074570Y-66179050D01*
D15*
X108137550Y-65242030D02*
X109000000Y-66104480D01*
D16*
X109074570Y-66179050D02*
X109000000Y-66104480D01*
D15*
X167070630Y-73522430D02*
X167520620Y-73972420D01*
X163261040Y-78491080D02*
X162285680Y-79466440D01*
X162303460Y-72816720D02*
X165496240Y-72816720D01*
X165496240Y-72816720D02*
X166201950Y-73522430D01*
X166201950Y-73522430D02*
X167070630Y-73522430D01*
X167520620Y-77863700D02*
X166893240Y-78491080D01*
X162285680Y-98079560D02*
X159852360Y-100512880D01*
X162303460Y-73551720D02*
X162285680Y-73569500D01*
X162285680Y-79466440D02*
X162285680Y-98079560D01*
X167520620Y-73972420D02*
X167520620Y-77863700D01*
X162303460Y-72816720D02*
X162303460Y-73551720D01*
X166893240Y-78491080D02*
X163261040Y-78491080D01*
X153911300Y-79527400D02*
X153911300Y-101013260D01*
X153911300Y-72816720D02*
X157104080Y-72816720D01*
X157809790Y-73522430D02*
X158460030Y-73522430D01*
X154960320Y-78478380D02*
X153911300Y-79527400D01*
X158460030Y-73522430D02*
X159110680Y-74173080D01*
X157104080Y-72816720D02*
X157809790Y-73522430D01*
X159110680Y-74173080D02*
X159110680Y-77591920D01*
X159110680Y-77591920D02*
X158224220Y-78478380D01*
X158224220Y-78478380D02*
X154960320Y-78478380D01*
X148673820Y-72806560D02*
X149379530Y-73512270D01*
X149550120Y-78407260D02*
X146657060Y-78407260D01*
X150050090Y-73512270D02*
X150611840Y-74074020D01*
X146657060Y-78407260D02*
X145435320Y-79629000D01*
X145435320Y-93850525D02*
X145435320Y-92603320D01*
X150611840Y-74074020D02*
X150611840Y-77345540D01*
X150611840Y-77345540D02*
X149550120Y-78407260D01*
X145435320Y-79629000D02*
X145435320Y-92603320D01*
X151394160Y-99809365D02*
X145435320Y-93850525D01*
X145481040Y-72806560D02*
X148673820Y-72806560D01*
X149379530Y-73512270D02*
X150050090Y-73512270D01*
X151394160Y-101066600D02*
X151394160Y-99809365D01*
X142033570Y-77966430D02*
X142033570Y-73033570D01*
X148254721Y-100289361D02*
X140055600Y-92090240D01*
X140055600Y-79837280D02*
X140162720Y-79837280D01*
X148285201Y-100289361D02*
X148254721Y-100289361D01*
X141806560Y-72806560D02*
X140307060Y-72806560D01*
X140055600Y-79837280D02*
X140055600Y-92090240D01*
X140162720Y-79837280D02*
X142033570Y-77966430D01*
X149174200Y-101178360D02*
X148285201Y-100289361D01*
X142033570Y-73033570D02*
X141806560Y-72806560D01*
X137114280Y-72806560D02*
X140307060Y-72806560D01*
X136000000Y-82000000D02*
X136000000Y-90767680D01*
X128722120Y-72801480D02*
X131914900Y-72801480D01*
X131914900Y-72801480D02*
X132620610Y-73507190D01*
X146441160Y-101122480D02*
X145552161Y-100233481D01*
X145552161Y-100233481D02*
X145465801Y-100233481D01*
X134183120Y-74518520D02*
X134183120Y-80183120D01*
X145465801Y-100233481D02*
X136000000Y-90767680D01*
X132620610Y-73507190D02*
X133171790Y-73507190D01*
X134183120Y-80183120D02*
X136000000Y-82000000D01*
X133171790Y-73507190D02*
X134183120Y-74518520D01*
X125387759Y-86900361D02*
X125347119Y-86900361D01*
X124719080Y-97698560D02*
X124719080Y-99857560D01*
D16*
X126000000Y-75047600D02*
X125587760Y-74635360D01*
D15*
X123933810Y-73497030D02*
X124449430Y-73497030D01*
X125347119Y-86900361D02*
X124688600Y-87558880D01*
X125572520Y-86715600D02*
X125387759Y-86900361D01*
X125587760Y-86715600D02*
X125572520Y-86715600D01*
X124449430Y-73497030D02*
X125587760Y-74635360D01*
X123228100Y-72791320D02*
X123933810Y-73497030D01*
X120035320Y-72791320D02*
X123228100Y-72791320D01*
X124688600Y-87558880D02*
X124688600Y-97668080D01*
D16*
X125587760Y-86715600D02*
X126000000Y-86303360D01*
X126000000Y-86303360D02*
X126000000Y-75047600D01*
D15*
X124688600Y-97668080D02*
X124719080Y-97698560D01*
X114790220Y-72750680D02*
X116011960Y-72750680D01*
X117058440Y-73797160D02*
X117058440Y-87965280D01*
X116011960Y-72750680D02*
X117058440Y-73797160D01*
X114790220Y-72750680D02*
X111597440Y-72750680D01*
X117058440Y-87965280D02*
X116144040Y-88879680D01*
X116144040Y-88879680D02*
X116144040Y-101036120D01*
D16*
X107761630Y-73441150D02*
X108493560Y-74173080D01*
D15*
X106382820Y-72735440D02*
X107088530Y-73441150D01*
D16*
X109651800Y-88854280D02*
X108493560Y-87696040D01*
D15*
X103190040Y-72735440D02*
X106382820Y-72735440D01*
X109651800Y-94350840D02*
X109651800Y-88854280D01*
D16*
X108493560Y-74173080D02*
X108493560Y-87696040D01*
D15*
X107088530Y-73441150D02*
X107761630Y-73441150D01*
X140624560Y-98226880D02*
X134000000Y-91602320D01*
X140624560Y-104714040D02*
X140624560Y-103456805D01*
X132943520Y-81056480D02*
X133887040Y-82000000D01*
X133887040Y-82000000D02*
X133887040Y-91489360D01*
X133887040Y-91489360D02*
X134000000Y-91602320D01*
X128572260Y-81056480D02*
X131765040Y-81056480D01*
X131765040Y-81056480D02*
X132943520Y-81056480D01*
X140624560Y-103456805D02*
X140624560Y-98226880D01*
D16*
X125053670Y-84946330D02*
X124000000Y-86000000D01*
D15*
X122361960Y-86638040D02*
X123000000Y-86000000D01*
X120197880Y-81092040D02*
X123390660Y-81092040D01*
D16*
X123390660Y-81092040D02*
X125053670Y-82755050D01*
D15*
X122361960Y-104228240D02*
X122361960Y-86638040D01*
X124000000Y-86000000D02*
X123000000Y-86000000D01*
D16*
X125053670Y-82755050D02*
X125053670Y-84946330D01*
D15*
X114820700Y-81092040D02*
X111627920Y-81092040D01*
X109907960Y-81092040D02*
X111627920Y-81092040D01*
X112801400Y-100716080D02*
X112801400Y-104566720D01*
D16*
X114396520Y-87000000D02*
X113396520Y-86000000D01*
D15*
X114396520Y-99120960D02*
X112801400Y-100716080D01*
D16*
X111000000Y-86000000D02*
X109655580Y-84655580D01*
X109655580Y-81344420D02*
X109907960Y-81092040D01*
D15*
X114396520Y-86918800D02*
X114396520Y-87000000D01*
X114396520Y-87000000D02*
X114396520Y-99120960D01*
D16*
X109655580Y-84655580D02*
X109655580Y-81344420D01*
X113396520Y-86000000D02*
X111000000Y-86000000D01*
D15*
X102000000Y-81000000D02*
X101000000Y-82000000D01*
X109032040Y-107193080D02*
X108676440Y-106837480D01*
X107035600Y-105196640D02*
X108676440Y-106837480D01*
X106296460Y-81046320D02*
X103103680Y-81046320D01*
X103103680Y-81046320D02*
X102046320Y-81046320D01*
X101000000Y-82000000D02*
X101000000Y-86000000D01*
X107035600Y-87746840D02*
X107035600Y-105196640D01*
X102046320Y-81046320D02*
X102000000Y-81000000D01*
X106034840Y-86746080D02*
X107035600Y-87746840D01*
X101746080Y-86746080D02*
X106034840Y-86746080D01*
X101000000Y-86000000D02*
X101746080Y-86746080D01*
X162275520Y-67132200D02*
X165468300Y-67132200D01*
X145435320Y-67142360D02*
X148628100Y-67142360D01*
X128610360Y-67116960D02*
X131803140Y-67116960D01*
X111584740Y-67096640D02*
X114777520Y-67096640D01*
X162303460Y-75356720D02*
X165496240Y-75356720D01*
X145481040Y-75346560D02*
X148673820Y-75346560D01*
X131914900Y-75341480D02*
X128722120Y-75341480D01*
X111597440Y-75290680D02*
X114790220Y-75290680D01*
X128572260Y-83596480D02*
X131765040Y-83596480D01*
X111627920Y-83632040D02*
X114820700Y-83632040D01*
X153855420Y-67152520D02*
X157048200Y-67152520D01*
X137017760Y-67147440D02*
X140210540Y-67147440D01*
X119964200Y-67086480D02*
X123156980Y-67086480D01*
X103192580Y-67076320D02*
X106385360Y-67076320D01*
X153911300Y-75356720D02*
X157104080Y-75356720D01*
X137114280Y-75346560D02*
X140307060Y-75346560D01*
X120035320Y-75331320D02*
X123228100Y-75331320D01*
X103190040Y-75275440D02*
X106382820Y-75275440D01*
X120197880Y-83632040D02*
X123390660Y-83632040D01*
X103103680Y-83586320D02*
X106296460Y-83586320D01*
M02*
