G04 #@! TF.GenerationSoftware,KiCad,Pcbnew,(6.0.2)*
G04 #@! TF.CreationDate,2022-03-31T21:11:48+02:00*
G04 #@! TF.ProjectId,ba_nano_2,62615f6e-616e-46f5-9f32-2e6b69636164,rev?*
G04 #@! TF.SameCoordinates,Original*
G04 #@! TF.FileFunction,Copper,L1,Top*
G04 #@! TF.FilePolarity,Positive*
%FSLAX46Y46*%
G04 Gerber Fmt 4.6, Leading zero omitted, Abs format (unit mm)*
G04 Created by KiCad (PCBNEW (6.0.2)) date 2022-03-31 21:11:48*
%MOMM*%
%LPD*%
G01*
G04 APERTURE LIST*
G04 Aperture macros list*
%AMRoundRect*
0 Rectangle with rounded corners*
0 $1 Rounding radius*
0 $2 $3 $4 $5 $6 $7 $8 $9 X,Y pos of 4 corners*
0 Add a 4 corners polygon primitive as box body*
4,1,4,$2,$3,$4,$5,$6,$7,$8,$9,$2,$3,0*
0 Add four circle primitives for the rounded corners*
1,1,$1+$1,$2,$3*
1,1,$1+$1,$4,$5*
1,1,$1+$1,$6,$7*
1,1,$1+$1,$8,$9*
0 Add four rect primitives between the rounded corners*
20,1,$1+$1,$2,$3,$4,$5,0*
20,1,$1+$1,$4,$5,$6,$7,0*
20,1,$1+$1,$6,$7,$8,$9,0*
20,1,$1+$1,$8,$9,$2,$3,0*%
G04 Aperture macros list end*
G04 #@! TA.AperFunction,SMDPad,CuDef*
%ADD10RoundRect,0.250000X1.025000X-0.550000X1.025000X0.550000X-1.025000X0.550000X-1.025000X-0.550000X0*%
G04 #@! TD*
G04 #@! TA.AperFunction,ComponentPad*
%ADD11R,1.700000X1.700000*%
G04 #@! TD*
G04 #@! TA.AperFunction,ComponentPad*
%ADD12O,1.700000X1.700000*%
G04 #@! TD*
G04 #@! TA.AperFunction,ComponentPad*
%ADD13C,6.400000*%
G04 #@! TD*
G04 #@! TA.AperFunction,SMDPad,CuDef*
%ADD14RoundRect,0.237500X-0.287500X-0.237500X0.287500X-0.237500X0.287500X0.237500X-0.287500X0.237500X0*%
G04 #@! TD*
G04 #@! TA.AperFunction,SMDPad,CuDef*
%ADD15RoundRect,0.237500X-0.237500X0.287500X-0.237500X-0.287500X0.237500X-0.287500X0.237500X0.287500X0*%
G04 #@! TD*
G04 #@! TA.AperFunction,ComponentPad*
%ADD16RoundRect,0.317500X0.955000X-0.317500X0.955000X0.317500X-0.955000X0.317500X-0.955000X-0.317500X0*%
G04 #@! TD*
G04 #@! TA.AperFunction,ViaPad*
%ADD17C,1.778000*%
G04 #@! TD*
G04 #@! TA.AperFunction,Conductor*
%ADD18C,0.508000*%
G04 #@! TD*
G04 #@! TA.AperFunction,Conductor*
%ADD19C,1.016000*%
G04 #@! TD*
G04 #@! TA.AperFunction,Conductor*
%ADD20C,0.381000*%
G04 #@! TD*
G04 #@! TA.AperFunction,Conductor*
%ADD21C,0.762000*%
G04 #@! TD*
G04 APERTURE END LIST*
D10*
X118732300Y-115648800D03*
X118732300Y-112798800D03*
X157988000Y-126926400D03*
X157988000Y-124076400D03*
X152273000Y-126926400D03*
X152273000Y-124076400D03*
X124447300Y-115648800D03*
X124447300Y-112798800D03*
X140830300Y-126926400D03*
X140830300Y-124076400D03*
X135877300Y-126926400D03*
X135877300Y-124076400D03*
X130162300Y-126926400D03*
X130162300Y-124076400D03*
X124434600Y-126926400D03*
X124434600Y-124076400D03*
D11*
X104216200Y-137883900D03*
D12*
X101676200Y-137883900D03*
X104216200Y-135343900D03*
X101676200Y-135343900D03*
X104216200Y-132803900D03*
X101676200Y-132803900D03*
X104216200Y-130263900D03*
X101676200Y-130263900D03*
X104216200Y-127723900D03*
X101676200Y-127723900D03*
X104216200Y-125183900D03*
X101676200Y-125183900D03*
X104216200Y-122643900D03*
X101676200Y-122643900D03*
X104216200Y-120103900D03*
X101676200Y-120103900D03*
X104216200Y-117563900D03*
X101676200Y-117563900D03*
X104216200Y-115023900D03*
X101676200Y-115023900D03*
X104216200Y-112483900D03*
X101676200Y-112483900D03*
X104216200Y-109943900D03*
X101676200Y-109943900D03*
X104216200Y-107403900D03*
X101676200Y-107403900D03*
X104216200Y-104863900D03*
X101676200Y-104863900D03*
X104216200Y-102323900D03*
X101676200Y-102323900D03*
X104216200Y-99783900D03*
X101676200Y-99783900D03*
X104216200Y-97243900D03*
X101676200Y-97243900D03*
X104216200Y-94703900D03*
X101676200Y-94703900D03*
X104216200Y-92163900D03*
X101676200Y-92163900D03*
X104216200Y-89623900D03*
X101676200Y-89623900D03*
D11*
X165188900Y-89623900D03*
D12*
X167728900Y-89623900D03*
X165188900Y-92163900D03*
X167728900Y-92163900D03*
X165188900Y-94703900D03*
X167728900Y-94703900D03*
X165188900Y-97243900D03*
X167728900Y-97243900D03*
X165188900Y-99783900D03*
X167728900Y-99783900D03*
X165188900Y-102323900D03*
X167728900Y-102323900D03*
X165188900Y-104863900D03*
X167728900Y-104863900D03*
X165188900Y-107403900D03*
X167728900Y-107403900D03*
X165188900Y-109943900D03*
X167728900Y-109943900D03*
X165188900Y-112483900D03*
X167728900Y-112483900D03*
X165188900Y-115023900D03*
X167728900Y-115023900D03*
X165188900Y-117563900D03*
X167728900Y-117563900D03*
X165188900Y-120103900D03*
X167728900Y-120103900D03*
X165188900Y-122643900D03*
X167728900Y-122643900D03*
X165188900Y-125183900D03*
X167728900Y-125183900D03*
X165188900Y-127723900D03*
X167728900Y-127723900D03*
X165188900Y-130263900D03*
X167728900Y-130263900D03*
X165188900Y-132803900D03*
X167728900Y-132803900D03*
X165188900Y-135343900D03*
X167728900Y-135343900D03*
X165188900Y-137883900D03*
X167728900Y-137883900D03*
D10*
X158000700Y-138813600D03*
X158000700Y-135963600D03*
X140868400Y-138813600D03*
X140868400Y-135963600D03*
X135851900Y-138851700D03*
X135851900Y-136001700D03*
X124421900Y-138826300D03*
X124421900Y-135976300D03*
X130136900Y-138839000D03*
X130136900Y-135989000D03*
X152285700Y-138813600D03*
X152285700Y-135963600D03*
X118706900Y-138813600D03*
X118706900Y-135963600D03*
X146570700Y-138813600D03*
X146570700Y-135963600D03*
X118732300Y-126913700D03*
X118732300Y-124063700D03*
X135890000Y-115636100D03*
X135890000Y-112786100D03*
X130162300Y-115648800D03*
X130162300Y-112798800D03*
X146545300Y-126926400D03*
X146545300Y-124076400D03*
D13*
X103339900Y-146291300D03*
X103251000Y-56375300D03*
X166243000Y-56388000D03*
X166268400Y-146431000D03*
D14*
X107241400Y-137896600D03*
X108991400Y-137896600D03*
X111114900Y-136664700D03*
X112864900Y-136664700D03*
X107368400Y-135343900D03*
X109118400Y-135343900D03*
X111203800Y-134112000D03*
X112953800Y-134112000D03*
X107355700Y-132816600D03*
X109105700Y-132816600D03*
X111203800Y-131551680D03*
X112953800Y-131551680D03*
X107355700Y-130302000D03*
X109105700Y-130302000D03*
X111178400Y-129032000D03*
X112928400Y-129032000D03*
X107355700Y-127723900D03*
X109105700Y-127723900D03*
X111178400Y-126441200D03*
X112928400Y-126441200D03*
X111216500Y-122694700D03*
X112966500Y-122694700D03*
X107406500Y-121412000D03*
X109156500Y-121412000D03*
D15*
X168173400Y-67205920D03*
X168173400Y-68955920D03*
X151282400Y-67150040D03*
X151282400Y-68900040D03*
X134452360Y-67155120D03*
X134452360Y-68905120D03*
X117480080Y-67119560D03*
X117480080Y-68869560D03*
X168158160Y-75476160D03*
X168158160Y-77226160D03*
X151333200Y-75405040D03*
X151333200Y-77155040D03*
X134523480Y-75389800D03*
X134523480Y-77139800D03*
X117525800Y-75339000D03*
X117525800Y-77089000D03*
X134868920Y-83578760D03*
X134868920Y-85328760D03*
X117541040Y-83588920D03*
X117541040Y-85338920D03*
D14*
X111216500Y-120180100D03*
X112966500Y-120180100D03*
X107431900Y-118859300D03*
X109181900Y-118859300D03*
D15*
X159689800Y-67155120D03*
X159689800Y-68905120D03*
X142788640Y-67081400D03*
X142788640Y-68831400D03*
X108874560Y-67012880D03*
X108874560Y-68762880D03*
X159720280Y-75389800D03*
X159720280Y-77139800D03*
X142849600Y-75333920D03*
X142849600Y-77083920D03*
X108899960Y-75227240D03*
X108899960Y-76977240D03*
X109021880Y-83568600D03*
X109021880Y-85318600D03*
D14*
X111178400Y-117576600D03*
X112928400Y-117576600D03*
X107406500Y-116319300D03*
X109156500Y-116319300D03*
X111178400Y-115023900D03*
X112928400Y-115023900D03*
X107355700Y-113779300D03*
X109105700Y-113779300D03*
X111165700Y-112483900D03*
X112915700Y-112483900D03*
X107391200Y-111252000D03*
X109141200Y-111252000D03*
D15*
X126080520Y-75394880D03*
X126080520Y-77144880D03*
X126121160Y-83588920D03*
X126121160Y-85338920D03*
X126034800Y-67170360D03*
X126034800Y-68920360D03*
D16*
X165468300Y-67132200D03*
X165468300Y-64592200D03*
X165468300Y-62052200D03*
X162275520Y-67132200D03*
X162275520Y-64592200D03*
X162275520Y-62052200D03*
X148628100Y-67142360D03*
X148628100Y-64602360D03*
X148628100Y-62062360D03*
X145435320Y-67142360D03*
X145435320Y-64602360D03*
X145435320Y-62062360D03*
X157048200Y-67152520D03*
X157048200Y-64612520D03*
X157048200Y-62072520D03*
X153855420Y-67152520D03*
X153855420Y-64612520D03*
X153855420Y-62072520D03*
X140210540Y-67147440D03*
X140210540Y-64607440D03*
X140210540Y-62067440D03*
X137017760Y-67147440D03*
X137017760Y-64607440D03*
X137017760Y-62067440D03*
X131803140Y-67116960D03*
X131803140Y-64576960D03*
X131803140Y-62036960D03*
X128610360Y-67116960D03*
X128610360Y-64576960D03*
X128610360Y-62036960D03*
X123156980Y-67086480D03*
X123156980Y-64546480D03*
X123156980Y-62006480D03*
X119964200Y-67086480D03*
X119964200Y-64546480D03*
X119964200Y-62006480D03*
X114777520Y-67096640D03*
X114777520Y-64556640D03*
X114777520Y-62016640D03*
X111584740Y-67096640D03*
X111584740Y-64556640D03*
X111584740Y-62016640D03*
X106385360Y-67076320D03*
X106385360Y-64536320D03*
X106385360Y-61996320D03*
X103192580Y-67076320D03*
X103192580Y-64536320D03*
X103192580Y-61996320D03*
X165496240Y-75356720D03*
X165496240Y-72816720D03*
X165496240Y-70276720D03*
X162303460Y-75356720D03*
X162303460Y-72816720D03*
X162303460Y-70276720D03*
X157104080Y-75356720D03*
X157104080Y-72816720D03*
X157104080Y-70276720D03*
X153911300Y-75356720D03*
X153911300Y-72816720D03*
X153911300Y-70276720D03*
X148673820Y-75346560D03*
X148673820Y-72806560D03*
X148673820Y-70266560D03*
X145481040Y-75346560D03*
X145481040Y-72806560D03*
X145481040Y-70266560D03*
X140307060Y-75346560D03*
X140307060Y-72806560D03*
X140307060Y-70266560D03*
X137114280Y-75346560D03*
X137114280Y-72806560D03*
X137114280Y-70266560D03*
X131914900Y-75341480D03*
X131914900Y-72801480D03*
X131914900Y-70261480D03*
X128722120Y-75341480D03*
X128722120Y-72801480D03*
X128722120Y-70261480D03*
X123228100Y-75331320D03*
X123228100Y-72791320D03*
X123228100Y-70251320D03*
X120035320Y-75331320D03*
X120035320Y-72791320D03*
X120035320Y-70251320D03*
X114790220Y-75290680D03*
X114790220Y-72750680D03*
X114790220Y-70210680D03*
X111597440Y-75290680D03*
X111597440Y-72750680D03*
X111597440Y-70210680D03*
X106382820Y-75275440D03*
X106382820Y-72735440D03*
X106382820Y-70195440D03*
X103190040Y-75275440D03*
X103190040Y-72735440D03*
X103190040Y-70195440D03*
X131765040Y-83596480D03*
X131765040Y-81056480D03*
X131765040Y-78516480D03*
X128572260Y-83596480D03*
X128572260Y-81056480D03*
X128572260Y-78516480D03*
X123390660Y-83632040D03*
X123390660Y-81092040D03*
X123390660Y-78552040D03*
X120197880Y-83632040D03*
X120197880Y-81092040D03*
X120197880Y-78552040D03*
X114820700Y-83632040D03*
X114820700Y-81092040D03*
X114820700Y-78552040D03*
X111627920Y-83632040D03*
X111627920Y-81092040D03*
X111627920Y-78552040D03*
X106296460Y-83586320D03*
X106296460Y-81046320D03*
X106296460Y-78506320D03*
X103103680Y-83586320D03*
X103103680Y-81046320D03*
X103103680Y-78506320D03*
D17*
X168341040Y-80284320D03*
X159842200Y-80319880D03*
X151231600Y-80360520D03*
X142788640Y-80375760D03*
X137459720Y-80340200D03*
X126730760Y-89722960D03*
X118196360Y-89738200D03*
X112476280Y-89687400D03*
X159852360Y-100512880D03*
X153911300Y-101013260D03*
X151394160Y-101066600D03*
X149174200Y-101178360D03*
X146441160Y-101122480D03*
X124719080Y-99857560D03*
X116144040Y-101036120D03*
X109651800Y-94350840D03*
X140624560Y-104714040D03*
X122361960Y-104228240D03*
X112801400Y-104566720D03*
X108676440Y-106837480D03*
D18*
X115666520Y-137896600D02*
X117368320Y-136194800D01*
X114960400Y-137896600D02*
X115666520Y-137896600D01*
X108991400Y-137896600D02*
X114960400Y-137896600D01*
X117368320Y-135963600D02*
X118706900Y-135963600D01*
X117368320Y-136194800D02*
X117368320Y-135963600D01*
X114960400Y-137896600D02*
X114975640Y-137881360D01*
X122684600Y-134239000D02*
X124421900Y-135976300D01*
X115229640Y-136692640D02*
X117683280Y-134239000D01*
X112864900Y-136664700D02*
X113489900Y-136664700D01*
X113517840Y-136692640D02*
X115229640Y-136692640D01*
X113489900Y-136664700D02*
X113517840Y-136692640D01*
X117683280Y-134239000D02*
X122684600Y-134239000D01*
X127447100Y-133299200D02*
X130136900Y-135989000D01*
X117607080Y-133299200D02*
X127447100Y-133299200D01*
X109118400Y-135343900D02*
X115562380Y-135343900D01*
X115562380Y-135343900D02*
X117607080Y-133299200D01*
X115742720Y-134112000D02*
X117393720Y-132461000D01*
X135851900Y-136001700D02*
X132311200Y-132461000D01*
X112953800Y-134112000D02*
X115742720Y-134112000D01*
X132311200Y-132461000D02*
X117393720Y-132461000D01*
X109745940Y-132801360D02*
X116052084Y-132801360D01*
X136565700Y-131660900D02*
X140868400Y-135963600D01*
X117184924Y-131668520D02*
X136558080Y-131668520D01*
X109105700Y-132816600D02*
X109730700Y-132816600D01*
X136558080Y-131668520D02*
X136565700Y-131660900D01*
X116052084Y-132801360D02*
X117184924Y-131668520D01*
X109730700Y-132816600D02*
X109745940Y-132801360D01*
X117002560Y-130799840D02*
X141406940Y-130799840D01*
X141442500Y-130835400D02*
X146570700Y-135963600D01*
X112953800Y-131551680D02*
X116250720Y-131551680D01*
X141406940Y-130799840D02*
X141442500Y-130835400D01*
X116250720Y-131551680D02*
X117002560Y-130799840D01*
X109735780Y-130307080D02*
X116484400Y-130307080D01*
X109730700Y-130302000D02*
X109735780Y-130307080D01*
X116484400Y-130307080D02*
X116763800Y-130027680D01*
X109105700Y-130302000D02*
X109730700Y-130302000D01*
X146339620Y-130027680D02*
X146344700Y-130022600D01*
X146344700Y-130022600D02*
X152285700Y-135963600D01*
X116763800Y-130027680D02*
X146339620Y-130027680D01*
X151056900Y-129032000D02*
X151063000Y-129025900D01*
X112928400Y-129032000D02*
X151056900Y-129032000D01*
X151063000Y-129025900D02*
X158000700Y-135963600D01*
X116550440Y-124338020D02*
X116824760Y-124063700D01*
X114924840Y-127711200D02*
X116550440Y-126085600D01*
X116824760Y-124063700D02*
X118732300Y-124063700D01*
X109730700Y-127723900D02*
X109743400Y-127711200D01*
X116550440Y-126085600D02*
X116550440Y-124338020D01*
X109743400Y-127711200D02*
X114924840Y-127711200D01*
X109105700Y-127723900D02*
X109730700Y-127723900D01*
X113558480Y-126446280D02*
X114818160Y-126446280D01*
X114818160Y-126446280D02*
X115697000Y-125567440D01*
X122900500Y-122542300D02*
X124434600Y-124076400D01*
X113553400Y-126441200D02*
X113558480Y-126446280D01*
X115697000Y-125567440D02*
X115697000Y-124190183D01*
X117344883Y-122542300D02*
X117535960Y-122542300D01*
X115697000Y-124190183D02*
X117344883Y-122542300D01*
X112928400Y-126441200D02*
X113553400Y-126441200D01*
X117535960Y-122542300D02*
X122900500Y-122542300D01*
X127663000Y-121577100D02*
X130162300Y-124076400D01*
X113591500Y-122694700D02*
X113604200Y-122682000D01*
X112966500Y-122694700D02*
X113591500Y-122694700D01*
X116131340Y-122682000D02*
X117236240Y-121577100D01*
X117236240Y-121577100D02*
X127663000Y-121577100D01*
X113604200Y-122682000D02*
X116131340Y-122682000D01*
X109781500Y-121412000D02*
X109842460Y-121472960D01*
X135877300Y-124076400D02*
X133466900Y-121666000D01*
X132384800Y-120599200D02*
X116956840Y-120599200D01*
X133466900Y-121666000D02*
X133451600Y-121666000D01*
X133451600Y-121666000D02*
X132384800Y-120599200D01*
X109156500Y-121412000D02*
X109781500Y-121412000D01*
X116956840Y-120599200D02*
X116083080Y-121472960D01*
X109842460Y-121472960D02*
X116083080Y-121472960D01*
X137477500Y-120726200D02*
X137480100Y-120726200D01*
X113591500Y-120180100D02*
X116288820Y-120180100D01*
X137480100Y-120726200D02*
X140830300Y-124076400D01*
X112966500Y-120180100D02*
X113591500Y-120180100D01*
X116669820Y-119799100D02*
X136550400Y-119799100D01*
X116288820Y-120180100D02*
X116669820Y-119799100D01*
X136550400Y-119799100D02*
X137477500Y-120726200D01*
X113591500Y-120180100D02*
X113604200Y-120192800D01*
X109806900Y-118859300D02*
X109829760Y-118882160D01*
X141465300Y-119011700D02*
X115999260Y-119011700D01*
X109829760Y-118882160D02*
X115869720Y-118882160D01*
X115869720Y-118882160D02*
X115999260Y-119011700D01*
X142191800Y-119722900D02*
X146545300Y-124076400D01*
X109181900Y-118859300D02*
X109806900Y-118859300D01*
X115999260Y-119011700D02*
X115996720Y-119009160D01*
X142191800Y-119722900D02*
X142176500Y-119722900D01*
X142176500Y-119722900D02*
X141465300Y-119011700D01*
X115798600Y-117576600D02*
X113553400Y-117576600D01*
X142532100Y-118237000D02*
X146126200Y-121831100D01*
X150927700Y-121831100D02*
X152273000Y-123176400D01*
X116459000Y-118237000D02*
X115798600Y-117576600D01*
X152273000Y-123176400D02*
X152273000Y-124076400D01*
X113553400Y-117576600D02*
X112928400Y-117576600D01*
X142532100Y-118237000D02*
X116459000Y-118237000D01*
X146126200Y-121831100D02*
X150927700Y-121831100D01*
X155626700Y-120815100D02*
X146812220Y-120815100D01*
X113191824Y-116301520D02*
X113174044Y-116319300D01*
X113174044Y-116319300D02*
X109156500Y-116319300D01*
X143526110Y-117528990D02*
X117112430Y-117528990D01*
X117112430Y-117528990D02*
X115884960Y-116301520D01*
X115884960Y-116301520D02*
X113191824Y-116301520D01*
X146812220Y-120815100D02*
X143526110Y-117528990D01*
X157988000Y-123176400D02*
X155626700Y-120815100D01*
X157988000Y-124076400D02*
X157988000Y-123176400D01*
X115039080Y-115006120D02*
X117246400Y-112798800D01*
X112928400Y-115023900D02*
X113553400Y-115023900D01*
X113571180Y-115006120D02*
X115039080Y-115006120D01*
X117246400Y-112798800D02*
X118732300Y-112798800D01*
X113553400Y-115023900D02*
X113571180Y-115006120D01*
X109733240Y-113781840D02*
X114797840Y-113781840D01*
X109105700Y-113779300D02*
X109730700Y-113779300D01*
X114797840Y-113781840D02*
X117454680Y-111125000D01*
X109730700Y-113779300D02*
X109733240Y-113781840D01*
X122773500Y-111125000D02*
X124447300Y-112798800D01*
X117454680Y-111125000D02*
X122773500Y-111125000D01*
X113540700Y-112483900D02*
X113548320Y-112491520D01*
X112915700Y-112483900D02*
X113540700Y-112483900D01*
X114815620Y-112491520D02*
X117109240Y-110197900D01*
X113548320Y-112491520D02*
X114815620Y-112491520D01*
X117109240Y-110197900D02*
X127561400Y-110197900D01*
X127561400Y-110197900D02*
X130162300Y-112798800D01*
X132438200Y-109334300D02*
X135890000Y-112786100D01*
X109766200Y-111252000D02*
X109771280Y-111246920D01*
X116601240Y-109334300D02*
X132438200Y-109334300D01*
X109771280Y-111246920D02*
X114688620Y-111246920D01*
X114688620Y-111246920D02*
X116601240Y-109334300D01*
X109141200Y-111252000D02*
X109766200Y-111252000D01*
X168158160Y-77226160D02*
X159806640Y-77226160D01*
D19*
X105161080Y-85506560D02*
X102849680Y-85506560D01*
X106492040Y-101250141D02*
X106492040Y-86837520D01*
D18*
X126034800Y-68920360D02*
X117530880Y-68920360D01*
X108874560Y-68762880D02*
X108299560Y-68762880D01*
X108279240Y-68742560D02*
X101650800Y-68742560D01*
X108981240Y-68869560D02*
X108874560Y-68762880D01*
X134579360Y-77083920D02*
X134523480Y-77139800D01*
X134868920Y-85328760D02*
X126131320Y-85328760D01*
D19*
X105418281Y-102323900D02*
X106492040Y-101250141D01*
D18*
X100675440Y-77952600D02*
X100675440Y-78211680D01*
X151287480Y-68905120D02*
X151282400Y-68900040D01*
X159740600Y-68955920D02*
X159689800Y-68905120D01*
X151333200Y-77155040D02*
X142920720Y-77155040D01*
X109042200Y-85338920D02*
X109021880Y-85318600D01*
D19*
X102849680Y-85506560D02*
X100675440Y-83332320D01*
D18*
X125546160Y-85338920D02*
X117541040Y-85338920D01*
X134523480Y-77139800D02*
X126085600Y-77139800D01*
X126080520Y-77144880D02*
X117581680Y-77144880D01*
X142920720Y-77155040D02*
X142849600Y-77083920D01*
X159806640Y-77226160D02*
X159720280Y-77139800D01*
X126131320Y-85328760D02*
X126121160Y-85338920D01*
X109021880Y-85318600D02*
X108446880Y-85318600D01*
X108446880Y-85318600D02*
X108441800Y-85313520D01*
D19*
X100675440Y-83332320D02*
X100675440Y-78211680D01*
D18*
X117480080Y-68869560D02*
X108981240Y-68869560D01*
D19*
X104216200Y-102323900D02*
X105418281Y-102323900D01*
D18*
X142788640Y-68831400D02*
X134526080Y-68831400D01*
X151348440Y-77139800D02*
X151333200Y-77155040D01*
X159689800Y-68905120D02*
X151287480Y-68905120D01*
X126085600Y-77139800D02*
X126080520Y-77144880D01*
X108899960Y-76977240D02*
X101650800Y-76977240D01*
X108299560Y-68762880D02*
X108279240Y-68742560D01*
X151282400Y-68900040D02*
X142857280Y-68900040D01*
X142857280Y-68900040D02*
X142788640Y-68831400D01*
X168173400Y-68955920D02*
X159740600Y-68955920D01*
X108441800Y-85313520D02*
X105354120Y-85313520D01*
X142849600Y-77083920D02*
X134579360Y-77083920D01*
D19*
X100675440Y-78211680D02*
X100675440Y-69717920D01*
D18*
X117581680Y-77144880D02*
X117525800Y-77089000D01*
X109011720Y-77089000D02*
X108899960Y-76977240D01*
X105354120Y-85313520D02*
X105161080Y-85506560D01*
X117530880Y-68920360D02*
X117480080Y-68869560D01*
X159720280Y-77139800D02*
X151348440Y-77139800D01*
X126121160Y-85338920D02*
X125546160Y-85338920D01*
X126050040Y-68905120D02*
X126034800Y-68920360D01*
X117541040Y-85338920D02*
X109042200Y-85338920D01*
X134526080Y-68831400D02*
X134452360Y-68905120D01*
X101650800Y-68742560D02*
X100675440Y-69717920D01*
D19*
X106492040Y-86837520D02*
X105161080Y-85506560D01*
D18*
X134452360Y-68905120D02*
X126050040Y-68905120D01*
X101650800Y-76977240D02*
X100675440Y-77952600D01*
X117525800Y-77089000D02*
X109011720Y-77089000D01*
X106463300Y-111252000D02*
X107391200Y-111252000D01*
X106454699Y-111243399D02*
X106463300Y-111252000D01*
D19*
X101676200Y-112483900D02*
X102916701Y-111243399D01*
D20*
X102916701Y-111243399D02*
X106454699Y-111243399D01*
D21*
X111165700Y-112483900D02*
X104216200Y-112483900D01*
D18*
X106726601Y-113783399D02*
X105845899Y-113783399D01*
D19*
X101676200Y-115023900D02*
X102916701Y-113783399D01*
D20*
X102916701Y-113783399D02*
X105845899Y-113783399D01*
D18*
X107355700Y-113779300D02*
X106730700Y-113779300D01*
X106730700Y-113779300D02*
X106726601Y-113783399D01*
D21*
X111178400Y-115023900D02*
X105418281Y-115023900D01*
D19*
X104216200Y-115023900D02*
X105418281Y-115023900D01*
D18*
X105443681Y-114998500D02*
X105418281Y-115023900D01*
X105722998Y-116319300D02*
X107406500Y-116319300D01*
D19*
X101676200Y-117563900D02*
X102916701Y-116323399D01*
D18*
X105718899Y-116323399D02*
X105722998Y-116319300D01*
D20*
X102916701Y-116323399D02*
X105718899Y-116323399D01*
D19*
X104216200Y-117563900D02*
X105418281Y-117563900D01*
D21*
X110553400Y-117576600D02*
X110540700Y-117563900D01*
X111178400Y-117576600D02*
X110553400Y-117576600D01*
X110540700Y-117563900D02*
X105418281Y-117563900D01*
D18*
X107431900Y-118859300D02*
X105570598Y-118859300D01*
D19*
X101676200Y-120103900D02*
X102526199Y-119253901D01*
D20*
X102526199Y-119253901D02*
X102551599Y-119253901D01*
D18*
X105570598Y-118859300D02*
X105566499Y-118863399D01*
D20*
X102942101Y-118863399D02*
X105566499Y-118863399D01*
X102551599Y-119253901D02*
X102942101Y-118863399D01*
D21*
X110515300Y-120103900D02*
X105418281Y-120103900D01*
X111216500Y-120180100D02*
X110591500Y-120180100D01*
D19*
X104216200Y-120103900D02*
X105418281Y-120103900D01*
D21*
X110591500Y-120180100D02*
X110515300Y-120103900D01*
D18*
X106721191Y-121472309D02*
X105330609Y-121472309D01*
X107406500Y-121412000D02*
X106781500Y-121412000D01*
D20*
X102916701Y-121403399D02*
X105261699Y-121403399D01*
D18*
X106781500Y-121412000D02*
X106721191Y-121472309D01*
D19*
X101676200Y-122643900D02*
X102916701Y-121403399D01*
D18*
X105330609Y-121472309D02*
X105261699Y-121403399D01*
D21*
X111216500Y-122694700D02*
X104267000Y-122694700D01*
X104267000Y-122694700D02*
X104216200Y-122643900D01*
D19*
X101676200Y-127723900D02*
X102975699Y-126424401D01*
D18*
X110536601Y-126424401D02*
X105617299Y-126424401D01*
X110553400Y-126441200D02*
X110536601Y-126424401D01*
X111178400Y-126441200D02*
X110553400Y-126441200D01*
D20*
X102975699Y-126424401D02*
X105617299Y-126424401D01*
D21*
X107355700Y-127723900D02*
X104216200Y-127723900D01*
D20*
X102916701Y-129023399D02*
X105960199Y-129023399D01*
D18*
X111178400Y-129032000D02*
X110553400Y-129032000D01*
X110544799Y-129023399D02*
X105960199Y-129023399D01*
D19*
X101676200Y-130263900D02*
X102916701Y-129023399D01*
D18*
X110553400Y-129032000D02*
X110544799Y-129023399D01*
D21*
X107365800Y-130314700D02*
X103913200Y-130314700D01*
D20*
X104318200Y-130365900D02*
X104216200Y-130263900D01*
D18*
X111203800Y-131551680D02*
X105895718Y-131551680D01*
D20*
X102916701Y-131563399D02*
X105883999Y-131563399D01*
D19*
X101676200Y-132803900D02*
X102916701Y-131563399D01*
D18*
X105895718Y-131551680D02*
X105883999Y-131563399D01*
D21*
X107175300Y-132816600D02*
X103842700Y-132816600D01*
D20*
X104438200Y-133025900D02*
X104216200Y-132803900D01*
D18*
X110578800Y-134112000D02*
X110570199Y-134103399D01*
D19*
X101676200Y-135343900D02*
X102916701Y-134103399D01*
D20*
X102916701Y-134103399D02*
X106112599Y-134103399D01*
D18*
X110570199Y-134103399D02*
X106112599Y-134103399D01*
X111203800Y-134112000D02*
X110578800Y-134112000D01*
D21*
X106743400Y-135343900D02*
X105418281Y-135343900D01*
D19*
X105418281Y-135343900D02*
X104216200Y-135343900D01*
D21*
X107368400Y-135343900D02*
X106743400Y-135343900D01*
D18*
X106017060Y-136664700D02*
X105995759Y-136643399D01*
D19*
X101676200Y-137883900D02*
X102916701Y-136643399D01*
D18*
X102916701Y-136643399D02*
X105287099Y-136643399D01*
D20*
X105287099Y-136643399D02*
X105995759Y-136643399D01*
D18*
X111114900Y-136664700D02*
X106017060Y-136664700D01*
D21*
X104216200Y-137883900D02*
X107228700Y-137883900D01*
X107228700Y-137883900D02*
X107241400Y-137896600D01*
D19*
X165188900Y-89623900D02*
X165188900Y-87757900D01*
X168341040Y-84605760D02*
X168341040Y-80284320D01*
X165188900Y-87757900D02*
X168341040Y-84605760D01*
D18*
X159842200Y-80319880D02*
X159842200Y-90244641D01*
X159842200Y-90244641D02*
X160461960Y-90864401D01*
D20*
X166488399Y-90864401D02*
X160461960Y-90864401D01*
D19*
X167728900Y-89623900D02*
X166488399Y-90864401D01*
D21*
X151231600Y-91262200D02*
X151231600Y-80360520D01*
X165188900Y-92163900D02*
X152133300Y-92163900D01*
X152133300Y-92163900D02*
X151231600Y-91262200D01*
D20*
X166488399Y-93404401D02*
X153183301Y-93404401D01*
D18*
X142788640Y-92537280D02*
X142788640Y-80375760D01*
X153183301Y-93404401D02*
X143655761Y-93404401D01*
D19*
X167728900Y-92163900D02*
X166488399Y-93404401D01*
D18*
X143655761Y-93404401D02*
X142788640Y-92537280D01*
D21*
X137459720Y-92014040D02*
X137459720Y-80340200D01*
X140149580Y-94703900D02*
X137459720Y-92014040D01*
X151917400Y-94703900D02*
X140149580Y-94703900D01*
D19*
X165188900Y-94703900D02*
X151917400Y-94703900D01*
D20*
X166429401Y-96003399D02*
X149876799Y-96003399D01*
D18*
X126730760Y-94259400D02*
X126730760Y-89722960D01*
X149876799Y-96003399D02*
X128474759Y-96003399D01*
D19*
X167728900Y-94703900D02*
X166429401Y-96003399D01*
D18*
X128474759Y-96003399D02*
X126730760Y-94259400D01*
D19*
X165188900Y-97243900D02*
X163986819Y-97243900D01*
X118196360Y-95818960D02*
X118196360Y-89738200D01*
D18*
X163986819Y-97243900D02*
X163974119Y-97256600D01*
D19*
X163974119Y-97256600D02*
X119634000Y-97256600D01*
X119634000Y-97256600D02*
X118196360Y-95818960D01*
D20*
X166488399Y-98484401D02*
X146833301Y-98484401D01*
D18*
X116452361Y-98484401D02*
X112476280Y-94508320D01*
X146833301Y-98484401D02*
X116452361Y-98484401D01*
D19*
X167728900Y-97243900D02*
X166488399Y-98484401D01*
D18*
X112476280Y-94508320D02*
X112476280Y-89687400D01*
D21*
X162443160Y-99796600D02*
X160568640Y-99796600D01*
X160568640Y-99796600D02*
X159852360Y-100512880D01*
D18*
X163986819Y-99783900D02*
X163961419Y-99758500D01*
D21*
X162455860Y-99783900D02*
X162443160Y-99796600D01*
X163986819Y-99783900D02*
X162455860Y-99783900D01*
D19*
X165188900Y-99783900D02*
X163986819Y-99783900D01*
D18*
X154955240Y-102057200D02*
X153911300Y-101013260D01*
D20*
X163862039Y-101024401D02*
X162829240Y-102057200D01*
D19*
X167728900Y-99783900D02*
X166488399Y-101024401D01*
D20*
X166488399Y-101024401D02*
X163862039Y-101024401D01*
D18*
X162829240Y-102057200D02*
X154955240Y-102057200D01*
D19*
X165188900Y-104863900D02*
X164132260Y-104863900D01*
D21*
X164132260Y-104863900D02*
X152971500Y-104863900D01*
X151394160Y-103286560D02*
X151394160Y-101066600D01*
X152971500Y-104863900D02*
X151394160Y-103286560D01*
D20*
X166488399Y-106104401D02*
X150457881Y-106104401D01*
D19*
X167728900Y-104863900D02*
X166488399Y-106104401D01*
D21*
X149174200Y-104820720D02*
X149174200Y-101178360D01*
D20*
X150457881Y-106104401D02*
X149174200Y-104820720D01*
D19*
X147932140Y-107403900D02*
X146441160Y-105912920D01*
X165188900Y-107403900D02*
X147932140Y-107403900D01*
X146441160Y-105912920D02*
X146441160Y-101122480D01*
D18*
X144927320Y-101686360D02*
X144927320Y-105759566D01*
D20*
X166488399Y-108644401D02*
X148117560Y-108644401D01*
D18*
X124602240Y-99857560D02*
X143098520Y-99857560D01*
D19*
X167728900Y-107403900D02*
X166488399Y-108644401D01*
D18*
X147812155Y-108644401D02*
X148117560Y-108644401D01*
X144927320Y-105759566D02*
X147812155Y-108644401D01*
X143098520Y-99857560D02*
X144927320Y-101686360D01*
X163986819Y-109943900D02*
X163974119Y-109931200D01*
D21*
X117401275Y-101036120D02*
X117883875Y-101518720D01*
X141970760Y-101518720D02*
X144092310Y-103640270D01*
X144092310Y-106419030D02*
X147604480Y-109931200D01*
D19*
X163974119Y-109931200D02*
X147726400Y-109931200D01*
D21*
X144092310Y-103640270D02*
X144092310Y-106419030D01*
X117883875Y-101518720D02*
X141970760Y-101518720D01*
D18*
X165188900Y-109943900D02*
X163986819Y-109943900D01*
D21*
X147604480Y-109931200D02*
X147726400Y-109931200D01*
X116144040Y-101036120D02*
X117401275Y-101036120D01*
X109651800Y-99603560D02*
X112806480Y-102758240D01*
X109651800Y-94350840D02*
X109651800Y-99603560D01*
X142702280Y-104703880D02*
X142702280Y-106447172D01*
D20*
X166488399Y-111184401D02*
X147416520Y-111184401D01*
D21*
X140756640Y-102758240D02*
X142702280Y-104703880D01*
D19*
X167728900Y-109943900D02*
X166488399Y-111184401D01*
D21*
X147416520Y-111161412D02*
X147416520Y-111184401D01*
X142702280Y-106447172D02*
X147416520Y-111161412D01*
X112806480Y-102758240D02*
X140756640Y-102758240D01*
X147355532Y-112483900D02*
X140624560Y-105752928D01*
D19*
X165188900Y-112483900D02*
X163786820Y-112483900D01*
D21*
X140624560Y-105752928D02*
X140624560Y-104714040D01*
X163786820Y-112483900D02*
X147355532Y-112483900D01*
D20*
X146957761Y-113724401D02*
X138196320Y-104962960D01*
D19*
X167728900Y-112483900D02*
X166488399Y-113724401D01*
D18*
X138196320Y-104962960D02*
X123129040Y-104962960D01*
X122361960Y-104195880D02*
X122361960Y-104228240D01*
D20*
X166488399Y-113724401D02*
X146957761Y-113724401D01*
D18*
X123129040Y-104962960D02*
X122361960Y-104228240D01*
D21*
X163986819Y-115023900D02*
X146677380Y-115023900D01*
D19*
X165188900Y-115023900D02*
X163986819Y-115023900D01*
D21*
X146677380Y-115023900D02*
X138125200Y-106471720D01*
D19*
X163986819Y-115023900D02*
X163938559Y-115072160D01*
D21*
X114032650Y-105803050D02*
X114701320Y-106471720D01*
X112801400Y-104566720D02*
X114032650Y-105797970D01*
X114032650Y-105797970D02*
X114032650Y-105803050D01*
X114701320Y-106471720D02*
X138125200Y-106471720D01*
D20*
X166488399Y-116264401D02*
X145953480Y-116264401D01*
D21*
X108676440Y-106837480D02*
X109565439Y-107726479D01*
X137415558Y-107726479D02*
X145953480Y-116264401D01*
D19*
X167728900Y-115023900D02*
X166488399Y-116264401D01*
D20*
X145953480Y-116264401D02*
X145436301Y-116264401D01*
D21*
X109565439Y-107726479D02*
X137415558Y-107726479D01*
D18*
X168173400Y-67205920D02*
X165542020Y-67205920D01*
X165542020Y-67205920D02*
X165468300Y-67132200D01*
X151282400Y-67150040D02*
X148635780Y-67150040D01*
X148635780Y-67150040D02*
X148628100Y-67142360D01*
X131841300Y-67155120D02*
X131803140Y-67116960D01*
X134452360Y-67155120D02*
X131841300Y-67155120D01*
X114800440Y-67119560D02*
X114777520Y-67096640D01*
X117480080Y-67119560D02*
X114800440Y-67119560D01*
X165615680Y-75476160D02*
X165496240Y-75356720D01*
X168158160Y-75476160D02*
X165615680Y-75476160D01*
X151333200Y-75405040D02*
X148732300Y-75405040D01*
X148732300Y-75405040D02*
X148673820Y-75346560D01*
X134523480Y-75389800D02*
X131963220Y-75389800D01*
X131963220Y-75389800D02*
X131914900Y-75341480D01*
X117525800Y-75339000D02*
X114838540Y-75339000D01*
X114838540Y-75339000D02*
X114790220Y-75290680D01*
X134868920Y-83578760D02*
X131782760Y-83578760D01*
X131782760Y-83578760D02*
X131765040Y-83596480D01*
X117541040Y-83588920D02*
X114863820Y-83588920D01*
X114863820Y-83588920D02*
X114820700Y-83632040D01*
X159689800Y-67155120D02*
X157050800Y-67155120D01*
X157050800Y-67155120D02*
X157048200Y-67152520D01*
X140276580Y-67081400D02*
X140210540Y-67147440D01*
X142788640Y-67081400D02*
X140276580Y-67081400D01*
X126034800Y-67170360D02*
X123240860Y-67170360D01*
X123240860Y-67170360D02*
X123156980Y-67086480D01*
X108874560Y-67012880D02*
X106448800Y-67012880D01*
X106448800Y-67012880D02*
X106385360Y-67076320D01*
X157137160Y-75389800D02*
X157104080Y-75356720D01*
X159720280Y-75389800D02*
X157137160Y-75389800D01*
X142849600Y-75333920D02*
X140319700Y-75333920D01*
X140319700Y-75333920D02*
X140307060Y-75346560D01*
X123291660Y-75394880D02*
X123228100Y-75331320D01*
X126080520Y-75394880D02*
X123291660Y-75394880D01*
X106431020Y-75227240D02*
X106382820Y-75275440D01*
X108899960Y-75227240D02*
X106431020Y-75227240D01*
X126121160Y-83588920D02*
X123433780Y-83588920D01*
X123433780Y-83588920D02*
X123390660Y-83632040D01*
X106314180Y-83568600D02*
X106296460Y-83586320D01*
X109021880Y-83568600D02*
X106314180Y-83568600D01*
M02*
