M48
; DRILL file {KiCad (6.0.2)} date Thu Mar 31 21:12:08 2022
; FORMAT={-:-/ absolute / inch / decimal}
; #@! TF.CreationDate,2022-03-31T21:12:08+02:00
; #@! TF.GenerationSoftware,Kicad,Pcbnew,(6.0.2)
; #@! TF.FileFunction,Plated,1,2,PTH
FMAT,2
INCH
; #@! TA.AperFunction,Plated,PTH,ViaDrill
T1C0.0220
; #@! TA.AperFunction,Plated,PTH,ComponentDrill
T2C0.0315
; #@! TA.AperFunction,Plated,PTH,ComponentDrill
T3C0.0394
; #@! TA.AperFunction,Plated,PTH,ComponentDrill
T4C0.1260
%
G90
G05
T1
X4.2786Y-4.2062
X4.317Y-3.7146
X4.4282Y-3.531
X4.441Y-4.1168
X4.5726Y-3.9778
X4.6534Y-3.533
X4.8174Y-4.1035
X4.9102Y-3.9314
X4.9894Y-3.5324
X5.4118Y-3.163
X5.5364Y-4.1226
X5.6216Y-3.1644
X5.7654Y-3.9812
X5.873Y-3.9834
X5.954Y-3.1638
X5.9604Y-3.979
X6.0595Y-3.9769
X6.293Y-3.1622
X6.2934Y-3.9572
X6.6276Y-3.1608
T2
X4.0592Y-3.0908
X4.0592Y-3.1908
X4.0592Y-3.2908
X4.0626Y-2.7636
X4.0626Y-2.8636
X4.0626Y-2.9636
X4.0627Y-2.4408
X4.0627Y-2.5408
X4.0627Y-2.6408
X4.1849Y-3.0908
X4.1849Y-3.1908
X4.1849Y-3.2908
X4.1883Y-2.7636
X4.1883Y-2.8636
X4.1883Y-2.9636
X4.1884Y-2.4408
X4.1884Y-2.5408
X4.1884Y-2.6408
X4.3931Y-2.4416
X4.3931Y-2.5416
X4.3931Y-2.6416
X4.3936Y-2.7642
X4.3936Y-2.8642
X4.3936Y-2.9642
X4.3948Y-3.0926
X4.3948Y-3.1926
X4.3948Y-3.2926
X4.5188Y-2.4416
X4.5188Y-2.5416
X4.5188Y-2.6416
X4.5193Y-2.7642
X4.5193Y-2.8642
X4.5193Y-2.9642
X4.5205Y-3.0926
X4.5205Y-3.1926
X4.5205Y-3.2926
X4.723Y-2.4412
X4.723Y-2.5412
X4.723Y-2.6412
X4.7258Y-2.7658
X4.7258Y-2.8658
X4.7258Y-2.9658
X4.7322Y-3.0926
X4.7322Y-3.1926
X4.7322Y-3.2926
X4.8487Y-2.4412
X4.8487Y-2.5412
X4.8487Y-2.6412
X4.8515Y-2.7658
X4.8515Y-2.8658
X4.8515Y-2.9658
X4.8579Y-3.0926
X4.8579Y-3.1926
X4.8579Y-3.2926
X5.0619Y-3.0912
X5.0619Y-3.1912
X5.0619Y-3.2912
X5.0634Y-2.4424
X5.0634Y-2.5424
X5.0634Y-2.6424
X5.0678Y-2.7662
X5.0678Y-2.8662
X5.0678Y-2.9662
X5.1876Y-3.0912
X5.1876Y-3.1912
X5.1876Y-3.2912
X5.1891Y-2.4424
X5.1891Y-2.5424
X5.1891Y-2.6424
X5.1935Y-2.7662
X5.1935Y-2.8662
X5.1935Y-2.9662
X5.3944Y-2.4436
X5.3944Y-2.5436
X5.3944Y-2.6436
X5.3982Y-2.7664
X5.3982Y-2.8664
X5.3982Y-2.9664
X5.5201Y-2.4436
X5.5201Y-2.5436
X5.5201Y-2.6436
X5.5239Y-2.7664
X5.5239Y-2.8664
X5.5239Y-2.9664
X5.7258Y-2.4434
X5.7258Y-2.5434
X5.7258Y-2.6434
X5.7276Y-2.7664
X5.7276Y-2.8664
X5.7276Y-2.9664
X5.8515Y-2.4434
X5.8515Y-2.5434
X5.8515Y-2.6434
X5.8533Y-2.7664
X5.8533Y-2.8664
X5.8533Y-2.9664
X6.0573Y-2.4438
X6.0573Y-2.5438
X6.0573Y-2.6438
X6.0595Y-2.7668
X6.0595Y-2.8668
X6.0595Y-2.9668
X6.183Y-2.4438
X6.183Y-2.5438
X6.183Y-2.6438
X6.1852Y-2.7668
X6.1852Y-2.8668
X6.1852Y-2.9668
X6.3888Y-2.443
X6.3888Y-2.543
X6.3888Y-2.643
X6.3899Y-2.7668
X6.3899Y-2.8668
X6.3899Y-2.9668
X6.5145Y-2.443
X6.5145Y-2.543
X6.5145Y-2.643
X6.5156Y-2.7668
X6.5156Y-2.8668
X6.5156Y-2.9668
T3
X4.003Y-3.5285
X4.003Y-3.6285
X4.003Y-3.7285
X4.003Y-3.8285
X4.003Y-3.9285
X4.003Y-4.0285
X4.003Y-4.1285
X4.003Y-4.2285
X4.003Y-4.3285
X4.003Y-4.4285
X4.003Y-4.5285
X4.003Y-4.6285
X4.003Y-4.7285
X4.003Y-4.8285
X4.003Y-4.9285
X4.003Y-5.0285
X4.003Y-5.1285
X4.003Y-5.2285
X4.003Y-5.3285
X4.003Y-5.4285
X4.103Y-3.5285
X4.103Y-3.6285
X4.103Y-3.7285
X4.103Y-3.8285
X4.103Y-3.9285
X4.103Y-4.0285
X4.103Y-4.1285
X4.103Y-4.2285
X4.103Y-4.3285
X4.103Y-4.4285
X4.103Y-4.5285
X4.103Y-4.6285
X4.103Y-4.7285
X4.103Y-4.8285
X4.103Y-4.9285
X4.103Y-5.0285
X4.103Y-5.1285
X4.103Y-5.2285
X4.103Y-5.3285
X4.103Y-5.4285
X6.5035Y-3.5285
X6.5035Y-3.6285
X6.5035Y-3.7285
X6.5035Y-3.8285
X6.5035Y-3.9285
X6.5035Y-4.0285
X6.5035Y-4.1285
X6.5035Y-4.2285
X6.5035Y-4.3285
X6.5035Y-4.4285
X6.5035Y-4.5285
X6.5035Y-4.6285
X6.5035Y-4.7285
X6.5035Y-4.8285
X6.5035Y-4.9285
X6.5035Y-5.0285
X6.5035Y-5.1285
X6.5035Y-5.2285
X6.5035Y-5.3285
X6.5035Y-5.4285
X6.6035Y-3.5285
X6.6035Y-3.6285
X6.6035Y-3.7285
X6.6035Y-3.8285
X6.6035Y-3.9285
X6.6035Y-4.0285
X6.6035Y-4.1285
X6.6035Y-4.2285
X6.6035Y-4.3285
X6.6035Y-4.4285
X6.6035Y-4.5285
X6.6035Y-4.6285
X6.6035Y-4.7285
X6.6035Y-4.8285
X6.6035Y-4.9285
X6.6035Y-5.0285
X6.6035Y-5.1285
X6.6035Y-5.2285
X6.6035Y-5.3285
X6.6035Y-5.4285
T4
X4.065Y-2.2195
X4.0685Y-5.7595
X6.545Y-2.22
X6.546Y-5.765
T0
M30
