%TF.GenerationSoftware,KiCad,Pcbnew,(6.0.1)*%
%TF.CreationDate,2022-04-05T15:29:15+02:00*%
%TF.ProjectId,ba_nano_version_2,62615f6e-616e-46f5-9f76-657273696f6e,rev?*%
%TF.SameCoordinates,Original*%
%TF.FileFunction,Copper,L2,Bot*%
%TF.FilePolarity,Positive*%
%FSLAX46Y46*%
G04 Gerber Fmt 4.6, Leading zero omitted, Abs format (unit mm)*
G04 Created by KiCad (PCBNEW (6.0.1)) date 2022-04-05 15:29:15*
%MOMM*%
%LPD*%
G01*
G04 APERTURE LIST*
G04 Aperture macros list*
%AMRoundRect*
0 Rectangle with rounded corners*
0 $1 Rounding radius*
0 $2 $3 $4 $5 $6 $7 $8 $9 X,Y pos of 4 corners*
0 Add a 4 corners polygon primitive as box body*
4,1,4,$2,$3,$4,$5,$6,$7,$8,$9,$2,$3,0*
0 Add four circle primitives for the rounded corners*
1,1,$1+$1,$2,$3*
1,1,$1+$1,$4,$5*
1,1,$1+$1,$6,$7*
1,1,$1+$1,$8,$9*
0 Add four rect primitives between the rounded corners*
20,1,$1+$1,$2,$3,$4,$5,0*
20,1,$1+$1,$4,$5,$6,$7,0*
20,1,$1+$1,$6,$7,$8,$9,0*
20,1,$1+$1,$8,$9,$2,$3,0*%
G04 Aperture macros list end*
%TA.AperFunction,Profile*%
%ADD10C,0.200000*%
%TD*%
%TA.AperFunction,ComponentPad*%
%ADD11RoundRect,0.317500X0.955000X-0.317500X0.955000X0.317500X-0.955000X0.317500X-0.955000X-0.317500X0*%
%TD*%
%TA.AperFunction,ComponentPad*%
%ADD12C,6.400000*%
%TD*%
%TA.AperFunction,ComponentPad*%
%ADD13C,1.524000*%
%TD*%
%TA.AperFunction,ComponentPad*%
%ADD14R,1.500000X1.500000*%
%TD*%
%TA.AperFunction,ComponentPad*%
%ADD15C,1.500000*%
%TD*%
%TA.AperFunction,ComponentPad*%
%ADD16R,1.700000X1.700000*%
%TD*%
%TA.AperFunction,ComponentPad*%
%ADD17O,1.700000X1.700000*%
%TD*%
%TA.AperFunction,ViaPad*%
%ADD18C,1.778000*%
%TD*%
%TA.AperFunction,Conductor*%
%ADD19C,0.508000*%
%TD*%
%TA.AperFunction,Conductor*%
%ADD20C,0.762000*%
%TD*%
G04 APERTURE END LIST*
D10*
X169658181Y-52980345D02*
X169658181Y-149982945D01*
X99655781Y-149982945D02*
X99655781Y-52980345D01*
X169658181Y-149982945D02*
X99655781Y-149982945D01*
X99655781Y-52980345D02*
X169658181Y-52980345D01*
D11*
%TO.P,SW20,1,A*%
%TO.N,Net-(R40-Pad2)*%
X105863420Y-77759560D03*
%TO.P,SW20,2,B*%
%TO.N,/GPIO_0_37*%
X105863420Y-75219560D03*
%TO.P,SW20,3,C*%
%TO.N,GND*%
X105863420Y-72679560D03*
%TO.P,SW20,4,A*%
%TO.N,Net-(R40-Pad2)*%
X102670640Y-77759560D03*
%TO.P,SW20,5,B*%
%TO.N,/GPIO_0_37*%
X102670640Y-75219560D03*
%TO.P,SW20,6,C*%
%TO.N,GND*%
X102670640Y-72679560D03*
%TD*%
%TO.P,SW14,1,A*%
%TO.N,Net-(R34-Pad2)*%
X157854680Y-77724000D03*
%TO.P,SW14,2,B*%
%TO.N,/GPIO_1_5*%
X157854680Y-75184000D03*
%TO.P,SW14,3,C*%
%TO.N,GND*%
X157854680Y-72644000D03*
%TO.P,SW14,4,A*%
%TO.N,Net-(R34-Pad2)*%
X154661900Y-77724000D03*
%TO.P,SW14,5,B*%
%TO.N,/GPIO_1_5*%
X154661900Y-75184000D03*
%TO.P,SW14,6,C*%
%TO.N,GND*%
X154661900Y-72644000D03*
%TD*%
D12*
%TO.P,H4,1*%
%TO.N,N/C*%
X166243000Y-56388000D03*
%TD*%
D13*
%TO.P,U1,1,D*%
%TO.N,Net-(R42-Pad2)*%
X139319000Y-116867000D03*
%TO.P,U1,2,DP*%
%TO.N,Net-(R44-Pad2)*%
X141859000Y-116867000D03*
%TO.P,U1,3,E*%
%TO.N,Net-(R46-Pad2)*%
X144399000Y-116867000D03*
%TO.P,U1,4,C*%
%TO.N,Net-(R48-Pad2)*%
X146939000Y-116867000D03*
%TO.P,U1,5,CA_DIG2*%
%TO.N,GND*%
X149479000Y-116867000D03*
%TO.P,U1,6,B*%
%TO.N,Net-(R49-Pad1)*%
X149479000Y-104367000D03*
%TO.P,U1,7,A*%
%TO.N,Net-(R47-Pad1)*%
X146939000Y-104367000D03*
%TO.P,U1,8,F*%
%TO.N,Net-(R45-Pad1)*%
X144399000Y-104367000D03*
%TO.P,U1,9,G*%
%TO.N,Net-(R43-Pad1)*%
X141859000Y-104367000D03*
%TO.P,U1,10,CA_D1*%
%TO.N,GND*%
X139319000Y-104367000D03*
%TD*%
D11*
%TO.P,SW19,1,A*%
%TO.N,Net-(R39-Pad2)*%
X114255580Y-77759560D03*
%TO.P,SW19,2,B*%
%TO.N,/GPIO_0_35*%
X114255580Y-75219560D03*
%TO.P,SW19,3,C*%
%TO.N,GND*%
X114255580Y-72679560D03*
%TO.P,SW19,4,A*%
%TO.N,Net-(R39-Pad2)*%
X111062800Y-77759560D03*
%TO.P,SW19,5,B*%
%TO.N,/GPIO_0_35*%
X111062800Y-75219560D03*
%TO.P,SW19,6,C*%
%TO.N,GND*%
X111062800Y-72679560D03*
%TD*%
%TO.P,SW10,1,A*%
%TO.N,Net-(R30-Pad2)*%
X122228640Y-68513960D03*
%TO.P,SW10,2,B*%
%TO.N,/GPIO_0_32*%
X122228640Y-65973960D03*
%TO.P,SW10,3,C*%
%TO.N,GND*%
X122228640Y-63433960D03*
%TO.P,SW10,4,A*%
%TO.N,Net-(R30-Pad2)*%
X119035860Y-68513960D03*
%TO.P,SW10,5,B*%
%TO.N,/GPIO_0_32*%
X119035860Y-65973960D03*
%TO.P,SW10,6,C*%
%TO.N,GND*%
X119035860Y-63433960D03*
%TD*%
D12*
%TO.P,H1,1*%
%TO.N,N/C*%
X103251000Y-146291300D03*
%TD*%
D14*
%TO.P,S1,1,COM_1*%
%TO.N,Net-(R52-Pad2)*%
X127635000Y-110109000D03*
D15*
%TO.P,S1,2,COM_2*%
X121135000Y-110109000D03*
%TO.P,S1,3,NO_1*%
%TO.N,/GPIO_0_26*%
X127635000Y-106109000D03*
%TO.P,S1,4,NO_2*%
X121135000Y-106109000D03*
%TD*%
D12*
%TO.P,H3,1*%
%TO.N,N/C*%
X103251000Y-56375300D03*
%TD*%
D11*
%TO.P,SW18,1,A*%
%TO.N,Net-(R38-Pad2)*%
X122228640Y-77759560D03*
%TO.P,SW18,2,B*%
%TO.N,/GPIO_0_33*%
X122228640Y-75219560D03*
%TO.P,SW18,3,C*%
%TO.N,GND*%
X122228640Y-72679560D03*
%TO.P,SW18,4,A*%
%TO.N,Net-(R38-Pad2)*%
X119035860Y-77759560D03*
%TO.P,SW18,5,B*%
%TO.N,/GPIO_0_33*%
X119035860Y-75219560D03*
%TO.P,SW18,6,C*%
%TO.N,GND*%
X119035860Y-72679560D03*
%TD*%
%TO.P,SW3,1,A*%
%TO.N,Net-(R23-Pad2)*%
X130874800Y-59369960D03*
%TO.P,SW3,2,B*%
%TO.N,/GPIO_0_38*%
X130874800Y-56829960D03*
%TO.P,SW3,3,C*%
%TO.N,GND*%
X130874800Y-54289960D03*
%TO.P,SW3,4,A*%
%TO.N,Net-(R23-Pad2)*%
X127682020Y-59369960D03*
%TO.P,SW3,5,B*%
%TO.N,/GPIO_0_38*%
X127682020Y-56829960D03*
%TO.P,SW3,6,C*%
%TO.N,GND*%
X127682020Y-54289960D03*
%TD*%
%TO.P,SW16,1,A*%
%TO.N,Net-(R36-Pad2)*%
X141304040Y-77759560D03*
%TO.P,SW16,2,B*%
%TO.N,/GPIO_1_9*%
X141304040Y-75219560D03*
%TO.P,SW16,3,C*%
%TO.N,GND*%
X141304040Y-72679560D03*
%TO.P,SW16,4,A*%
%TO.N,Net-(R36-Pad2)*%
X138111260Y-77759560D03*
%TO.P,SW16,5,B*%
%TO.N,/GPIO_1_9*%
X138111260Y-75219560D03*
%TO.P,SW16,6,C*%
%TO.N,GND*%
X138111260Y-72679560D03*
%TD*%
%TO.P,SW15,1,A*%
%TO.N,Net-(R35-Pad2)*%
X149670800Y-77759560D03*
%TO.P,SW15,2,B*%
%TO.N,/GPIO_1_7*%
X149670800Y-75219560D03*
%TO.P,SW15,3,C*%
%TO.N,GND*%
X149670800Y-72679560D03*
%TO.P,SW15,4,A*%
%TO.N,Net-(R35-Pad2)*%
X146478020Y-77759560D03*
%TO.P,SW15,5,B*%
%TO.N,/GPIO_1_7*%
X146478020Y-75219560D03*
%TO.P,SW15,6,C*%
%TO.N,GND*%
X146478020Y-72679560D03*
%TD*%
%TO.P,SW2,1,A*%
%TO.N,Net-(R22-Pad2)*%
X141207520Y-59369960D03*
%TO.P,SW2,2,B*%
%TO.N,/GPIO_1_0*%
X141207520Y-56829960D03*
%TO.P,SW2,3,C*%
%TO.N,GND*%
X141207520Y-54289960D03*
%TO.P,SW2,4,A*%
%TO.N,Net-(R22-Pad2)*%
X138014740Y-59369960D03*
%TO.P,SW2,5,B*%
%TO.N,/GPIO_1_0*%
X138014740Y-56829960D03*
%TO.P,SW2,6,C*%
%TO.N,GND*%
X138014740Y-54289960D03*
%TD*%
%TO.P,SW6,1,A*%
%TO.N,Net-(R26-Pad2)*%
X157798800Y-68478400D03*
%TO.P,SW6,2,B*%
%TO.N,/GPIO_1_4*%
X157798800Y-65938400D03*
%TO.P,SW6,3,C*%
%TO.N,GND*%
X157798800Y-63398400D03*
%TO.P,SW6,4,A*%
%TO.N,Net-(R26-Pad2)*%
X154606020Y-68478400D03*
%TO.P,SW6,5,B*%
%TO.N,/GPIO_1_4*%
X154606020Y-65938400D03*
%TO.P,SW6,6,C*%
%TO.N,GND*%
X154606020Y-63398400D03*
%TD*%
D12*
%TO.P,H2,1*%
%TO.N,N/C*%
X166268400Y-146291300D03*
%TD*%
D11*
%TO.P,SW11,1,A*%
%TO.N,Net-(R31-Pad2)*%
X114255580Y-68513960D03*
%TO.P,SW11,2,B*%
%TO.N,/GPIO_0_34*%
X114255580Y-65973960D03*
%TO.P,SW11,3,C*%
%TO.N,GND*%
X114255580Y-63433960D03*
%TO.P,SW11,4,A*%
%TO.N,Net-(R31-Pad2)*%
X111062800Y-68513960D03*
%TO.P,SW11,5,B*%
%TO.N,/GPIO_0_34*%
X111062800Y-65973960D03*
%TO.P,SW11,6,C*%
%TO.N,GND*%
X111062800Y-63433960D03*
%TD*%
%TO.P,SW5,1,A*%
%TO.N,Net-(R25-Pad2)*%
X166218900Y-68478400D03*
%TO.P,SW5,2,B*%
%TO.N,/GPIO_1_2*%
X166218900Y-65938400D03*
%TO.P,SW5,3,C*%
%TO.N,GND*%
X166218900Y-63398400D03*
%TO.P,SW5,4,A*%
%TO.N,Net-(R25-Pad2)*%
X163026120Y-68478400D03*
%TO.P,SW5,5,B*%
%TO.N,/GPIO_1_2*%
X163026120Y-65938400D03*
%TO.P,SW5,6,C*%
%TO.N,GND*%
X163026120Y-63398400D03*
%TD*%
%TO.P,SW1,1,A*%
%TO.N,Net-(R21-Pad2)*%
X149625080Y-59369960D03*
%TO.P,SW1,2,B*%
%TO.N,/GPIO_1_1*%
X149625080Y-56829960D03*
%TO.P,SW1,3,C*%
%TO.N,GND*%
X149625080Y-54289960D03*
%TO.P,SW1,4,A*%
%TO.N,Net-(R21-Pad2)*%
X146432300Y-59369960D03*
%TO.P,SW1,5,B*%
%TO.N,/GPIO_1_1*%
X146432300Y-56829960D03*
%TO.P,SW1,6,C*%
%TO.N,GND*%
X146432300Y-54289960D03*
%TD*%
%TO.P,SW4,1,A*%
%TO.N,Net-(R24-Pad2)*%
X122228640Y-59369960D03*
%TO.P,SW4,2,B*%
%TO.N,/GPIO_0_39*%
X122228640Y-56829960D03*
%TO.P,SW4,3,C*%
%TO.N,GND*%
X122228640Y-54289960D03*
%TO.P,SW4,4,A*%
%TO.N,Net-(R24-Pad2)*%
X119035860Y-59369960D03*
%TO.P,SW4,5,B*%
%TO.N,/GPIO_0_39*%
X119035860Y-56829960D03*
%TO.P,SW4,6,C*%
%TO.N,GND*%
X119035860Y-54289960D03*
%TD*%
%TO.P,SW7,1,A*%
%TO.N,Net-(R27-Pad2)*%
X149625080Y-68513960D03*
%TO.P,SW7,2,B*%
%TO.N,/GPIO_1_6*%
X149625080Y-65973960D03*
%TO.P,SW7,3,C*%
%TO.N,GND*%
X149625080Y-63433960D03*
%TO.P,SW7,4,A*%
%TO.N,Net-(R27-Pad2)*%
X146432300Y-68513960D03*
%TO.P,SW7,5,B*%
%TO.N,/GPIO_1_6*%
X146432300Y-65973960D03*
%TO.P,SW7,6,C*%
%TO.N,GND*%
X146432300Y-63433960D03*
%TD*%
D14*
%TO.P,S3,1,COM_1*%
%TO.N,Net-(R51-Pad2)*%
X115443000Y-110109000D03*
D15*
%TO.P,S3,2,COM_2*%
X108943000Y-110109000D03*
%TO.P,S3,3,NO_1*%
%TO.N,/GPIO_0_27*%
X115443000Y-106109000D03*
%TO.P,S3,4,NO_2*%
X108943000Y-106109000D03*
%TD*%
D16*
%TO.P,J1,1,Pin_1*%
%TO.N,/GPIO_0_0*%
X104216200Y-137883900D03*
D17*
%TO.P,J1,2,Pin_2*%
%TO.N,/GPIO_0_1*%
X101676200Y-137883900D03*
%TO.P,J1,3,Pin_3*%
%TO.N,/GPIO_0_2*%
X104216200Y-135343900D03*
%TO.P,J1,4,Pin_4*%
%TO.N,/GPIO_0_3*%
X101676200Y-135343900D03*
%TO.P,J1,5,Pin_5*%
%TO.N,/GPIO_0_4*%
X104216200Y-132803900D03*
%TO.P,J1,6,Pin_6*%
%TO.N,/GPIO_0_5*%
X101676200Y-132803900D03*
%TO.P,J1,7,Pin_7*%
%TO.N,/GPIO_0_6*%
X104216200Y-130263900D03*
%TO.P,J1,8,Pin_8*%
%TO.N,/GPIO_0_7*%
X101676200Y-130263900D03*
%TO.P,J1,9,Pin_9*%
%TO.N,/GPIO_0_8*%
X104216200Y-127723900D03*
%TO.P,J1,10,Pin_10*%
%TO.N,/GPIO_0_9*%
X101676200Y-127723900D03*
%TO.P,J1,11,Pin_11*%
%TO.N,unconnected-(J1-Pad11)*%
X104216200Y-125183900D03*
%TO.P,J1,12,Pin_12*%
%TO.N,GND*%
X101676200Y-125183900D03*
%TO.P,J1,13,Pin_13*%
%TO.N,/GPIO_0_12*%
X104216200Y-122643900D03*
%TO.P,J1,14,Pin_14*%
%TO.N,/GPIO_0_13*%
X101676200Y-122643900D03*
%TO.P,J1,15,Pin_15*%
%TO.N,/GPIO_0_14*%
X104216200Y-120103900D03*
%TO.P,J1,16,Pin_16*%
%TO.N,/GPIO_0_15*%
X101676200Y-120103900D03*
%TO.P,J1,17,Pin_17*%
%TO.N,/GPIO_0_16*%
X104216200Y-117563900D03*
%TO.P,J1,18,Pin_18*%
%TO.N,/GPIO_0_17*%
X101676200Y-117563900D03*
%TO.P,J1,19,Pin_19*%
%TO.N,/GPIO_0_18*%
X104216200Y-115023900D03*
%TO.P,J1,20,Pin_20*%
%TO.N,/GPIO_0_19*%
X101676200Y-115023900D03*
%TO.P,J1,21,Pin_21*%
%TO.N,/GPIO_0_20*%
X104216200Y-112483900D03*
%TO.P,J1,22,Pin_22*%
%TO.N,/GPIO_0_21*%
X101676200Y-112483900D03*
%TO.P,J1,23,Pin_23*%
%TO.N,/GPIO_0_22*%
X104216200Y-109943900D03*
%TO.P,J1,24,Pin_24*%
%TO.N,/GPIO_0_23*%
X101676200Y-109943900D03*
%TO.P,J1,25,Pin_25*%
%TO.N,/GPIO_0_24*%
X104216200Y-107403900D03*
%TO.P,J1,26,Pin_26*%
%TO.N,/GPIO_0_25*%
X101676200Y-107403900D03*
%TO.P,J1,27,Pin_27*%
%TO.N,/GPIO_0_26*%
X104216200Y-104863900D03*
%TO.P,J1,28,Pin_28*%
%TO.N,/GPIO_0_27*%
X101676200Y-104863900D03*
%TO.P,J1,29,Pin_29*%
%TO.N,+3V3*%
X104216200Y-102323900D03*
%TO.P,J1,30,Pin_30*%
%TO.N,GND*%
X101676200Y-102323900D03*
%TO.P,J1,31,Pin_31*%
%TO.N,/GPIO_0_30*%
X104216200Y-99783900D03*
%TO.P,J1,32,Pin_32*%
%TO.N,/GPIO_0_31*%
X101676200Y-99783900D03*
%TO.P,J1,33,Pin_33*%
%TO.N,/GPIO_0_32*%
X104216200Y-97243900D03*
%TO.P,J1,34,Pin_34*%
%TO.N,/GPIO_0_33*%
X101676200Y-97243900D03*
%TO.P,J1,35,Pin_35*%
%TO.N,/GPIO_0_34*%
X104216200Y-94703900D03*
%TO.P,J1,36,Pin_36*%
%TO.N,/GPIO_0_35*%
X101676200Y-94703900D03*
%TO.P,J1,37,Pin_37*%
%TO.N,/GPIO_0_36*%
X104216200Y-92163900D03*
%TO.P,J1,38,Pin_38*%
%TO.N,/GPIO_0_37*%
X101676200Y-92163900D03*
%TO.P,J1,39,Pin_39*%
%TO.N,/GPIO_0_38*%
X104216200Y-89623900D03*
%TO.P,J1,40,Pin_40*%
%TO.N,/GPIO_0_39*%
X101676200Y-89623900D03*
%TD*%
D11*
%TO.P,SW9,1,A*%
%TO.N,Net-(R29-Pad2)*%
X130874800Y-68513960D03*
%TO.P,SW9,2,B*%
%TO.N,/GPIO_0_30*%
X130874800Y-65973960D03*
%TO.P,SW9,3,C*%
%TO.N,GND*%
X130874800Y-63433960D03*
%TO.P,SW9,4,A*%
%TO.N,Net-(R29-Pad2)*%
X127682020Y-68513960D03*
%TO.P,SW9,5,B*%
%TO.N,/GPIO_0_30*%
X127682020Y-65973960D03*
%TO.P,SW9,6,C*%
%TO.N,GND*%
X127682020Y-63433960D03*
%TD*%
%TO.P,SW12,1,A*%
%TO.N,Net-(R32-Pad2)*%
X105863420Y-68513960D03*
%TO.P,SW12,2,B*%
%TO.N,/GPIO_0_36*%
X105863420Y-65973960D03*
%TO.P,SW12,3,C*%
%TO.N,GND*%
X105863420Y-63433960D03*
%TO.P,SW12,4,A*%
%TO.N,Net-(R32-Pad2)*%
X102670640Y-68513960D03*
%TO.P,SW12,5,B*%
%TO.N,/GPIO_0_36*%
X102670640Y-65973960D03*
%TO.P,SW12,6,C*%
%TO.N,GND*%
X102670640Y-63433960D03*
%TD*%
D14*
%TO.P,S2,1,COM_1*%
%TO.N,Net-(R53-Pad2)*%
X121614000Y-119983000D03*
D15*
%TO.P,S2,2,COM_2*%
X115114000Y-119983000D03*
%TO.P,S2,3,NO_1*%
%TO.N,/GPIO_0_24*%
X121614000Y-115983000D03*
%TO.P,S2,4,NO_2*%
X115114000Y-115983000D03*
%TD*%
D11*
%TO.P,SW8,1,A*%
%TO.N,Net-(R28-Pad2)*%
X141207520Y-68513960D03*
%TO.P,SW8,2,B*%
%TO.N,/GPIO_1_8*%
X141207520Y-65973960D03*
%TO.P,SW8,3,C*%
%TO.N,GND*%
X141207520Y-63433960D03*
%TO.P,SW8,4,A*%
%TO.N,Net-(R28-Pad2)*%
X138014740Y-68513960D03*
%TO.P,SW8,5,B*%
%TO.N,/GPIO_1_8*%
X138014740Y-65973960D03*
%TO.P,SW8,6,C*%
%TO.N,GND*%
X138014740Y-63433960D03*
%TD*%
%TO.P,SW17,1,A*%
%TO.N,Net-(R37-Pad2)*%
X130874800Y-77759560D03*
%TO.P,SW17,2,B*%
%TO.N,/GPIO_0_31*%
X130874800Y-75219560D03*
%TO.P,SW17,3,C*%
%TO.N,GND*%
X130874800Y-72679560D03*
%TO.P,SW17,4,A*%
%TO.N,Net-(R37-Pad2)*%
X127682020Y-77759560D03*
%TO.P,SW17,5,B*%
%TO.N,/GPIO_0_31*%
X127682020Y-75219560D03*
%TO.P,SW17,6,C*%
%TO.N,GND*%
X127682020Y-72679560D03*
%TD*%
D16*
%TO.P,J2,1,Pin_1*%
%TO.N,/GPIO_1_0*%
X165188900Y-89623900D03*
D17*
%TO.P,J2,2,Pin_2*%
%TO.N,/GPIO_1_1*%
X167728900Y-89623900D03*
%TO.P,J2,3,Pin_3*%
%TO.N,/GPIO_1_2*%
X165188900Y-92163900D03*
%TO.P,J2,4,Pin_4*%
%TO.N,/GPIO_1_3*%
X167728900Y-92163900D03*
%TO.P,J2,5,Pin_5*%
%TO.N,/GPIO_1_4*%
X165188900Y-94703900D03*
%TO.P,J2,6,Pin_6*%
%TO.N,/GPIO_1_5*%
X167728900Y-94703900D03*
%TO.P,J2,7,Pin_7*%
%TO.N,/GPIO_1_6*%
X165188900Y-97243900D03*
%TO.P,J2,8,Pin_8*%
%TO.N,/GPIO_1_7*%
X167728900Y-97243900D03*
%TO.P,J2,9,Pin_9*%
%TO.N,/GPIO_1_8*%
X165188900Y-99783900D03*
%TO.P,J2,10,Pin_10*%
%TO.N,/GPIO_1_9*%
X167728900Y-99783900D03*
%TO.P,J2,11,Pin_11*%
%TO.N,unconnected-(J2-Pad11)*%
X165188900Y-102323900D03*
%TO.P,J2,12,Pin_12*%
%TO.N,GND*%
X167728900Y-102323900D03*
%TO.P,J2,13,Pin_13*%
%TO.N,/GPIO_1_12*%
X165188900Y-104863900D03*
%TO.P,J2,14,Pin_14*%
%TO.N,/GPIO_1_13*%
X167728900Y-104863900D03*
%TO.P,J2,15,Pin_15*%
%TO.N,/GPIO_1_14*%
X165188900Y-107403900D03*
%TO.P,J2,16,Pin_16*%
%TO.N,/GPIO_1_15*%
X167728900Y-107403900D03*
%TO.P,J2,17,Pin_17*%
%TO.N,/GPIO_1_16*%
X165188900Y-109943900D03*
%TO.P,J2,18,Pin_18*%
%TO.N,/GPIO_1_17*%
X167728900Y-109943900D03*
%TO.P,J2,19,Pin_19*%
%TO.N,/GPIO_1_18*%
X165188900Y-112483900D03*
%TO.P,J2,20,Pin_20*%
%TO.N,/GPIO_1_19*%
X167728900Y-112483900D03*
%TO.P,J2,21,Pin_21*%
%TO.N,/GPIO_1_20*%
X165188900Y-115023900D03*
%TO.P,J2,22,Pin_22*%
%TO.N,/GPIO_1_21*%
X167728900Y-115023900D03*
%TO.P,J2,23,Pin_23*%
%TO.N,/GPIO_1_22*%
X165188900Y-117563900D03*
%TO.P,J2,24,Pin_24*%
%TO.N,/GPIO_1_23*%
X167728900Y-117563900D03*
%TO.P,J2,25,Pin_25*%
%TO.N,/GPIO_1_24*%
X165188900Y-120103900D03*
%TO.P,J2,26,Pin_26*%
%TO.N,/GPIO_1_25*%
X167728900Y-120103900D03*
%TO.P,J2,27,Pin_27*%
%TO.N,/GPIO_1_26*%
X165188900Y-122643900D03*
%TO.P,J2,28,Pin_28*%
%TO.N,/GPIO_1_27*%
X167728900Y-122643900D03*
%TO.P,J2,29,Pin_29*%
%TO.N,+3V3*%
X165188900Y-125183900D03*
%TO.P,J2,30,Pin_30*%
%TO.N,GND*%
X167728900Y-125183900D03*
%TO.P,J2,31,Pin_31*%
%TO.N,/GPIO_1_30*%
X165188900Y-127723900D03*
%TO.P,J2,32,Pin_32*%
%TO.N,/GPIO_1_31*%
X167728900Y-127723900D03*
%TO.P,J2,33,Pin_33*%
%TO.N,/GPIO_1_32*%
X165188900Y-130263900D03*
%TO.P,J2,34,Pin_34*%
%TO.N,/GPIO_1_33*%
X167728900Y-130263900D03*
%TO.P,J2,35,Pin_35*%
%TO.N,/GPIO_1_34*%
X165188900Y-132803900D03*
%TO.P,J2,36,Pin_36*%
%TO.N,/GPIO_1_35*%
X167728900Y-132803900D03*
%TO.P,J2,37,Pin_37*%
%TO.N,/GPIO_1_36*%
X165188900Y-135343900D03*
%TO.P,J2,38,Pin_38*%
%TO.N,/GPIO_1_37*%
X167728900Y-135343900D03*
%TO.P,J2,39,Pin_39*%
%TO.N,/GPIO_1_38*%
X165188900Y-137883900D03*
%TO.P,J2,40,Pin_40*%
%TO.N,/GPIO_1_39*%
X167728900Y-137883900D03*
%TD*%
D11*
%TO.P,SW13,1,A*%
%TO.N,Net-(R33-Pad2)*%
X166246840Y-77724000D03*
%TO.P,SW13,2,B*%
%TO.N,/GPIO_1_3*%
X166246840Y-75184000D03*
%TO.P,SW13,3,C*%
%TO.N,GND*%
X166246840Y-72644000D03*
%TO.P,SW13,4,A*%
%TO.N,Net-(R33-Pad2)*%
X163054060Y-77724000D03*
%TO.P,SW13,5,B*%
%TO.N,/GPIO_1_3*%
X163054060Y-75184000D03*
%TO.P,SW13,6,C*%
%TO.N,GND*%
X163054060Y-72644000D03*
%TD*%
D18*
%TO.N,/GPIO_0_30*%
X118275000Y-98275000D03*
%TO.N,/GPIO_0_31*%
X116725000Y-97250000D03*
%TO.N,/GPIO_1_0*%
X165175000Y-83800000D03*
%TO.N,/GPIO_1_2*%
X161525000Y-84950000D03*
%TO.N,/GPIO_1_3*%
X163025000Y-83700000D03*
%TO.N,/GPIO_1_4*%
X158475000Y-87400000D03*
%TO.N,/GPIO_1_5*%
X159900000Y-86075000D03*
%TO.N,/GPIO_1_6*%
X155650000Y-90325000D03*
%TO.N,/GPIO_1_7*%
X157050000Y-88825000D03*
%TO.N,/GPIO_1_8*%
X152475000Y-93150000D03*
%TO.N,/GPIO_1_9*%
X154100000Y-91650000D03*
%TO.N,/GPIO_0_32*%
X115175000Y-95950000D03*
%TO.N,/GPIO_0_33*%
X113775000Y-94550000D03*
%TO.N,/GPIO_0_34*%
X112300000Y-93225000D03*
%TO.N,/GPIO_0_35*%
X110871000Y-91821000D03*
%TO.N,/GPIO_0_36*%
X109325000Y-90375000D03*
%TO.N,/GPIO_0_37*%
X107823000Y-88900000D03*
%TO.N,/GPIO_0_38*%
X104267000Y-86233000D03*
%TO.N,/GPIO_0_39*%
X101727000Y-86233000D03*
%TD*%
D19*
%TO.N,/GPIO_1_0*%
X142129960Y-56829960D02*
X141207520Y-56829960D01*
X144050000Y-58750000D02*
X142129960Y-56829960D01*
%TO.N,/GPIO_0_26*%
X121135000Y-106109000D02*
X127635000Y-106109000D01*
%TO.N,/GPIO_0_30*%
X133858000Y-67183000D02*
X133858000Y-82692000D01*
X132648960Y-65973960D02*
X133858000Y-67183000D01*
X133858000Y-82692000D02*
X118275000Y-98275000D01*
D20*
X127682020Y-65973960D02*
X130874800Y-65973960D01*
D19*
X130874800Y-65973960D02*
X132648960Y-65973960D01*
%TO.N,/GPIO_0_31*%
X132842000Y-81133000D02*
X116725000Y-97250000D01*
X130874800Y-75219560D02*
X132242560Y-75219560D01*
X132842000Y-75819000D02*
X132842000Y-81133000D01*
D20*
X127682020Y-75219560D02*
X130874800Y-75219560D01*
D19*
X132242560Y-75219560D02*
X132842000Y-75819000D01*
D20*
%TO.N,/GPIO_1_0*%
X138014740Y-56829960D02*
X141207520Y-56829960D01*
D19*
X168975000Y-80000000D02*
X165175000Y-83800000D01*
X144050000Y-60750000D02*
X144900000Y-61600000D01*
X167800000Y-61600000D02*
X168975000Y-62775000D01*
X144900000Y-61600000D02*
X167800000Y-61600000D01*
X144050000Y-58750000D02*
X144050000Y-60750000D01*
X168975000Y-62775000D02*
X168975000Y-80000000D01*
D20*
%TO.N,/GPIO_1_1*%
X146432300Y-56829960D02*
X149625080Y-56829960D01*
D19*
%TO.N,/GPIO_1_2*%
X163026120Y-65938400D02*
X161136600Y-65938400D01*
X159775000Y-67300000D02*
X159775000Y-67590166D01*
X159975000Y-67790166D02*
X159975000Y-83400000D01*
X159775000Y-67590166D02*
X159975000Y-67790166D01*
X161136600Y-65938400D02*
X159775000Y-67300000D01*
X159975000Y-83400000D02*
X161525000Y-84950000D01*
D20*
X163026120Y-65938400D02*
X166218900Y-65938400D01*
D19*
%TO.N,/GPIO_1_3*%
X161816000Y-75184000D02*
X160800000Y-76200000D01*
X160800000Y-81475000D02*
X163025000Y-83700000D01*
X160800000Y-76200000D02*
X160800000Y-81475000D01*
D20*
X163054060Y-75184000D02*
X166246840Y-75184000D01*
D19*
X163054060Y-75184000D02*
X161816000Y-75184000D01*
%TO.N,/GPIO_1_4*%
X154606020Y-65938400D02*
X152261600Y-65938400D01*
X158475000Y-87400000D02*
X151600000Y-80525000D01*
X151600000Y-80525000D02*
X151600000Y-66600000D01*
D20*
X154606020Y-65938400D02*
X157798800Y-65938400D01*
D19*
X152261600Y-65938400D02*
X151600000Y-66600000D01*
%TO.N,/GPIO_1_5*%
X159900000Y-86075000D02*
X159750000Y-86075000D01*
X152600000Y-78925000D02*
X152600000Y-76100000D01*
X154661900Y-75184000D02*
X153516000Y-75184000D01*
D20*
X154661900Y-75184000D02*
X157854680Y-75184000D01*
D19*
X159750000Y-86075000D02*
X152600000Y-78925000D01*
X153516000Y-75184000D02*
X152600000Y-76100000D01*
D20*
%TO.N,/GPIO_1_6*%
X146432300Y-65973960D02*
X149625080Y-65973960D01*
D19*
X143100000Y-78450000D02*
X154975000Y-90325000D01*
X144026040Y-65973960D02*
X143100000Y-66900000D01*
X146432300Y-65973960D02*
X144026040Y-65973960D01*
X154975000Y-90325000D02*
X155650000Y-90325000D01*
X143100000Y-66900000D02*
X143100000Y-78450000D01*
D20*
%TO.N,/GPIO_1_7*%
X146478020Y-75219560D02*
X149670800Y-75219560D01*
D19*
X154725000Y-88825000D02*
X157050000Y-88825000D01*
X144000000Y-78100000D02*
X154725000Y-88825000D01*
X146478020Y-75219560D02*
X144980440Y-75219560D01*
X144980440Y-75219560D02*
X144000000Y-76200000D01*
X144000000Y-76200000D02*
X144000000Y-78100000D01*
%TO.N,/GPIO_1_8*%
X134700000Y-66900000D02*
X135626040Y-65973960D01*
X152475000Y-93150000D02*
X142050000Y-93150000D01*
X135626040Y-65973960D02*
X138014740Y-65973960D01*
X142050000Y-93150000D02*
X134700000Y-85800000D01*
D20*
X138014740Y-65973960D02*
X141207520Y-65973960D01*
D19*
X134700000Y-85800000D02*
X134700000Y-66900000D01*
%TO.N,/GPIO_1_9*%
X135500000Y-78500000D02*
X148650000Y-91650000D01*
X148650000Y-91650000D02*
X154100000Y-91650000D01*
X136280440Y-75219560D02*
X135500000Y-76000000D01*
X135500000Y-76000000D02*
X135500000Y-78500000D01*
X138111260Y-75219560D02*
X136280440Y-75219560D01*
D20*
X138111260Y-75219560D02*
X141304040Y-75219560D01*
D19*
%TO.N,/GPIO_0_32*%
X125730000Y-66802000D02*
X125730000Y-85395000D01*
X122228640Y-65973960D02*
X124901960Y-65973960D01*
X124901960Y-65973960D02*
X125730000Y-66802000D01*
D20*
X119035860Y-65973960D02*
X122228640Y-65973960D01*
D19*
X125730000Y-85395000D02*
X115175000Y-95950000D01*
%TO.N,/GPIO_0_33*%
X123352560Y-75219560D02*
X124206000Y-76073000D01*
D20*
X119035860Y-75219560D02*
X122228640Y-75219560D01*
D19*
X124206000Y-84119000D02*
X113775000Y-94550000D01*
X124206000Y-76073000D02*
X124206000Y-84119000D01*
X122228640Y-75219560D02*
X123352560Y-75219560D01*
%TO.N,/GPIO_0_24*%
X121614000Y-115983000D02*
X115114000Y-115983000D01*
%TO.N,/GPIO_0_27*%
X115443000Y-106109000D02*
X108943000Y-106109000D01*
%TO.N,/GPIO_0_34*%
X117309840Y-88215160D02*
X112300000Y-93225000D01*
X116265960Y-65973960D02*
X117309840Y-67017840D01*
X114255580Y-65973960D02*
X116265960Y-65973960D01*
D20*
X111062800Y-65973960D02*
X114255580Y-65973960D01*
D19*
X117309840Y-67017840D02*
X117309840Y-88215160D01*
D20*
%TO.N,/GPIO_0_35*%
X111062800Y-75219560D02*
X114255580Y-75219560D01*
D19*
X115478560Y-75219560D02*
X116332000Y-76073000D01*
X116332000Y-76073000D02*
X116332000Y-86360000D01*
X116332000Y-86360000D02*
X110871000Y-91821000D01*
X114255580Y-75219560D02*
X115478560Y-75219560D01*
%TO.N,/GPIO_0_36*%
X105863420Y-65973960D02*
X107629960Y-65973960D01*
X109336780Y-67680780D02*
X109336780Y-90363220D01*
X107629960Y-65973960D02*
X109336780Y-67680780D01*
X109336780Y-90363220D02*
X109325000Y-90375000D01*
D20*
X102670640Y-65973960D02*
X105863420Y-65973960D01*
D19*
%TO.N,/GPIO_0_37*%
X106588560Y-75219560D02*
X105863420Y-75219560D01*
X107823000Y-88900000D02*
X107823000Y-76454000D01*
D20*
X102670640Y-75219560D02*
X105863420Y-75219560D01*
D19*
X107823000Y-76454000D02*
X106588560Y-75219560D01*
%TO.N,/GPIO_0_38*%
X100910520Y-61649480D02*
X100910520Y-82876520D01*
X124460000Y-60198000D02*
X123444000Y-61214000D01*
X123444000Y-61214000D02*
X101346000Y-61214000D01*
X100910520Y-82876520D02*
X104267000Y-86233000D01*
D20*
X127682020Y-56829960D02*
X130874800Y-56829960D01*
D19*
X101346000Y-61214000D02*
X100910520Y-61649480D01*
X124460000Y-58293000D02*
X124460000Y-60198000D01*
X127682020Y-56829960D02*
X125923040Y-56829960D01*
X125923040Y-56829960D02*
X124460000Y-58293000D01*
%TO.N,/GPIO_0_39*%
X100838000Y-60198000D02*
X115667820Y-60198000D01*
X101727000Y-86233000D02*
X100203000Y-84709000D01*
X115667820Y-60198000D02*
X119035860Y-56829960D01*
X100203000Y-84709000D02*
X100203000Y-60833000D01*
X100203000Y-60833000D02*
X100838000Y-60198000D01*
D20*
X119035860Y-56829960D02*
X122228640Y-56829960D01*
%TO.N,Net-(R21-Pad2)*%
X146432300Y-59369960D02*
X149625080Y-59369960D01*
%TO.N,Net-(R22-Pad2)*%
X138014740Y-59369960D02*
X141207520Y-59369960D01*
%TO.N,Net-(R23-Pad2)*%
X127682020Y-59369960D02*
X130874800Y-59369960D01*
%TO.N,Net-(R24-Pad2)*%
X119035860Y-59369960D02*
X122228640Y-59369960D01*
%TO.N,Net-(R25-Pad2)*%
X163026120Y-68478400D02*
X166218900Y-68478400D01*
%TO.N,Net-(R26-Pad2)*%
X154606020Y-68478400D02*
X157798800Y-68478400D01*
%TO.N,Net-(R27-Pad2)*%
X146432300Y-68513960D02*
X149625080Y-68513960D01*
%TO.N,Net-(R29-Pad2)*%
X127682020Y-68513960D02*
X130874800Y-68513960D01*
%TO.N,Net-(R30-Pad2)*%
X119035860Y-68513960D02*
X122228640Y-68513960D01*
%TO.N,Net-(R31-Pad2)*%
X111062800Y-68513960D02*
X114255580Y-68513960D01*
%TO.N,Net-(R32-Pad2)*%
X102670640Y-68513960D02*
X105863420Y-68513960D01*
%TO.N,Net-(R33-Pad2)*%
X166246840Y-77724000D02*
X163054060Y-77724000D01*
%TO.N,Net-(R34-Pad2)*%
X157854680Y-77724000D02*
X154661900Y-77724000D01*
%TO.N,Net-(R35-Pad2)*%
X149670800Y-77759560D02*
X146478020Y-77759560D01*
%TO.N,Net-(R36-Pad2)*%
X141304040Y-77759560D02*
X138111260Y-77759560D01*
%TO.N,Net-(R37-Pad2)*%
X130874800Y-77759560D02*
X127682020Y-77759560D01*
%TO.N,Net-(R38-Pad2)*%
X119035860Y-77759560D02*
X122228640Y-77759560D01*
%TO.N,Net-(R39-Pad2)*%
X114255580Y-77759560D02*
X111062800Y-77759560D01*
%TO.N,Net-(R40-Pad2)*%
X102670640Y-77759560D02*
X105863420Y-77759560D01*
D19*
%TO.N,Net-(R51-Pad2)*%
X115443000Y-110109000D02*
X108943000Y-110109000D01*
%TO.N,Net-(R52-Pad2)*%
X127635000Y-110109000D02*
X121135000Y-110109000D01*
%TO.N,Net-(R53-Pad2)*%
X115114000Y-119983000D02*
X121614000Y-119983000D01*
%TD*%
M02*
