M48
; DRILL file {KiCad (6.0.1)} date Sat Apr 23 13:54:16 2022
; FORMAT={-:-/ absolute / inch / decimal}
; #@! TF.CreationDate,2022-04-23T13:54:16+02:00
; #@! TF.GenerationSoftware,Kicad,Pcbnew,(6.0.1)
; #@! TF.FileFunction,Plated,1,2,PTH
FMAT,2
INCH
; #@! TA.AperFunction,Plated,PTH,ComponentDrill
T1C0.0201
; #@! TA.AperFunction,Plated,PTH,ViaDrill
T2C0.0220
; #@! TA.AperFunction,Plated,PTH,ComponentDrill
T3C0.0295
; #@! TA.AperFunction,Plated,PTH,ComponentDrill
T4C0.0315
; #@! TA.AperFunction,Plated,PTH,ComponentDrill
T5C0.0394
; #@! TA.AperFunction,Plated,PTH,ComponentDrill
T6C0.1260
%
G90
G05
T1
X5.485Y-4.1089
X5.485Y-4.6011
X5.585Y-4.1089
X5.585Y-4.6011
X5.685Y-4.1089
X5.685Y-4.6011
X5.785Y-4.1089
X5.785Y-4.6011
X5.885Y-4.1089
X5.885Y-4.6011
T2
X4.005Y-3.395
X4.105Y-3.395
X4.2339Y-3.3996
X4.3075Y-3.5598
X4.3248Y-3.3996
X4.4181Y-3.5555
X4.4224Y-3.6724
X4.5504Y-3.6642
X4.5602Y-3.7898
X4.6559Y-3.811
X5.8587Y-3.6516
X5.985Y-3.5004
X6.0319Y-3.6413
X6.1394Y-3.5539
X6.163Y-3.4134
X6.2728Y-3.4201
X6.2906Y-3.2504
X6.4183Y-3.2953
X6.5606Y-3.2886
T3
X5.4341Y-3.8716
X5.4341Y-3.9216
X5.4341Y-3.9716
X6.2018Y-4.4039
X6.2018Y-4.4539
X6.2018Y-4.5039
T4
X4.0422Y-2.4974
X4.0422Y-2.5974
X4.0422Y-2.6974
X4.0422Y-2.8614
X4.0422Y-2.9614
X4.0422Y-3.0614
X4.1679Y-2.4974
X4.1679Y-2.5974
X4.1679Y-2.6974
X4.1679Y-2.8614
X4.1679Y-2.9614
X4.1679Y-3.0614
X4.3726Y-2.4974
X4.3726Y-2.5974
X4.3726Y-2.6974
X4.3726Y-2.8614
X4.3726Y-2.9614
X4.3726Y-3.0614
X4.4983Y-2.4974
X4.4983Y-2.5974
X4.4983Y-2.6974
X4.4983Y-2.8614
X4.4983Y-2.9614
X4.4983Y-3.0614
X4.6865Y-2.1374
X4.6865Y-2.2374
X4.6865Y-2.3374
X4.6865Y-2.4974
X4.6865Y-2.5974
X4.6865Y-2.6974
X4.6865Y-2.8614
X4.6865Y-2.9614
X4.6865Y-3.0614
X4.8122Y-2.1374
X4.8122Y-2.2374
X4.8122Y-2.3374
X4.8122Y-2.4974
X4.8122Y-2.5974
X4.8122Y-2.6974
X4.8122Y-2.8614
X4.8122Y-2.9614
X4.8122Y-3.0614
X5.0269Y-2.1374
X5.0269Y-2.2374
X5.0269Y-2.3374
X5.0269Y-2.4974
X5.0269Y-2.5974
X5.0269Y-2.6974
X5.0269Y-2.8614
X5.0269Y-2.9614
X5.0269Y-3.0614
X5.1526Y-2.1374
X5.1526Y-2.2374
X5.1526Y-2.3374
X5.1526Y-2.4974
X5.1526Y-2.5974
X5.1526Y-2.6974
X5.1526Y-2.8614
X5.1526Y-2.9614
X5.1526Y-3.0614
X5.4337Y-2.1374
X5.4337Y-2.2374
X5.4337Y-2.3374
X5.4337Y-2.4974
X5.4337Y-2.5974
X5.4337Y-2.6974
X5.4375Y-2.8614
X5.4375Y-2.9614
X5.4375Y-3.0614
X5.5594Y-2.1374
X5.5594Y-2.2374
X5.5594Y-2.3374
X5.5594Y-2.4974
X5.5594Y-2.5974
X5.5594Y-2.6974
X5.5632Y-2.8614
X5.5632Y-2.9614
X5.5632Y-3.0614
X5.7651Y-2.1374
X5.7651Y-2.2374
X5.7651Y-2.3374
X5.7651Y-2.4974
X5.7651Y-2.5974
X5.7651Y-2.6974
X5.7669Y-2.8614
X5.7669Y-2.9614
X5.7669Y-3.0614
X5.8908Y-2.1374
X5.8908Y-2.2374
X5.8908Y-2.3374
X5.8908Y-2.4974
X5.8908Y-2.5974
X5.8908Y-2.6974
X5.8926Y-2.8614
X5.8926Y-2.9614
X5.8926Y-3.0614
X6.0869Y-2.496
X6.0869Y-2.596
X6.0869Y-2.696
X6.0891Y-2.86
X6.0891Y-2.96
X6.0891Y-3.06
X6.2126Y-2.496
X6.2126Y-2.596
X6.2126Y-2.696
X6.2148Y-2.86
X6.2148Y-2.96
X6.2148Y-3.06
X6.4184Y-2.496
X6.4184Y-2.596
X6.4184Y-2.696
X6.4195Y-2.86
X6.4195Y-2.96
X6.4195Y-3.06
X6.5441Y-2.496
X6.5441Y-2.596
X6.5441Y-2.696
X6.5452Y-2.86
X6.5452Y-2.96
X6.5452Y-3.06
T5
X4.003Y-3.5285
X4.003Y-3.6285
X4.003Y-3.7285
X4.003Y-3.8285
X4.003Y-3.9285
X4.003Y-4.0285
X4.003Y-4.1285
X4.003Y-4.2285
X4.003Y-4.3285
X4.003Y-4.4285
X4.003Y-4.5285
X4.003Y-4.6285
X4.003Y-4.7285
X4.003Y-4.8285
X4.003Y-4.9285
X4.003Y-5.0285
X4.003Y-5.1285
X4.003Y-5.2285
X4.003Y-5.3285
X4.003Y-5.4285
X4.103Y-3.5285
X4.103Y-3.6285
X4.103Y-3.7285
X4.103Y-3.8285
X4.103Y-3.9285
X4.103Y-4.0285
X4.103Y-4.1285
X4.103Y-4.2285
X4.103Y-4.3285
X4.103Y-4.4285
X4.103Y-4.5285
X4.103Y-4.6285
X4.103Y-4.7285
X4.103Y-4.8285
X4.103Y-4.9285
X4.103Y-5.0285
X4.103Y-5.1285
X4.103Y-5.2285
X4.103Y-5.3285
X4.103Y-5.4285
X4.2891Y-4.1775
X4.2891Y-4.335
X4.532Y-4.5663
X4.532Y-4.7237
X4.545Y-4.1775
X4.545Y-4.335
X4.7691Y-4.1775
X4.7691Y-4.335
X4.788Y-4.5663
X4.788Y-4.7237
X5.025Y-4.1775
X5.025Y-4.335
X6.5035Y-3.5285
X6.5035Y-3.6285
X6.5035Y-3.7285
X6.5035Y-3.8285
X6.5035Y-3.9285
X6.5035Y-4.0285
X6.5035Y-4.1285
X6.5035Y-4.2285
X6.5035Y-4.3285
X6.5035Y-4.4285
X6.5035Y-4.5285
X6.5035Y-4.6285
X6.5035Y-4.7285
X6.5035Y-4.8285
X6.5035Y-4.9285
X6.5035Y-5.0285
X6.5035Y-5.1285
X6.5035Y-5.2285
X6.5035Y-5.3285
X6.5035Y-5.4285
X6.6035Y-3.5285
X6.6035Y-3.6285
X6.6035Y-3.7285
X6.6035Y-3.8285
X6.6035Y-3.9285
X6.6035Y-4.0285
X6.6035Y-4.1285
X6.6035Y-4.2285
X6.6035Y-4.3285
X6.6035Y-4.4285
X6.6035Y-4.5285
X6.6035Y-4.6285
X6.6035Y-4.7285
X6.6035Y-4.8285
X6.6035Y-4.9285
X6.6035Y-5.0285
X6.6035Y-5.1285
X6.6035Y-5.2285
X6.6035Y-5.3285
X6.6035Y-5.4285
T6
X4.065Y-2.2195
X4.065Y-5.7595
X6.545Y-2.22
X6.546Y-5.7595
T0
M30
